<?xml version="1.0" encoding="UTF-8" standalone="no"?>
<!-- Created with Inkscape (http://www.inkscape.org/) -->

<svg
   xmlns:dc="http://purl.org/dc/elements/1.1/"
   xmlns:cc="http://creativecommons.org/ns#"
   xmlns:rdf="http://www.w3.org/1999/02/22-rdf-syntax-ns#"
   xmlns:svg="http://www.w3.org/2000/svg"
   xmlns="http://www.w3.org/2000/svg"
   xmlns:sodipodi="http://sodipodi.sourceforge.net/DTD/sodipodi-0.dtd"
   xmlns:inkscape="http://www.inkscape.org/namespaces/inkscape"
   width="60"
   height="380"
   viewBox="0 0 15.875001 100.54166"
   version="1.1"
   id="svg8"
   inkscape:version="0.91 r13725"
   sodipodi:docname="BCrush.svg">
  <defs
     id="defs2" />
  <sodipodi:namedview
     id="base"
     pagecolor="#000000"
     bordercolor="#666666"
     borderopacity="1.0"
     inkscape:pageopacity="0"
     inkscape:pageshadow="2"
     inkscape:zoom="5.8144545"
     inkscape:cx="26.157279"
     inkscape:cy="353.41623"
     inkscape:document-units="mm"
     inkscape:current-layer="layer1"
     showgrid="true"
     units="px"
     inkscape:snap-bbox="false"
     inkscape:snap-page="true"
     inkscape:bbox-nodes="false"
     inkscape:snap-bbox-edge-midpoints="true"
     inkscape:window-width="1388"
     inkscape:window-height="1078"
     inkscape:window-x="531"
     inkscape:window-y="0"
     inkscape:window-maximized="0"
     height="128.5mm"
     inkscape:snap-object-midpoints="false"
     inkscape:snap-center="true"
     inkscape:bbox-paths="false"
     inkscape:snap-grids="true"
     inkscape:snap-others="true"
     inkscape:snap-bbox-midpoints="true"
     inkscape:snap-nodes="false">
    <inkscape:grid
       type="xygrid"
       id="grid4151"
       units="px"
       spacingx="7.9375005"
       spacingy="0.66145829" />
  </sodipodi:namedview>
  <metadata
     id="metadata5">
    <rdf:RDF>
      <cc:Work
         rdf:about="">
        <dc:format>image/svg+xml</dc:format>
        <dc:type
           rdf:resource="http://purl.org/dc/dcmitype/StillImage" />
        <dc:title />
      </cc:Work>
    </rdf:RDF>
  </metadata>
  <g
     inkscape:label="Layer 1"
     inkscape:groupmode="layer"
     id="layer1"
     transform="translate(0,-196.45833)">
    <path
       style="opacity:1;fill:#121311;fill-opacity:1;fill-rule:evenodd;stroke:none;stroke-width:0.48607069;stroke-linecap:butt;stroke-linejoin:round;stroke-miterlimit:4;stroke-dasharray:none;stroke-dashoffset:0;stroke-opacity:1;paint-order:normal"
       d="m 0,196.45832 15.875001,0 0,100.54167 -15.875001,0 z"
       id="rect817"
       inkscape:connector-curvature="0" />
    <g
       style="font-style:normal;font-variant:normal;font-weight:bold;font-stretch:normal;font-size:2.64583349px;line-height:125%;font-family:'DejaVu Sans';-inkscape-font-specification:'DejaVu Sans, Bold';text-align:start;letter-spacing:0px;word-spacing:0px;writing-mode:lr-tb;text-anchor:start;fill:#fafafa;fill-opacity:1;stroke:none;stroke-width:1px;stroke-linecap:butt;stroke-linejoin:miter;stroke-opacity:1"
       id="text4146"
       transform="translate(-5.636981e-8,5.0746996)">
      <path
         d="m 2.3511646,219.60185 q -0.049335,-0.0231 -0.09867,-0.0336 -0.048285,-0.0115 -0.09762,-0.0115 -0.1448555,0 -0.2235813,0.0934 -0.077676,0.0924 -0.077676,0.26557 l 0,0.54164 -0.3757846,0 0,-1.17564 0.3757846,0 0,0.19314 q 0.072428,-0.11547 0.1658491,-0.16795 0.094471,-0.0535 0.2256807,-0.0535 0.018894,0 0.040937,0.002 0.022043,10e-4 0.06403,0.006 l 0.00105,0.3401 z"
         style="font-style:normal;font-variant:normal;font-weight:bold;font-stretch:normal;font-size:2.14973974px;line-height:125%;font-family:'DejaVu Sans';-inkscape-font-specification:'DejaVu Sans, Bold';text-align:start;writing-mode:lr-tb;text-anchor:start"
         id="path4168"
         inkscape:connector-curvature="0" />
      <path
         d="m 3.0670447,219.9283 q -0.1175638,0 -0.1773955,0.0399 -0.058782,0.0399 -0.058782,0.11756 0,0.0714 0.047236,0.11232 0.048285,0.0399 0.133309,0.0399 0.1060175,0 0.1784452,-0.0756 0.072428,-0.0766 0.072428,-0.19104 l 0,-0.043 -0.1952401,0 z m 0.5741737,-0.14171 0,0.67075 -0.3789336,0 0,-0.17425 q -0.075577,0.10707 -0.1700478,0.1564 -0.094471,0.0483 -0.2298794,0.0483 -0.1826439,0 -0.2970587,-0.10602 -0.1133652,-0.10707 -0.1133652,-0.27712 0,-0.20678 0.1417064,-0.30335 0.1427562,-0.0966 0.4471627,-0.0966 l 0.221482,0 0,-0.0294 q 0,-0.0892 -0.070328,-0.13016 -0.070328,-0.042 -0.2193826,-0.042 -0.120713,0 -0.224631,0.0241 -0.1039181,0.0241 -0.1931407,0.0724 l 0,-0.28656 q 0.1207129,-0.0294 0.2424755,-0.0441 0.1217626,-0.0157 0.2435252,-0.0157 0.3180523,0 0.4587091,0.12596 0.1417065,0.12491 0.1417065,0.40727 z"
         style="font-style:normal;font-variant:normal;font-weight:bold;font-stretch:normal;font-size:2.14973974px;line-height:125%;font-family:'DejaVu Sans';-inkscape-font-specification:'DejaVu Sans, Bold';text-align:start;writing-mode:lr-tb;text-anchor:start"
         id="path4170"
         inkscape:connector-curvature="0" />
      <path
         d="m 4.4032843,218.9479 0,0.3338 0.3873311,0 0,0.26871 -0.3873311,0 0,0.4986 q 0,0.0819 0.03254,0.11127 0.03254,0.0283 0.1291104,0.0283 l 0.1931406,0 0,0.26872 -0.322251,0 q -0.2225316,0 -0.3159529,-0.0924 -0.092372,-0.0934 -0.092372,-0.31595 l 0,-0.4986 -0.1868426,0 0,-0.26871 0.1868426,0 0,-0.3338 0.3757846,0 z"
         style="font-style:normal;font-variant:normal;font-weight:bold;font-stretch:normal;font-size:2.14973974px;line-height:125%;font-family:'DejaVu Sans';-inkscape-font-specification:'DejaVu Sans, Bold';text-align:start;writing-mode:lr-tb;text-anchor:start"
         id="path4172"
         inkscape:connector-curvature="0" />
      <path
         d="m 6.1950841,219.86637 0,0.10707 -0.8785802,0 q 0.013646,0.13225 0.095521,0.19838 0.081875,0.0661 0.2288297,0.0661 0.1186136,0 0.2424755,-0.0346 0.1249117,-0.0357 0.2561214,-0.10706 l 0,0.28971 q -0.1333091,0.0504 -0.2666181,0.0756 -0.1333091,0.0262 -0.2666182,0.0262 -0.319102,0 -0.4964975,-0.16165 -0.1763458,-0.1627 -0.1763458,-0.45556 0,-0.28762 0.1731968,-0.45241 0.1742465,-0.1648 0.478653,-0.1648 0.2771149,0 0.4429639,0.16689 0.1668988,0.1669 0.1668988,0.44612 z m -0.3862814,-0.12491 q 0,-0.10707 -0.062981,-0.17215 -0.061931,-0.0661 -0.1627001,-0.0661 -0.1091664,0 -0.1773955,0.0619 -0.068229,0.0609 -0.085024,0.17635 l 0.4881001,0 z"
         style="font-style:normal;font-variant:normal;font-weight:bold;font-stretch:normal;font-size:2.14973974px;line-height:125%;font-family:'DejaVu Sans';-inkscape-font-specification:'DejaVu Sans, Bold';text-align:start;writing-mode:lr-tb;text-anchor:start"
         id="path4174"
         inkscape:connector-curvature="0" />
    </g>
    <g
       style="font-style:normal;font-variant:normal;font-weight:bold;font-stretch:normal;font-size:2.64583349px;line-height:125%;font-family:'DejaVu Sans';-inkscape-font-specification:'DejaVu Sans, Bold';text-align:start;letter-spacing:0px;word-spacing:0px;writing-mode:lr-tb;text-anchor:start;fill:#fafafa;fill-opacity:1;stroke:none;stroke-width:1px;stroke-linecap:butt;stroke-linejoin:miter;stroke-opacity:1"
       id="text4150"
       transform="translate(0.52916822,-0.34083044)">
      <path
         d="m 10.227719,225.15698 0,0.71588 -0.3778842,0 0,-0.11651 0,-0.42932 q 0,-0.1543 -0.00735,-0.21203 -0.0063,-0.0577 -0.023093,-0.085 -0.022043,-0.0367 -0.059832,-0.0567 -0.037788,-0.021 -0.086074,-0.021 -0.1175639,0 -0.1847433,0.0913 -0.067179,0.0903 -0.067179,0.25087 l 0,0.57837 -0.3757846,0 0,-1.63329 0.3757846,0 0,0.6298 q 0.085024,-0.10287 0.1805445,-0.15115 0.095521,-0.0493 0.2109852,-0.0493 0.2036378,0 0.3086048,0.12492 0.106018,0.12491 0.106018,0.36318 z"
         style="font-style:normal;font-variant:normal;font-weight:bold;font-stretch:normal;font-size:2.14973974px;line-height:125%;font-family:'DejaVu Sans';-inkscape-font-specification:'DejaVu Sans, Bold';text-align:start;writing-mode:lr-tb;text-anchor:start"
         id="path4181"
         inkscape:connector-curvature="0" />
      <path
         d="m 11.137789,224.9376 q -0.124911,0 -0.191041,0.0903 -0.06508,0.0892 -0.06508,0.25822 0,0.169 0.06508,0.25927 0.06613,0.0892 0.191041,0.0892 0.122813,0 0.187893,-0.0892 0.06508,-0.0903 0.06508,-0.25927 0,-0.16899 -0.06508,-0.25822 -0.06508,-0.0903 -0.187893,-0.0903 z m 0,-0.26872 q 0.303357,0 0.473405,0.16375 0.171097,0.16375 0.171097,0.45346 0,0.28972 -0.171097,0.45346 -0.170048,0.16375 -0.473405,0.16375 -0.304406,0 -0.476553,-0.16375 -0.171098,-0.16374 -0.171098,-0.45346 0,-0.28971 0.171098,-0.45346 0.172147,-0.16375 0.476553,-0.16375 z"
         style="font-style:normal;font-variant:normal;font-weight:bold;font-stretch:normal;font-size:2.14973974px;line-height:125%;font-family:'DejaVu Sans';-inkscape-font-specification:'DejaVu Sans, Bold';text-align:start;writing-mode:lr-tb;text-anchor:start"
         id="path4183"
         inkscape:connector-curvature="0" />
      <path
         d="m 12.056257,224.23957 0.375785,0 0,1.63329 -0.375785,0 0,-1.63329 z"
         style="font-style:normal;font-variant:normal;font-weight:bold;font-stretch:normal;font-size:2.14973974px;line-height:125%;font-family:'DejaVu Sans';-inkscape-font-specification:'DejaVu Sans, Bold';text-align:start;writing-mode:lr-tb;text-anchor:start"
         id="path4185"
         inkscape:connector-curvature="0" />
      <path
         d="m 13.595084,224.86937 0,-0.6298 0.377884,0 0,1.63329 -0.377884,0 0,-0.17004 q -0.07768,0.10391 -0.171097,0.1522 -0.09342,0.0483 -0.216234,0.0483 -0.217283,0 -0.35689,-0.17214 -0.139607,-0.1732 -0.139607,-0.44507 0,-0.27186 0.139607,-0.44401 0.139607,-0.1732 0.35689,-0.1732 0.121763,0 0.215184,0.0493 0.09447,0.0483 0.172147,0.15115 z m -0.247723,0.76102 q 0.120712,0 0.183693,-0.0882 0.06403,-0.0882 0.06403,-0.25613 0,-0.16794 -0.06403,-0.25612 -0.06298,-0.0882 -0.183693,-0.0882 -0.119664,0 -0.183694,0.0882 -0.06298,0.0882 -0.06298,0.25612 0,0.16795 0.06298,0.25613 0.06403,0.0882 0.183694,0.0882 z"
         style="font-style:normal;font-variant:normal;font-weight:bold;font-stretch:normal;font-size:2.14973974px;line-height:125%;font-family:'DejaVu Sans';-inkscape-font-specification:'DejaVu Sans, Bold';text-align:start;writing-mode:lr-tb;text-anchor:start"
         id="path4187"
         inkscape:connector-curvature="0" />
    </g>
    <g
       style="font-style:normal;font-variant:normal;font-weight:bold;font-stretch:normal;font-size:2.64583349px;line-height:125%;font-family:'DejaVu Sans';-inkscape-font-specification:'DejaVu Sans, Bold';text-align:start;letter-spacing:0px;word-spacing:0px;writing-mode:lr-tb;text-anchor:start;fill:#fafafa;fill-opacity:1;stroke:none;stroke-width:1px;stroke-linecap:butt;stroke-linejoin:miter;stroke-opacity:1"
       id="text4176"
       transform="translate(4.3630189e-8,1.322927)">
      <path
         d="m 2.9515802,244.52031 q -0.049335,-0.0231 -0.09867,-0.0336 -0.048285,-0.0115 -0.09762,-0.0115 -0.1448555,0 -0.2235813,0.0934 -0.077676,0.0924 -0.077676,0.26557 l 0,0.54163 -0.3757846,0 0,-1.17564 0.3757846,0 0,0.19315 q 0.072428,-0.11547 0.1658491,-0.16795 0.094471,-0.0535 0.2256807,-0.0535 0.018894,0 0.040937,0.002 0.022043,0.001 0.06403,0.006 l 0.00105,0.3401 z"
         style="font-style:normal;font-variant:normal;font-weight:bold;font-stretch:normal;font-size:2.14973974px;line-height:125%;font-family:'DejaVu Sans';-inkscape-font-specification:'DejaVu Sans, Bold';text-align:start;writing-mode:lr-tb;text-anchor:start"
         id="path4194"
         inkscape:connector-curvature="0" />
      <path
         d="m 4.3140617,244.78482 0,0.10707 -0.8785801,0 q 0.013646,0.13226 0.095521,0.19839 0.081875,0.0661 0.2288298,0.0661 0.1186135,0 0.2424755,-0.0346 0.1249116,-0.0357 0.2561213,-0.10707 l 0,0.28972 q -0.133309,0.0504 -0.2666181,0.0756 -0.133309,0.0262 -0.2666181,0.0262 -0.319102,0 -0.4964975,-0.16165 -0.1763458,-0.1627 -0.1763458,-0.45556 0,-0.28761 0.1731968,-0.45241 0.1742464,-0.1648 0.478653,-0.1648 0.2771148,0 0.4429639,0.1669 0.1668987,0.1669 0.1668987,0.44611 z m -0.3862813,-0.12491 q 0,-0.10706 -0.062981,-0.17214 -0.061931,-0.0661 -0.1627,-0.0661 -0.1091665,0 -0.1773955,0.0619 -0.068229,0.0609 -0.085024,0.17634 l 0.4881001,0 z"
         style="font-style:normal;font-variant:normal;font-weight:bold;font-stretch:normal;font-size:2.14973974px;line-height:125%;font-family:'DejaVu Sans';-inkscape-font-specification:'DejaVu Sans, Bold';text-align:start;writing-mode:lr-tb;text-anchor:start"
         id="path4196"
         inkscape:connector-curvature="0" />
      <path
         d="m 5.5159427,244.23689 0,0.28552 q -0.120713,-0.0504 -0.2330285,-0.0756 -0.1123155,-0.0252 -0.2120349,-0.0252 -0.1070671,0 -0.1595509,0.0273 -0.051434,0.0262 -0.051434,0.0819 0,0.0451 0.038838,0.0693 0.039888,0.0241 0.1417065,0.0357 l 0.06613,0.009 q 0.2886613,0.0367 0.3883807,0.12071 0.099719,0.084 0.099719,0.26347 0,0.18789 -0.1385575,0.28236 -0.1385574,0.0945 -0.4135729,0.0945 -0.1165143,0 -0.2414259,-0.0189 -0.123862,-0.0178 -0.2550717,-0.0546 l 0,-0.28552 q 0.1123155,0.0546 0.2298794,0.0819 0.1186136,0.0273 0.2403762,0.0273 0.1102162,0 0.1658491,-0.0304 0.055633,-0.0304 0.055633,-0.0903 0,-0.0504 -0.038838,-0.0745 -0.037788,-0.0252 -0.1522032,-0.0388 l -0.06613,-0.008 q -0.250873,-0.0315 -0.351642,-0.11652 -0.1007691,-0.085 -0.1007691,-0.25822 0,-0.18684 0.1280607,-0.27711 0.1280607,-0.0903 0.3925794,-0.0903 0.1039181,0 0.218333,0.0157 0.1144148,0.0157 0.2487736,0.0493 z"
         style="font-style:normal;font-variant:normal;font-weight:bold;font-stretch:normal;font-size:2.14973974px;line-height:125%;font-family:'DejaVu Sans';-inkscape-font-specification:'DejaVu Sans, Bold';text-align:start;writing-mode:lr-tb;text-anchor:start"
         id="path4198"
         inkscape:connector-curvature="0" />
    </g>
    <g
       style="font-style:normal;font-variant:normal;font-weight:bold;font-stretch:normal;font-size:2.64583349px;line-height:125%;font-family:'DejaVu Sans';-inkscape-font-specification:'DejaVu Sans, Bold';text-align:start;letter-spacing:0px;word-spacing:0px;writing-mode:lr-tb;text-anchor:start;fill:#fafafa;fill-opacity:1;stroke:none;stroke-width:1px;stroke-linecap:butt;stroke-linejoin:miter;stroke-opacity:1"
       id="text4189"
       transform="translate(-2.7483781e-5,0.93573863)">
      <path
         d="m 10.423088,245.51718 q -0.07768,0.10286 -0.171098,0.15115 -0.09342,0.0483 -0.216233,0.0483 -0.2151841,0 -0.3558409,-0.16899 -0.1406568,-0.17005 -0.1406568,-0.43247 0,-0.26347 0.1406568,-0.43142 0.1406568,-0.169 0.3558409,-0.169 0.122812,0 0.216233,0.0483 0.09342,0.0483 0.171098,0.1522 l 0,-0.17425 0.377884,0 0,1.05703 q 0,0.28341 -0.179495,0.43247 -0.178445,0.1501 -0.518541,0.1501 -0.110216,0 -0.2130844,-0.0168 -0.1028684,-0.0168 -0.2067865,-0.0514 l 0,-0.29286 q 0.09867,0.0567 0.1931407,0.084 0.094471,0.0283 0.1899912,0.0283 0.184744,0 0.270817,-0.0808 0.08607,-0.0808 0.08607,-0.25297 l 0,-0.0808 z m -0.247724,-0.73163 q -0.116514,0 -0.1815943,0.0861 -0.06508,0.0861 -0.06508,0.24353 0,0.16165 0.062981,0.24562 0.062981,0.0829 0.1836933,0.0829 0.117564,0 0.182644,-0.0861 0.06508,-0.0861 0.06508,-0.24247 0,-0.15745 -0.06508,-0.24353 -0.06508,-0.0861 -0.182644,-0.0861 z"
         style="font-style:normal;font-variant:normal;font-weight:bold;font-stretch:normal;font-size:2.14973974px;line-height:125%;font-family:'DejaVu Sans';-inkscape-font-specification:'DejaVu Sans, Bold';text-align:start;writing-mode:lr-tb;text-anchor:start"
         id="path4164"
         inkscape:connector-curvature="0" />
      <path
         d="m 11.691098,245.18758 q -0.117564,0 -0.177395,0.0399 -0.05878,0.0399 -0.05878,0.11757 0,0.0714 0.04723,0.11231 0.04829,0.0399 0.133309,0.0399 0.106018,0 0.178446,-0.0756 0.07243,-0.0766 0.07243,-0.19104 l 0,-0.043 -0.19524,0 z m 0.574174,-0.14171 0,0.67074 -0.378934,0 0,-0.17424 q -0.07558,0.10706 -0.170047,0.1564 -0.09447,0.0483 -0.22988,0.0483 -0.182644,0 -0.297059,-0.10601 -0.113365,-0.10707 -0.113365,-0.27712 0,-0.20678 0.141707,-0.30335 0.142756,-0.0966 0.447162,-0.0966 l 0.221482,0 0,-0.0294 q 0,-0.0892 -0.07033,-0.13016 -0.07033,-0.042 -0.219383,-0.042 -0.120713,0 -0.224631,0.0241 -0.103918,0.0241 -0.19314,0.0724 l 0,-0.28656 q 0.120713,-0.0294 0.242475,-0.0441 0.121763,-0.0157 0.243525,-0.0157 0.318053,0 0.45871,0.12596 0.141706,0.12492 0.141706,0.40728 z"
         style="font-style:normal;font-variant:normal;font-weight:bold;font-stretch:normal;font-size:2.14973974px;line-height:125%;font-family:'DejaVu Sans';-inkscape-font-specification:'DejaVu Sans, Bold';text-align:start;writing-mode:lr-tb;text-anchor:start"
         id="path4166"
         inkscape:connector-curvature="0" />
      <path
         d="m 12.616914,244.54097 0.375785,0 0,1.17564 -0.375785,0 0,-1.17564 z m 0,-0.45765 0.375785,0 0,0.3065 -0.375785,0 0,-0.3065 z"
         style="font-style:normal;font-variant:normal;font-weight:bold;font-stretch:normal;font-size:2.14973974px;line-height:125%;font-family:'DejaVu Sans';-inkscape-font-specification:'DejaVu Sans, Bold';text-align:start;writing-mode:lr-tb;text-anchor:start"
         id="path4169"
         inkscape:connector-curvature="0" />
      <path
         d="m 14.537824,245.00073 0,0.71588 -0.377884,0 0,-0.11651 0,-0.43142 q 0,-0.1522 -0.0073,-0.20993 -0.0063,-0.0577 -0.02309,-0.085 -0.02204,-0.0367 -0.05983,-0.0567 -0.03779,-0.021 -0.08607,-0.021 -0.117564,0 -0.184743,0.0913 -0.06718,0.0903 -0.06718,0.25087 l 0,0.57837 -0.375785,0 0,-1.17564 0.375785,0 0,0.17215 q 0.08502,-0.10287 0.180544,-0.15115 0.09552,-0.0493 0.210985,-0.0493 0.203638,0 0.308606,0.12492 0.106017,0.12491 0.106017,0.36318 z"
         style="font-style:normal;font-variant:normal;font-weight:bold;font-stretch:normal;font-size:2.14973974px;line-height:125%;font-family:'DejaVu Sans';-inkscape-font-specification:'DejaVu Sans, Bold';text-align:start;writing-mode:lr-tb;text-anchor:start"
         id="path4171"
         inkscape:connector-curvature="0" />
    </g>
    <g
       style="font-style:normal;font-variant:normal;font-weight:bold;font-stretch:normal;font-size:2.64583349px;line-height:125%;font-family:'DejaVu Sans';-inkscape-font-specification:'DejaVu Sans, Bold';text-align:start;letter-spacing:0px;word-spacing:0px;writing-mode:lr-tb;text-anchor:start;fill:#fafafa;fill-opacity:1;stroke:none;stroke-width:1px;stroke-linecap:butt;stroke-linejoin:miter;stroke-opacity:1"
       id="text4158"
       transform="translate(-3.3378112e-7,-7.8858927)">
      <path
         d="m 10.465075,264.18948 0,-0.26242 1.345687,0.486 0,0.24772 -1.345687,0.48601 0,-0.26242 1.012939,-0.3464 -1.012939,-0.34849 z"
         style="font-style:normal;font-variant:normal;font-weight:bold;font-stretch:normal;font-size:2.14973974px;line-height:125%;font-family:'DejaVu Sans';-inkscape-font-specification:'DejaVu Sans, Bold';text-align:start;writing-mode:lr-tb;text-anchor:start"
         id="path4178"
         inkscape:connector-curvature="0" />
      <path
         d="m 12.266322,264.18948 0,-0.26242 1.345687,0.486 0,0.24772 -1.345687,0.48601 0,-0.26242 1.012939,-0.3464 -1.012939,-0.34849 z"
         style="font-style:normal;font-variant:normal;font-weight:bold;font-stretch:normal;font-size:2.14973974px;line-height:125%;font-family:'DejaVu Sans';-inkscape-font-specification:'DejaVu Sans, Bold';text-align:start;writing-mode:lr-tb;text-anchor:start"
         id="path4180"
         inkscape:connector-curvature="0" />
    </g>
    <g
       style="font-style:normal;font-variant:normal;font-weight:bold;font-stretch:normal;font-size:2.64583349px;line-height:125%;font-family:'DejaVu Sans';-inkscape-font-specification:'DejaVu Sans, Bold';text-align:start;letter-spacing:0px;word-spacing:0px;writing-mode:lr-tb;text-anchor:start;fill:#fafafa;fill-opacity:1;stroke:none;stroke-width:1px;stroke-linecap:butt;stroke-linejoin:miter;stroke-opacity:1"
       id="text4182"
       transform="translate(-0.23932683,2.7630469)">
      <path
         d="m 10.977318,288.08808 q -0.124912,0 -0.191041,0.0903 -0.06508,0.0892 -0.06508,0.25822 0,0.16899 0.06508,0.25927 0.06613,0.0892 0.191041,0.0892 0.122812,0 0.187892,-0.0892 0.06508,-0.0903 0.06508,-0.25927 0,-0.169 -0.06508,-0.25822 -0.06508,-0.0903 -0.187892,-0.0903 z m 0,-0.26871 q 0.303357,0 0.473404,0.16375 0.171098,0.16375 0.171098,0.45346 0,0.28971 -0.171098,0.45346 -0.170047,0.16375 -0.473404,0.16375 -0.304407,0 -0.476554,-0.16375 -0.171097,-0.16375 -0.171097,-0.45346 0,-0.28971 0.171097,-0.45346 0.172147,-0.16375 0.476554,-0.16375 z"
         style="font-style:normal;font-variant:normal;font-weight:bold;font-stretch:normal;font-size:2.14973974px;line-height:125%;font-family:'DejaVu Sans';-inkscape-font-specification:'DejaVu Sans, Bold';text-align:start;writing-mode:lr-tb;text-anchor:start"
         id="path4188"
         inkscape:connector-curvature="0" />
      <path
         d="m 11.88319,288.56569 0,-0.71798 0.377884,0 0,0.11756 q 0,0.0955 -0.0011,0.24038 -10e-4,0.1438 -10e-4,0.19209 0,0.1417 0.0073,0.20469 0.0073,0.0619 0.02519,0.0903 0.02309,0.0367 0.05983,0.0567 0.03779,0.0199 0.08607,0.0199 0.117564,0 0.184744,-0.0903 0.06718,-0.0903 0.06718,-0.25087 l 0,-0.58047 0.375785,0 0,1.17564 -0.375785,0 0,-0.17005 q -0.08502,0.10287 -0.180545,0.1522 -0.09447,0.0483 -0.208885,0.0483 -0.203638,0 -0.310705,-0.12492 -0.106017,-0.12491 -0.106017,-0.36318 z"
         style="font-style:normal;font-variant:normal;font-weight:bold;font-stretch:normal;font-size:2.14973974px;line-height:125%;font-family:'DejaVu Sans';-inkscape-font-specification:'DejaVu Sans, Bold';text-align:start;writing-mode:lr-tb;text-anchor:start"
         id="path4190"
         inkscape:connector-curvature="0" />
      <path
         d="m 13.838739,287.51391 0,0.3338 0.387331,0 0,0.26871 -0.387331,0 0,0.4986 q 0,0.0819 0.03254,0.11127 0.03254,0.0283 0.12911,0.0283 l 0.193141,0 0,0.26872 -0.322251,0 q -0.222532,0 -0.315953,-0.0924 -0.09237,-0.0934 -0.09237,-0.31595 l 0,-0.4986 -0.186842,0 0,-0.26871 0.186842,0 0,-0.3338 0.375785,0 z"
         style="font-style:normal;font-variant:normal;font-weight:bold;font-stretch:normal;font-size:2.14973974px;line-height:125%;font-family:'DejaVu Sans';-inkscape-font-specification:'DejaVu Sans, Bold';text-align:start;writing-mode:lr-tb;text-anchor:start"
         id="path4192"
         inkscape:connector-curvature="0" />
    </g>
    <g
       style="font-style:normal;font-variant:normal;font-weight:bold;font-stretch:normal;font-size:2.64583349px;line-height:125%;font-family:'DejaVu Sans';-inkscape-font-specification:'DejaVu Sans, Bold';text-align:start;letter-spacing:0px;word-spacing:0px;writing-mode:lr-tb;text-anchor:start;fill:#fafafa;fill-opacity:1;stroke:none;stroke-width:1px;stroke-linecap:butt;stroke-linejoin:miter;stroke-opacity:1"
       id="text4170">
      <path
         d="m 2.8760034,290.68789 0.3757846,0 0,1.17564 -0.3757846,0 0,-1.17564 z m 0,-0.45766 0.3757846,0 0,0.3065 -0.3757846,0 0,-0.3065 z"
         style="font-style:normal;font-variant:normal;font-weight:bold;font-stretch:normal;font-size:2.14973974px;line-height:125%;font-family:'DejaVu Sans';-inkscape-font-specification:'DejaVu Sans, Bold';text-align:start;writing-mode:lr-tb;text-anchor:start"
         id="path4175" />
      <path
         d="m 4.7969134,291.14765 0,0.71588 -0.3778839,0 0,-0.11652 0,-0.43142 q 0,-0.1522 -0.00735,-0.20993 -0.0063,-0.0577 -0.023093,-0.085 -0.022043,-0.0367 -0.059832,-0.0567 -0.037788,-0.021 -0.086074,-0.021 -0.1175639,0 -0.1847433,0.0913 -0.067179,0.0903 -0.067179,0.25087 l 0,0.57838 -0.3757845,0 0,-1.17564 0.3757845,0 0,0.17214 q 0.085024,-0.10286 0.1805446,-0.15115 0.095521,-0.0493 0.2109852,-0.0493 0.2036374,0 0.3086052,0.12491 0.1060174,0.12491 0.1060174,0.36319 z"
         style="font-style:normal;font-variant:normal;font-weight:bold;font-stretch:normal;font-size:2.14973974px;line-height:125%;font-family:'DejaVu Sans';-inkscape-font-specification:'DejaVu Sans, Bold';text-align:start;writing-mode:lr-tb;text-anchor:start"
         id="path4177" />
    </g>
    <g
       style="font-style:normal;font-variant:normal;font-weight:bold;font-stretch:normal;font-size:2.64583349px;line-height:125%;font-family:'DejaVu Sans';-inkscape-font-specification:'DejaVu Sans, Bold';text-align:start;letter-spacing:0px;word-spacing:0px;writing-mode:lr-tb;text-anchor:start;fill:#fafafa;fill-opacity:1;stroke:none;stroke-width:1px;stroke-linecap:butt;stroke-linejoin:miter;stroke-opacity:1"
       id="text4179"
       transform="translate(-5.6369811e-8,-1.3229027)">
      <path
         d="m 3.6086785,257.62649 -1.0118892,0.34849 1.0118892,0.3464 0,0.26242 -1.3456867,-0.486 0,-0.24773 1.3456867,-0.486 0,0.26242 z"
         style="font-style:normal;font-variant:normal;font-weight:bold;font-stretch:normal;font-size:2.14973974px;line-height:125%;font-family:'DejaVu Sans';-inkscape-font-specification:'DejaVu Sans, Bold';text-align:start;writing-mode:lr-tb;text-anchor:start"
         id="path4184"
         inkscape:connector-curvature="0" />
      <path
         d="m 5.4099253,257.62649 -1.0118892,0.34849 1.0118892,0.3464 0,0.26242 -1.3456867,-0.486 0,-0.24773 1.3456867,-0.486 0,0.26242 z"
         style="font-style:normal;font-variant:normal;font-weight:bold;font-stretch:normal;font-size:2.14973974px;line-height:125%;font-family:'DejaVu Sans';-inkscape-font-specification:'DejaVu Sans, Bold';text-align:start;writing-mode:lr-tb;text-anchor:start"
         id="path4186"
         inkscape:connector-curvature="0" />
    </g>
    <g
       style="font-style:normal;font-variant:normal;font-weight:bold;font-stretch:normal;font-size:2.64583349px;line-height:125%;font-family:'DejaVu Sans';-inkscape-font-specification:'DejaVu Sans, Bold';text-align:start;letter-spacing:0px;word-spacing:0px;writing-mode:lr-tb;text-anchor:start;fill:#fafafa;fill-opacity:1;stroke:none;stroke-width:1px;stroke-linecap:butt;stroke-linejoin:miter;stroke-opacity:1"
       id="text4188"
       transform="translate(-1.2446758,-0.04287558)">
      <path
         d="m 12.711144,266.973 q -0.124912,0 -0.191042,0.0903 -0.06508,0.0892 -0.06508,0.25822 0,0.169 0.06508,0.25927 0.06613,0.0892 0.191042,0.0892 0.122812,0 0.187892,-0.0892 0.06508,-0.0903 0.06508,-0.25927 0,-0.16899 -0.06508,-0.25822 -0.06508,-0.0903 -0.187892,-0.0903 z m 0,-0.26872 q 0.303356,0 0.473404,0.16375 0.171098,0.16375 0.171098,0.45346 0,0.28972 -0.171098,0.45347 -0.170048,0.16374 -0.473404,0.16374 -0.304407,0 -0.476554,-0.16374 -0.171098,-0.16375 -0.171098,-0.45347 0,-0.28971 0.171098,-0.45346 0.172147,-0.16375 0.476554,-0.16375 z"
         style="font-style:normal;font-variant:normal;font-weight:bold;font-stretch:normal;font-size:2.14973974px;line-height:125%;font-family:'DejaVu Sans';-inkscape-font-specification:'DejaVu Sans, Bold';text-align:start;writing-mode:lr-tb;text-anchor:start"
         id="path4254"
         inkscape:connector-curvature="0" />
      <path
         d="m 14.502943,267.05278 q -0.04934,-0.0231 -0.09867,-0.0336 -0.04829,-0.0115 -0.09762,-0.0115 -0.144855,0 -0.223581,0.0934 -0.07768,0.0924 -0.07768,0.26557 l 0,0.54163 -0.375785,0 0,-1.17563 0.375785,0 0,0.19314 q 0.07243,-0.11547 0.165849,-0.16795 0.09447,-0.0535 0.225681,-0.0535 0.01889,0 0.04094,0.002 0.02204,10e-4 0.06403,0.006 l 10e-4,0.3401 z"
         style="font-style:normal;font-variant:normal;font-weight:bold;font-stretch:normal;font-size:2.14973974px;line-height:125%;font-family:'DejaVu Sans';-inkscape-font-specification:'DejaVu Sans, Bold';text-align:start;writing-mode:lr-tb;text-anchor:start"
         id="path4256"
         inkscape:connector-curvature="0" />
    </g>
    <g
       style="font-style:normal;font-variant:normal;font-weight:bold;font-stretch:normal;font-size:2.64583349px;line-height:125%;font-family:'DejaVu Sans';-inkscape-font-specification:'DejaVu Sans, Bold';text-align:start;letter-spacing:0px;word-spacing:0px;writing-mode:lr-tb;text-anchor:start;fill:#fafafa;fill-opacity:1;stroke:none;stroke-width:1px;stroke-linecap:butt;stroke-linejoin:miter;stroke-opacity:1"
       id="text4211"
       transform="translate(-5.636981e-8,-0.17042558)">
      <path
         d="m 2.3259725,267.50676 q -0.1175639,0 -0.1773956,0.0399 -0.058782,0.0399 -0.058782,0.11756 0,0.0714 0.047235,0.11232 0.048285,0.0399 0.133309,0.0399 0.1060175,0 0.1784452,-0.0756 0.072428,-0.0766 0.072428,-0.19104 l 0,-0.043 -0.19524,0 z m 0.5741736,-0.14171 0,0.67075 -0.3789336,0 0,-0.17425 q -0.075577,0.10707 -0.1700478,0.1564 -0.094471,0.0483 -0.2298794,0.0483 -0.1826439,0 -0.2970587,-0.10602 -0.1133652,-0.10707 -0.1133652,-0.27711 0,-0.20679 0.1417064,-0.30336 0.1427562,-0.0966 0.4471627,-0.0966 l 0.221482,0 0,-0.0294 q 0,-0.0892 -0.070328,-0.13016 -0.070328,-0.042 -0.2193826,-0.042 -0.120713,0 -0.224631,0.0241 -0.1039181,0.0242 -0.1931407,0.0724 l 0,-0.28656 q 0.1207129,-0.0294 0.2424755,-0.0441 0.1217626,-0.0157 0.2435252,-0.0157 0.3180523,0 0.4587091,0.12596 0.1417065,0.12491 0.1417065,0.40727 z"
         style="font-style:normal;font-variant:normal;font-weight:bold;font-stretch:normal;font-size:2.14973974px;line-height:125%;font-family:'DejaVu Sans';-inkscape-font-specification:'DejaVu Sans, Bold';text-align:start;writing-mode:lr-tb;text-anchor:start"
         id="path4216"
         inkscape:connector-curvature="0" />
      <path
         d="m 4.4337251,267.31992 0,0.71588 -0.377884,0 0,-0.11652 0,-0.43141 q 0,-0.15221 -0.00735,-0.20994 -0.0063,-0.0577 -0.023093,-0.085 -0.022043,-0.0367 -0.059832,-0.0567 -0.037788,-0.021 -0.086073,-0.021 -0.1175639,0 -0.1847433,0.0913 -0.067179,0.0903 -0.067179,0.25087 l 0,0.57838 -0.3757846,0 0,-1.17564 0.3757846,0 0,0.17215 q 0.085024,-0.10287 0.1805445,-0.15116 0.095521,-0.0493 0.2109852,-0.0493 0.2036375,0 0.3086052,0.12491 0.1060175,0.12491 0.1060175,0.36319 z"
         style="font-style:normal;font-variant:normal;font-weight:bold;font-stretch:normal;font-size:2.14973974px;line-height:125%;font-family:'DejaVu Sans';-inkscape-font-specification:'DejaVu Sans, Bold';text-align:start;writing-mode:lr-tb;text-anchor:start"
         id="path4218"
         inkscape:connector-curvature="0" />
      <path
         d="m 5.5841718,267.03231 0,-0.62981 0.3778839,0 0,1.6333 -0.3778839,0 0,-0.17005 q -0.077676,0.10392 -0.1710975,0.1522 -0.093421,0.0483 -0.2162336,0.0483 -0.2172832,0 -0.3568904,-0.17215 -0.1396071,-0.1732 -0.1396071,-0.44506 0,-0.27187 0.1396071,-0.44402 0.1396072,-0.17319 0.3568904,-0.17319 0.1217626,0 0.2151839,0.0493 0.094471,0.0483 0.1721472,0.15116 z m -0.247724,0.76101 q 0.120713,0 0.1836936,-0.0882 0.06403,-0.0882 0.06403,-0.25612 0,-0.16795 -0.06403,-0.25612 -0.062981,-0.0882 -0.1836936,-0.0882 -0.1196632,0 -0.1836935,0.0882 -0.062981,0.0882 -0.062981,0.25612 0,0.16795 0.062981,0.25612 0.06403,0.0882 0.1836935,0.0882 z"
         style="font-style:normal;font-variant:normal;font-weight:bold;font-stretch:normal;font-size:2.14973974px;line-height:125%;font-family:'DejaVu Sans';-inkscape-font-specification:'DejaVu Sans, Bold';text-align:start;writing-mode:lr-tb;text-anchor:start"
         id="path4220"
         inkscape:connector-curvature="0" />
    </g>
    <g
       style="font-style:normal;font-variant:normal;font-weight:bold;font-stretch:normal;font-size:2.64583349px;line-height:125%;font-family:'DejaVu Sans';-inkscape-font-specification:'DejaVu Sans, Bold';text-align:start;letter-spacing:0px;word-spacing:0px;writing-mode:lr-tb;text-anchor:start;fill:#fafafa;fill-opacity:1;stroke:none;stroke-width:1px;stroke-linecap:butt;stroke-linejoin:miter;stroke-opacity:1"
       id="text4222"
       transform="translate(0.24300014,0.49104814)">
      <path
         d="m 2.0960931,277.35621 -0.4240698,-0.57418 0.3978278,0 0.2403762,0.3485 0.2435252,-0.3485 0.3978278,0 -0.4240697,0.57208 0.4450633,0.60356 -0.3978279,0 -0.2645187,-0.37158 -0.2613697,0.37158 -0.3978279,0 0.4450634,-0.60146 z"
         style="font-style:normal;font-variant:normal;font-weight:bold;font-stretch:normal;font-size:2.14973974px;line-height:125%;font-family:'DejaVu Sans';-inkscape-font-specification:'DejaVu Sans, Bold';text-align:start;writing-mode:lr-tb;text-anchor:start"
         id="path4227"
         inkscape:connector-curvature="0" />
      <path
         d="m 3.7440869,277.02241 q -0.1249116,0 -0.1910413,0.0903 -0.06508,0.0892 -0.06508,0.25822 0,0.169 0.06508,0.25927 0.06613,0.0892 0.1910413,0.0892 0.1228123,0 0.1878923,-0.0892 0.06508,-0.0903 0.06508,-0.25927 0,-0.169 -0.06508,-0.25822 -0.06508,-0.0903 -0.1878923,-0.0903 z m 0,-0.26872 q 0.3033568,0 0.4734046,0.16375 0.1710975,0.16375 0.1710975,0.45346 0,0.28971 -0.1710975,0.45346 -0.1700478,0.16375 -0.4734046,0.16375 -0.3044065,0 -0.4765536,-0.16375 -0.1710975,-0.16375 -0.1710975,-0.45346 0,-0.28971 0.1710975,-0.45346 0.1721471,-0.16375 0.4765536,-0.16375 z"
         style="font-style:normal;font-variant:normal;font-weight:bold;font-stretch:normal;font-size:2.14973974px;line-height:125%;font-family:'DejaVu Sans';-inkscape-font-specification:'DejaVu Sans, Bold';text-align:start;writing-mode:lr-tb;text-anchor:start"
         id="path4229"
         inkscape:connector-curvature="0" />
      <path
         d="m 5.5358867,277.10218 q -0.049335,-0.0231 -0.09867,-0.0336 -0.048285,-0.0115 -0.09762,-0.0115 -0.1448555,0 -0.2235814,0.0934 -0.077676,0.0924 -0.077676,0.26557 l 0,0.54163 -0.3757846,0 0,-1.17564 0.3757846,0 0,0.19314 q 0.072428,-0.11546 0.1658491,-0.16794 0.094471,-0.0535 0.2256806,-0.0535 0.018894,0 0.040938,0.002 0.022043,10e-4 0.06403,0.006 l 0.00105,0.34009 z"
         style="font-style:normal;font-variant:normal;font-weight:bold;font-stretch:normal;font-size:2.14973974px;line-height:125%;font-family:'DejaVu Sans';-inkscape-font-specification:'DejaVu Sans, Bold';text-align:start;writing-mode:lr-tb;text-anchor:start"
         id="path4231"
         inkscape:connector-curvature="0" />
    </g>
    <g
       style="font-style:normal;font-variant:normal;font-weight:bold;font-stretch:normal;font-size:2.64583349px;line-height:125%;font-family:'DejaVu Sans';-inkscape-font-specification:'DejaVu Sans, Bold';text-align:start;letter-spacing:0px;word-spacing:0px;writing-mode:lr-tb;text-anchor:start;fill:#fafafa;fill-opacity:1;stroke:none;stroke-width:1px;stroke-linecap:butt;stroke-linejoin:miter;stroke-opacity:1"
       id="text4242"
       transform="translate(-0.77259033,1.3229281)">
      <path
         d="m 12.088926,276.40991 0,0.71588 -0.377884,0 0,-0.11651 0,-0.43142 q 0,-0.1522 -0.0073,-0.20993 -0.0063,-0.0577 -0.02309,-0.085 -0.02204,-0.0367 -0.05983,-0.0567 -0.03779,-0.021 -0.08607,-0.021 -0.117564,0 -0.184743,0.0913 -0.06718,0.0903 -0.06718,0.25087 l 0,0.57837 -0.375784,0 0,-1.17564 0.375784,0 0,0.17215 q 0.08502,-0.10287 0.180545,-0.15115 0.09552,-0.0493 0.210985,-0.0493 0.203638,0 0.308605,0.12491 0.106018,0.12492 0.106018,0.36319 z"
         style="font-style:normal;font-variant:normal;font-weight:bold;font-stretch:normal;font-size:2.14973974px;line-height:125%;font-family:'DejaVu Sans';-inkscape-font-specification:'DejaVu Sans, Bold';text-align:start;writing-mode:lr-tb;text-anchor:start"
         id="path4247"
         inkscape:connector-curvature="0" />
      <path
         d="m 12.998996,276.19053 q -0.124911,0 -0.191041,0.0903 -0.06508,0.0892 -0.06508,0.25822 0,0.169 0.06508,0.25927 0.06613,0.0892 0.191041,0.0892 0.122813,0 0.187893,-0.0892 0.06508,-0.0903 0.06508,-0.25927 0,-0.16899 -0.06508,-0.25822 -0.06508,-0.0903 -0.187893,-0.0903 z m 0,-0.26872 q 0.303357,0 0.473405,0.16375 0.171097,0.16375 0.171097,0.45346 0,0.28971 -0.171097,0.45346 -0.170048,0.16375 -0.473405,0.16375 -0.304406,0 -0.476553,-0.16375 -0.171098,-0.16375 -0.171098,-0.45346 0,-0.28971 0.171098,-0.45346 0.172147,-0.16375 0.476553,-0.16375 z"
         style="font-style:normal;font-variant:normal;font-weight:bold;font-stretch:normal;font-size:2.14973974px;line-height:125%;font-family:'DejaVu Sans';-inkscape-font-specification:'DejaVu Sans, Bold';text-align:start;writing-mode:lr-tb;text-anchor:start"
         id="path4249"
         inkscape:connector-curvature="0" />
      <path
         d="m 14.327888,275.61636 0,0.33379 0.387331,0 0,0.26872 -0.387331,0 0,0.4986 q 0,0.0819 0.03254,0.11126 0.03254,0.0283 0.12911,0.0283 l 0.193141,0 0,0.26871 -0.322251,0 q -0.222532,0 -0.315953,-0.0924 -0.09237,-0.0934 -0.09237,-0.31595 l 0,-0.4986 -0.186843,0 0,-0.26872 0.186843,0 0,-0.33379 0.375784,0 z"
         style="font-style:normal;font-variant:normal;font-weight:bold;font-stretch:normal;font-size:2.14973974px;line-height:125%;font-family:'DejaVu Sans';-inkscape-font-specification:'DejaVu Sans, Bold';text-align:start;writing-mode:lr-tb;text-anchor:start"
         id="path4251"
         inkscape:connector-curvature="0" />
    </g>
    <g
       style="font-style:normal;font-variant:normal;font-weight:normal;font-stretch:normal;font-size:2.9765625px;line-height:125%;font-family:'DejaVu Sans';-inkscape-font-specification:'DejaVu Sans';text-align:start;letter-spacing:0px;word-spacing:0px;writing-mode:lr-tb;text-anchor:start;fill:#fafafa;fill-opacity:1;stroke:none;stroke-width:1px;stroke-linecap:butt;stroke-linejoin:miter;stroke-opacity:1"
       id="text4191"
       transform="translate(-2.2007547e-7,-1.9843729)">
      <path
         d="m 4.1150591,204.69304 q 0,-0.29504 -0.1220855,-0.46218 -0.1206322,-0.16859 -0.3328286,-0.16859 -0.2121963,0 -0.3342819,0.16859 -0.1206321,0.16714 -0.1206321,0.46218 0,0.29504 0.1206321,0.46364 0.1220856,0.16714 0.3342819,0.16714 0.2121964,0 0.3328286,-0.16714 0.1220855,-0.1686 0.1220855,-0.46364 z M 3.205231,204.12476 q 0.084297,-0.14534 0.2121963,-0.2151 0.1293526,-0.0712 0.3081207,-0.0712 0.2964936,0 0.4810753,0.23545 0.1860352,0.23546 0.1860352,0.61915 0,0.3837 -0.1860352,0.61915 -0.1845817,0.23545 -0.4810753,0.23545 -0.1787681,0 -0.3081207,-0.0698 -0.1278992,-0.0712 -0.2121963,-0.21656 l 0,0.24417 -0.268879,0 0,-2.26149 0.268879,0 0,0.88076 z"
         id="path4197"
         inkscape:connector-curvature="0" />
      <path
         d="m 6.4724734,203.50271 0,0.30957 q -0.1482468,-0.13807 -0.3168411,-0.20638 -0.167141,-0.0683 -0.356083,-0.0683 -0.3720703,0 -0.5697326,0.22818 -0.1976624,0.22673 -0.1976624,0.65694 0,0.42875 0.1976624,0.65694 0.1976623,0.22673 0.5697326,0.22673 0.188942,0 0.356083,-0.0683 0.1685943,-0.0683 0.3168411,-0.20639 l 0,0.30667 q -0.1540604,0.10465 -0.3270149,0.15697 -0.1715012,0.0523 -0.36335,0.0523 -0.4927024,0 -0.7761154,-0.30085 -0.2834129,-0.30231 -0.2834129,-0.82408 0,-0.52322 0.2834129,-0.82408 0.283413,-0.3023 0.7761154,-0.3023 0.1947556,0 0.3662568,0.0523 0.1729545,0.0509 0.3241081,0.15406 z"
         id="path4199"
         inkscape:connector-curvature="0" />
      <path
         d="m 7.8604701,204.12767 q -0.045055,-0.0262 -0.098831,-0.0378 -0.052322,-0.0131 -0.116272,-0.0131 -0.2267303,0 -0.3488159,0.14825 -0.1206322,0.14679 -0.1206322,0.42294 l 0,0.8575 -0.2688789,0 0,-1.6278 0.2688789,0 0,0.25289 q 0.084297,-0.14825 0.2194634,-0.21947 0.1351661,-0.0727 0.3284683,-0.0727 0.027615,0 0.061043,0.004 0.033428,0.003 0.074123,0.0102 l 0.00145,0.27469 z"
         id="path4201"
         inkscape:connector-curvature="0" />
      <path
         d="m 8.1162684,204.86309 0,-0.9854 0.2674255,0 0,0.97523 q 0,0.23109 0.090111,0.34736 0.090111,0.11482 0.2703323,0.11482 0.2165566,0 0.341549,-0.13808 0.1264457,-0.13807 0.1264457,-0.37643 l 0,-0.9229 0.2674256,0 0,1.6278 -0.2674256,0 0,-0.24998 q -0.097378,0.14825 -0.2267303,0.22092 -0.1278992,0.0712 -0.2979469,0.0712 -0.2805062,0 -0.4258461,-0.17441 -0.14534,-0.1744 -0.14534,-0.51014 z m 0.672924,-1.02465 0,0 z"
         id="path4203"
         inkscape:connector-curvature="0" />
      <path
         d="m 11.07103,203.92565 0,0.25289 q -0.113365,-0.0581 -0.235451,-0.0872 -0.122085,-0.0291 -0.252891,-0.0291 -0.199116,0 -0.299401,0.061 -0.09883,0.061 -0.09883,0.18313 0,0.093 0.07122,0.14679 0.07122,0.0523 0.286319,0.10029 l 0.09156,0.0203 q 0.284866,0.061 0.404045,0.17296 0.120632,0.11046 0.120632,0.30957 0,0.22673 -0.180222,0.35899 -0.178768,0.13226 -0.492702,0.13226 -0.130806,0 -0.273239,-0.0262 -0.14098,-0.0247 -0.2979472,-0.0756 l 0,-0.27614 q 0.1482472,0.077 0.2921332,0.11627 0.143887,0.0378 0.284866,0.0378 0.188942,0 0.29068,-0.064 0.101738,-0.0654 0.101738,-0.18313 0,-0.109 -0.07412,-0.16714 -0.07267,-0.0581 -0.321201,-0.11191 l -0.09302,-0.0218 q -0.248531,-0.0523 -0.35899,-0.15988 -0.110458,-0.109 -0.110458,-0.29794 0,-0.22964 0.162781,-0.35463 0.16278,-0.125 0.462181,-0.125 0.148247,0 0.279053,0.0218 0.130806,0.0218 0.241264,0.0654 z"
         id="path4205"
         inkscape:connector-curvature="0" />
      <path
         d="m 12.938648,204.52299 0,0.9825 -0.267425,0 0,-0.97377 q 0,-0.2311 -0.09011,-0.34591 -0.09011,-0.11482 -0.270332,-0.11482 -0.216557,0 -0.341549,0.13807 -0.124992,0.13807 -0.124992,0.37643 l 0,0.92 -0.268879,0 0,-2.26149 0.268879,0 0,0.88658 q 0.09592,-0.1468 0.225276,-0.21947 0.130806,-0.0727 0.300854,-0.0727 0.280506,0 0.424393,0.17441 0.143886,0.17296 0.143886,0.51014 z"
         id="path4207"
         inkscape:connector-curvature="0" />
    </g>
  </g>
</svg>
