<?xml version="1.0" encoding="UTF-8" standalone="no"?>
<!-- Created with Inkscape (http://www.inkscape.org/) -->

<svg
   xmlns:dc="http://purl.org/dc/elements/1.1/"
   xmlns:cc="http://creativecommons.org/ns#"
   xmlns:rdf="http://www.w3.org/1999/02/22-rdf-syntax-ns#"
   xmlns:svg="http://www.w3.org/2000/svg"
   xmlns="http://www.w3.org/2000/svg"
   xmlns:sodipodi="http://sodipodi.sourceforge.net/DTD/sodipodi-0.dtd"
   xmlns:inkscape="http://www.inkscape.org/namespaces/inkscape"
   width="60"
   height="380"
   viewBox="0 0 15.875001 100.54166"
   version="1.1"
   id="svg8"
   inkscape:version="0.92.3 (2405546, 2018-03-11)"
   sodipodi:docname="Clip.svg">
  <defs
     id="defs2" />
  <sodipodi:namedview
     id="base"
     pagecolor="#000000"
     bordercolor="#666666"
     borderopacity="1.0"
     inkscape:pageopacity="0"
     inkscape:pageshadow="2"
     inkscape:zoom="10.571433"
     inkscape:cx="-8.3502261"
     inkscape:cy="78.06589"
     inkscape:document-units="mm"
     inkscape:current-layer="layer1"
     showgrid="true"
     units="px"
     inkscape:snap-bbox="true"
     inkscape:snap-page="false"
     inkscape:bbox-nodes="false"
     inkscape:snap-bbox-edge-midpoints="true"
     inkscape:window-width="1920"
     inkscape:window-height="1078"
     inkscape:window-x="0"
     inkscape:window-y="0"
     inkscape:window-maximized="0"
     height="128.5mm"
     inkscape:snap-object-midpoints="false"
     inkscape:snap-center="false"
     inkscape:bbox-paths="false"
     inkscape:snap-grids="true"
     inkscape:snap-bbox-midpoints="true"
     inkscape:snap-nodes="false"
     inkscape:snap-text-baseline="true"
     inkscape:snap-others="true">
    <inkscape:grid
       type="xygrid"
       id="grid4151"
       units="px"
       spacingx="3.96875"
       spacingy="0.66145833" />
  </sodipodi:namedview>
  <metadata
     id="metadata5">
    <rdf:RDF>
      <cc:Work
         rdf:about="">
        <dc:format>image/svg+xml</dc:format>
        <dc:type
           rdf:resource="http://purl.org/dc/dcmitype/StillImage" />
        <dc:title></dc:title>
      </cc:Work>
    </rdf:RDF>
  </metadata>
  <g
     inkscape:label="Layer 1"
     inkscape:groupmode="layer"
     id="layer1"
     transform="translate(0,-196.45833)">
    <path
       style="opacity:1;fill:#121311;fill-opacity:1;fill-rule:evenodd;stroke:none;stroke-width:0.48607069;stroke-linecap:butt;stroke-linejoin:round;stroke-miterlimit:4;stroke-dasharray:none;stroke-dashoffset:0;stroke-opacity:1;paint-order:normal"
       d="m 0,196.45832 15.875001,0 0,100.54167 -15.875001,0 z"
       id="rect817"
       inkscape:connector-curvature="0" />
    <g
       style="font-style:normal;font-variant:normal;font-weight:bold;font-stretch:normal;font-size:2.14973974px;line-height:125%;font-family:'DejaVu Sans';-inkscape-font-specification:'DejaVu Sans, Bold';text-align:start;letter-spacing:0px;word-spacing:0px;writing-mode:lr-tb;text-anchor:start;fill:#fafafa;fill-opacity:1;stroke:none;stroke-width:1px;stroke-linecap:butt;stroke-linejoin:miter;stroke-opacity:1"
       id="text4139"
       transform="translate(0.76324432,40.495432)">
      <path
         d="m 9.9747468,250.35571 q -0.1249117,0 -0.1910414,0.0903 -0.06508,0.0892 -0.06508,0.25822 0,0.169 0.06508,0.25927 0.06613,0.0892 0.1910414,0.0892 0.1228122,0 0.1878922,-0.0892 0.06508,-0.0903 0.06508,-0.25927 0,-0.169 -0.06508,-0.25822 -0.06508,-0.0903 -0.1878922,-0.0903 z m 0,-0.26872 q 0.3033572,0 0.4734042,0.16375 0.171098,0.16375 0.171098,0.45346 0,0.28971 -0.171098,0.45346 -0.170047,0.16375 -0.4734042,0.16375 -0.3044065,0 -0.4765537,-0.16375 -0.1710974,-0.16375 -0.1710974,-0.45346 0,-0.28971 0.1710974,-0.45346 0.1721472,-0.16375 0.4765537,-0.16375 z"
         style="font-style:normal;font-variant:normal;font-weight:bold;font-stretch:normal;font-family:'DejaVu Sans';-inkscape-font-specification:'DejaVu Sans Bold'"
         id="path4208"
         inkscape:connector-curvature="0" />
      <path
         d="m 10.880619,250.83331 0,-0.71798 0.377883,0 0,0.11756 q 0,0.0955 -10e-4,0.24038 -0.001,0.14381 -0.001,0.19209 0,0.14171 0.0073,0.20469 0.0073,0.0619 0.02519,0.0903 0.02309,0.0367 0.05983,0.0567 0.03779,0.0199 0.08607,0.0199 0.117564,0 0.184744,-0.0903 0.06718,-0.0903 0.06718,-0.25088 l 0,-0.58047 0.375784,0 0,1.17564 -0.375784,0 0,-0.17005 q -0.08502,0.10287 -0.180545,0.15221 -0.09447,0.0483 -0.208885,0.0483 -0.203638,0 -0.310705,-0.12491 -0.106017,-0.12491 -0.106017,-0.36319 z"
         style="font-style:normal;font-variant:normal;font-weight:bold;font-stretch:normal;font-family:'DejaVu Sans';-inkscape-font-specification:'DejaVu Sans Bold'"
         id="path4210"
         inkscape:connector-curvature="0" />
      <path
         d="m 12.836168,249.78153 0,0.3338 0.387331,0 0,0.26872 -0.387331,0 0,0.4986 q 0,0.0819 0.03254,0.11126 0.03254,0.0283 0.12911,0.0283 l 0.193141,0 0,0.26872 -0.322251,0 q -0.222532,0 -0.315953,-0.0924 -0.09237,-0.0934 -0.09237,-0.31595 l 0,-0.4986 -0.186842,0 0,-0.26872 0.186842,0 0,-0.3338 0.375785,0 z"
         style="font-style:normal;font-variant:normal;font-weight:bold;font-stretch:normal;font-family:'DejaVu Sans';-inkscape-font-specification:'DejaVu Sans Bold'"
         id="path4212"
         inkscape:connector-curvature="0" />
    </g>
    <g
       style="font-style:normal;font-variant:normal;font-weight:bold;font-stretch:normal;font-size:2.14973974px;line-height:125%;font-family:'DejaVu Sans';-inkscape-font-specification:'DejaVu Sans, Bold';text-align:start;letter-spacing:0px;word-spacing:0px;writing-mode:lr-tb;text-anchor:start;fill:#fafafa;fill-opacity:1;stroke:none;stroke-width:1px;stroke-linecap:butt;stroke-linejoin:miter;stroke-opacity:1"
       id="text4152"
       transform="translate(1.0684587,9.9218923)">
      <path
         d="m 0.37578458,247.15217 0,0.61721 -0.37578458,0 0,-1.6228 0.37578458,0 0,0.17215 q 0.0776761,-0.10287 0.17214713,-0.15116 0.094471,-0.0493 0.21728326,-0.0493 0.21728327,0 0.35689043,0.1732 0.1396071,0.17214 0.1396071,0.44401 0,0.27187 -0.1396071,0.44506 -0.13960716,0.17215 -0.35689043,0.17215 -0.12281228,0 -0.21728326,-0.0483 -0.094471,-0.0493 -0.17214713,-0.15221 z m 0.24982327,-0.76101 q -0.12071293,0 -0.18579294,0.0892 -0.0640303,0.0882 -0.0640303,0.25507 0,0.1669 0.0640303,0.25612 0.06508,0.0882 0.18579294,0.0882 0.12071292,0 0.18369358,-0.0882 0.0640303,-0.0882 0.0640303,-0.25612 0,-0.16795 -0.0640303,-0.25612 -0.0629807,-0.0882 -0.18369358,-0.0882 z"
         style="font-style:normal;font-variant:normal;font-weight:bold;font-stretch:normal;font-family:'DejaVu Sans';-inkscape-font-specification:'DejaVu Sans Bold'"
         id="path4157"
         inkscape:connector-curvature="0" />
      <path
         d="m 1.5283306,246.86456 0,-0.71798 0.3778839,0 0,0.11756 q 0,0.0955 -0.00105,0.24038 -0.00105,0.14381 -0.00105,0.19209 0,0.14171 0.00735,0.20469 0.00735,0.0619 0.025192,0.0903 0.023093,0.0367 0.059832,0.0567 0.037788,0.0199 0.086073,0.0199 0.1175639,0 0.1847433,-0.0903 0.067179,-0.0903 0.067179,-0.25088 l 0,-0.58047 0.3757845,0 0,1.17564 -0.3757845,0 0,-0.17005 q -0.085024,0.10287 -0.1805446,0.15221 -0.094471,0.0483 -0.2088858,0.0483 -0.2036375,0 -0.3107046,-0.12491 -0.1060174,-0.12491 -0.1060174,-0.36319 z"
         style="font-style:normal;font-variant:normal;font-weight:bold;font-stretch:normal;font-family:'DejaVu Sans';-inkscape-font-specification:'DejaVu Sans Bold'"
         id="path4159"
         inkscape:connector-curvature="0" />
      <path
         d="m 3.9919239,246.18332 0,0.28551 q -0.1207129,-0.0504 -0.2330284,-0.0756 -0.1123155,-0.0252 -0.2120349,-0.0252 -0.1070671,0 -0.159551,0.0273 -0.051434,0.0263 -0.051434,0.0819 0,0.0451 0.038838,0.0693 0.039888,0.0241 0.1417065,0.0357 l 0.06613,0.009 q 0.2886613,0.0367 0.3883807,0.12072 0.099719,0.084 0.099719,0.26347 0,0.18789 -0.1385575,0.28236 -0.1385574,0.0945 -0.413573,0.0945 -0.1165142,0 -0.2414258,-0.0189 -0.123862,-0.0178 -0.2550717,-0.0546 l 0,-0.28551 q 0.1123155,0.0546 0.2298794,0.0819 0.1186136,0.0273 0.2403762,0.0273 0.1102162,0 0.1658491,-0.0304 0.055633,-0.0304 0.055633,-0.0903 0,-0.0504 -0.038838,-0.0745 -0.037788,-0.0252 -0.1522032,-0.0388 l -0.06613,-0.008 q -0.250873,-0.0315 -0.351642,-0.11651 -0.1007691,-0.085 -0.1007691,-0.25822 0,-0.18685 0.1280607,-0.27712 0.1280607,-0.0903 0.3925794,-0.0903 0.1039181,0 0.218333,0.0157 0.1144148,0.0157 0.2487735,0.0493 z"
         style="font-style:normal;font-variant:normal;font-weight:bold;font-stretch:normal;font-family:'DejaVu Sans';-inkscape-font-specification:'DejaVu Sans Bold'"
         id="path4161"
         inkscape:connector-curvature="0" />
      <path
         d="m 5.5359995,246.60634 0,0.71588 -0.3778839,0 0,-0.11651 0,-0.42932 q 0,-0.15431 -0.00735,-0.21204 -0.0063,-0.0577 -0.023093,-0.085 -0.022043,-0.0367 -0.059832,-0.0567 -0.037788,-0.021 -0.086073,-0.021 -0.1175639,0 -0.1847433,0.0913 -0.067179,0.0903 -0.067179,0.25088 l 0,0.57837 -0.3757845,0 0,-1.6333 0.3757845,0 0,0.62981 q 0.085024,-0.10287 0.1805446,-0.15116 0.095521,-0.0493 0.2109852,-0.0493 0.2036374,0 0.3086052,0.12491 0.1060174,0.12491 0.1060174,0.36319 z"
         style="font-style:normal;font-variant:normal;font-weight:bold;font-stretch:normal;font-family:'DejaVu Sans';-inkscape-font-specification:'DejaVu Sans Bold'"
         id="path4163"
         inkscape:connector-curvature="0" />
    </g>
    <g
       style="font-style:normal;font-variant:normal;font-weight:bold;font-stretch:normal;font-size:2.14973974px;line-height:125%;font-family:'DejaVu Sans';-inkscape-font-specification:'DejaVu Sans, Bold';text-align:start;letter-spacing:0px;word-spacing:0px;writing-mode:lr-tb;text-anchor:start;fill:#fafafa;fill-opacity:1;stroke:none;stroke-width:1px;stroke-linecap:butt;stroke-linejoin:miter;stroke-opacity:1"
       id="text4165"
       transform="translate(4.3630189e-8,1.3229149)">
      <path
         d="m 2.1181363,234.58447 0,0.61721 -0.3757846,0 0,-1.6228 0.3757846,0 0,0.17214 q 0.077676,-0.10286 0.1721471,-0.15115 0.094471,-0.0493 0.2172833,-0.0493 0.2172832,0 0.3568904,0.17319 0.1396071,0.17215 0.1396071,0.44402 0,0.27186 -0.1396071,0.44506 -0.1396072,0.17215 -0.3568904,0.17215 -0.1228123,0 -0.2172833,-0.0483 -0.094471,-0.0493 -0.1721471,-0.1522 z m 0.2498233,-0.76102 q -0.120713,0 -0.185793,0.0892 -0.06403,0.0882 -0.06403,0.25507 0,0.1669 0.06403,0.25612 0.06508,0.0882 0.185793,0.0882 0.1207129,0 0.1836935,-0.0882 0.06403,-0.0882 0.06403,-0.25612 0,-0.16795 -0.06403,-0.25612 -0.062981,-0.0882 -0.1836935,-0.0882 z"
         style="font-style:normal;font-variant:normal;font-weight:bold;font-stretch:normal;font-family:'DejaVu Sans';-inkscape-font-specification:'DejaVu Sans Bold'"
         id="path4170"
         inkscape:connector-curvature="0" />
      <path
         d="m 3.2706823,234.29686 0,-0.71798 0.3778839,0 0,0.11756 q 0,0.0955 -0.00105,0.24038 -0.00105,0.1438 -0.00105,0.19209 0,0.14171 0.00735,0.20469 0.00735,0.0619 0.025192,0.0903 0.023093,0.0367 0.059832,0.0567 0.037788,0.0199 0.086073,0.0199 0.1175639,0 0.1847433,-0.0903 0.067179,-0.0903 0.067179,-0.25087 l 0,-0.58047 0.3757846,0 0,1.17564 -0.3757846,0 0,-0.17005 q -0.085024,0.10287 -0.1805446,0.1522 -0.094471,0.0483 -0.2088858,0.0483 -0.2036375,0 -0.3107046,-0.12491 -0.1060174,-0.12492 -0.1060174,-0.36319 z"
         style="font-style:normal;font-variant:normal;font-weight:bold;font-stretch:normal;font-family:'DejaVu Sans';-inkscape-font-specification:'DejaVu Sans Bold'"
         id="path4172"
         inkscape:connector-curvature="0" />
      <path
         d="m 4.8158078,233.12122 0.3757845,0 0,1.6333 -0.3757845,0 0,-1.6333 z"
         style="font-style:normal;font-variant:normal;font-weight:bold;font-stretch:normal;font-family:'DejaVu Sans';-inkscape-font-specification:'DejaVu Sans Bold'"
         id="path4174"
         inkscape:connector-curvature="0" />
      <path
         d="m 5.5547807,233.12122 0.3757845,0 0,1.6333 -0.3757845,0 0,-1.6333 z"
         style="font-style:normal;font-variant:normal;font-weight:bold;font-stretch:normal;font-family:'DejaVu Sans';-inkscape-font-specification:'DejaVu Sans Bold'"
         id="path4176"
         inkscape:connector-curvature="0" />
    </g>
    <g
       style="font-style:normal;font-variant:normal;font-weight:bold;font-stretch:normal;font-size:2.14973974px;line-height:125%;font-family:'DejaVu Sans';-inkscape-font-specification:'DejaVu Sans, Bold';text-align:start;letter-spacing:0px;word-spacing:0px;writing-mode:lr-tb;text-anchor:start;fill:#fafafa;fill-opacity:1;stroke:none;stroke-width:1px;stroke-linecap:butt;stroke-linejoin:miter;stroke-opacity:1"
       id="text4193"
       transform="translate(1.1336518,0.88502692)">
      <path
         d="m 1.7423517,289.80285 0.3757846,0 0,1.17564 -0.3757846,0 0,-1.17564 z m 0,-0.45766 0.3757846,0 0,0.3065 -0.3757846,0 0,-0.3065 z"
         style="font-style:normal;font-variant:normal;font-weight:bold;font-stretch:normal;font-family:'DejaVu Sans';-inkscape-font-specification:'DejaVu Sans Bold'"
         id="path4198"
         inkscape:connector-curvature="0" />
      <path
         d="m 3.6632617,290.2626 0,0.71589 -0.3778839,0 0,-0.11652 0,-0.43142 q 0,-0.1522 -0.00735,-0.20993 -0.0063,-0.0577 -0.023093,-0.085 -0.022043,-0.0367 -0.059832,-0.0567 -0.037788,-0.021 -0.086074,-0.021 -0.1175639,0 -0.1847432,0.0913 -0.067179,0.0903 -0.067179,0.25087 l 0,0.57838 -0.3757846,0 0,-1.17564 0.3757846,0 0,0.17214 q 0.085024,-0.10287 0.1805446,-0.15115 0.095521,-0.0493 0.2109852,-0.0493 0.2036374,0 0.3086052,0.12492 0.1060174,0.12491 0.1060174,0.36318 z"
         style="font-style:normal;font-variant:normal;font-weight:bold;font-stretch:normal;font-family:'DejaVu Sans';-inkscape-font-specification:'DejaVu Sans Bold'"
         id="path4200"
         inkscape:connector-curvature="0" />
    </g>
    <g
       style="font-style:normal;font-variant:normal;font-weight:bold;font-stretch:normal;font-size:2.14973974px;line-height:125%;font-family:'DejaVu Sans';-inkscape-font-specification:'DejaVu Sans, Bold';text-align:start;letter-spacing:0px;word-spacing:0px;writing-mode:lr-tb;text-anchor:start;fill:#fafafa;fill-opacity:1;stroke:none;stroke-width:1px;stroke-linecap:butt;stroke-linejoin:miter;stroke-opacity:1"
       id="text4161"
       transform="translate(-1.9229603,-3.9771623)">
      <path
         d="m 10.744289,224.6332 q -0.07768,0.10287 -0.171097,0.15116 -0.09342,0.0483 -0.216234,0.0483 -0.215184,0 -0.355841,-0.169 -0.1406564,-0.17004 -0.1406564,-0.43246 0,-0.26347 0.1406564,-0.43142 0.140657,-0.169 0.355841,-0.169 0.122812,0 0.216234,0.0483 0.09342,0.0483 0.171097,0.1522 l 0,-0.17425 0.377884,0 0,1.05703 q 0,0.28341 -0.179495,0.43247 -0.178445,0.1501 -0.518541,0.1501 -0.110216,0 -0.213084,-0.0168 -0.102868,-0.0168 -0.206787,-0.0514 l 0,-0.29286 q 0.09867,0.0567 0.193141,0.084 0.09447,0.0284 0.189992,0.0284 0.184743,0 0.270817,-0.0808 0.08607,-0.0808 0.08607,-0.25297 l 0,-0.0808 z m -0.247724,-0.73162 q -0.116514,0 -0.181594,0.0861 -0.06508,0.0861 -0.06508,0.24353 0,0.16165 0.06298,0.24562 0.06298,0.0829 0.183693,0.0829 0.117564,0 0.182644,-0.0861 0.06508,-0.0861 0.06508,-0.24247 0,-0.15746 -0.06508,-0.24353 -0.06508,-0.0861 -0.182644,-0.0861 z"
         style="font-style:normal;font-variant:normal;font-weight:bold;font-stretch:normal;font-family:'DejaVu Sans';-inkscape-font-specification:'DejaVu Sans Bold'"
         id="path4166"
         inkscape:connector-curvature="0" />
      <path
         d="m 12.0123,224.3036 q -0.117564,0 -0.177396,0.0399 -0.05878,0.0399 -0.05878,0.11757 0,0.0714 0.04724,0.11231 0.04828,0.0399 0.133309,0.0399 0.106017,0 0.178445,-0.0756 0.07243,-0.0766 0.07243,-0.19104 l 0,-0.043 -0.19524,0 z m 0.574173,-0.1417 0,0.67074 -0.378933,0 0,-0.17424 q -0.07558,0.10706 -0.170048,0.1564 -0.09447,0.0483 -0.229879,0.0483 -0.182644,0 -0.297059,-0.10602 -0.113365,-0.10706 -0.113365,-0.27711 0,-0.20679 0.141706,-0.30336 0.142756,-0.0966 0.447163,-0.0966 l 0.221482,0 0,-0.0294 q 0,-0.0892 -0.07033,-0.13016 -0.07033,-0.042 -0.219382,-0.042 -0.120713,0 -0.224631,0.0241 -0.103918,0.0241 -0.193141,0.0724 l 0,-0.28656 q 0.120713,-0.0294 0.242476,-0.0441 0.121762,-0.0157 0.243525,-0.0157 0.318052,0 0.458709,0.12596 0.141706,0.12491 0.141706,0.40728 z"
         style="font-style:normal;font-variant:normal;font-weight:bold;font-stretch:normal;font-family:'DejaVu Sans';-inkscape-font-specification:'DejaVu Sans Bold'"
         id="path4168"
         inkscape:connector-curvature="0" />
      <path
         d="m 12.938115,223.657 0.375785,0 0,1.17564 -0.375785,0 0,-1.17564 z m 0,-0.45766 0.375785,0 0,0.30651 -0.375785,0 0,-0.30651 z"
         style="font-style:normal;font-variant:normal;font-weight:bold;font-stretch:normal;font-family:'DejaVu Sans';-inkscape-font-specification:'DejaVu Sans Bold'"
         id="path4171"
         inkscape:connector-curvature="0" />
      <path
         d="m 14.859025,224.11676 0,0.71588 -0.377884,0 0,-0.11651 0,-0.43142 q 0,-0.1522 -0.0073,-0.20994 -0.0063,-0.0577 -0.02309,-0.085 -0.02204,-0.0367 -0.05983,-0.0567 -0.03779,-0.021 -0.08607,-0.021 -0.117564,0 -0.184744,0.0913 -0.06718,0.0903 -0.06718,0.25087 l 0,0.57837 -0.375785,0 0,-1.17564 0.375785,0 0,0.17215 q 0.08502,-0.10287 0.180545,-0.15115 0.09552,-0.0493 0.210985,-0.0493 0.203637,0 0.308605,0.12491 0.106017,0.12491 0.106017,0.36319 z"
         style="font-style:normal;font-variant:normal;font-weight:bold;font-stretch:normal;font-family:'DejaVu Sans';-inkscape-font-specification:'DejaVu Sans Bold'"
         id="path4173"
         inkscape:connector-curvature="0" />
    </g>
    <g
       style="font-style:normal;font-variant:normal;font-weight:bold;font-stretch:normal;font-size:2.14973974px;line-height:125%;font-family:'DejaVu Sans';-inkscape-font-specification:'DejaVu Sans, Bold';text-align:start;letter-spacing:0px;word-spacing:0px;writing-mode:lr-tb;text-anchor:start;fill:#fafafa;fill-opacity:1;stroke:none;stroke-width:1px;stroke-linecap:butt;stroke-linejoin:miter;stroke-opacity:1"
       id="text4175"
       transform="translate(2.1370945,-5.080428e-6)">
      <path
         d="m 8.8874584,234.93854 0,0.3065 q -0.076626,-0.0525 -0.1543026,-0.0777 -0.076626,-0.0252 -0.159551,-0.0252 -0.1574516,0 -0.2456246,0.0924 -0.087123,0.0913 -0.087123,0.25612 0,0.1648 0.087123,0.25717 0.088173,0.0913 0.2456246,0.0913 0.088173,0 0.1668987,-0.0262 0.079775,-0.0262 0.1469549,-0.0777 l 0,0.30756 q -0.088173,0.0325 -0.1794949,0.0483 -0.090272,0.0168 -0.1815942,0.0168 -0.3180523,0 -0.4975472,-0.1627 -0.1794948,-0.16375 -0.1794948,-0.45451 0,-0.29076 0.1794948,-0.45346 0.1794949,-0.16375 0.4975472,-0.16375 0.092372,0 0.1815942,0.0168 0.090272,0.0157 0.1794949,0.0483 z"
         style="font-style:normal;font-variant:normal;font-weight:bold;font-stretch:normal;font-family:'DejaVu Sans';-inkscape-font-specification:'DejaVu Sans Bold'"
         id="path4180"
         inkscape:connector-curvature="0" />
      <path
         d="m 9.2139081,234.44414 0.3757846,0 0,1.6333 -0.3757846,0 0,-1.6333 z"
         style="font-style:normal;font-variant:normal;font-weight:bold;font-stretch:normal;font-family:'DejaVu Sans';-inkscape-font-specification:'DejaVu Sans Bold'"
         id="path4182"
         inkscape:connector-curvature="0" />
      <path
         d="m 9.952881,234.9018 0.375785,0 0,1.17564 -0.375785,0 0,-1.17564 z m 0,-0.45766 0.375785,0 0,0.30651 -0.375785,0 0,-0.30651 z"
         style="font-style:normal;font-variant:normal;font-weight:bold;font-stretch:normal;font-family:'DejaVu Sans';-inkscape-font-specification:'DejaVu Sans Bold'"
         id="path4184"
         inkscape:connector-curvature="0" />
      <path
         d="m 11.067639,235.90739 0,0.61721 -0.375785,0 0,-1.6228 0.375785,0 0,0.17215 q 0.07768,-0.10287 0.172147,-0.15116 0.09447,-0.0493 0.217283,-0.0493 0.217283,0 0.356891,0.17319 0.139607,0.17215 0.139607,0.44402 0,0.27187 -0.139607,0.44506 -0.139608,0.17215 -0.356891,0.17215 -0.122812,0 -0.217283,-0.0483 -0.09447,-0.0493 -0.172147,-0.1522 z m 0.249823,-0.76102 q -0.120713,0 -0.185793,0.0892 -0.06403,0.0882 -0.06403,0.25507 0,0.1669 0.06403,0.25612 0.06508,0.0882 0.185793,0.0882 0.120713,0 0.183694,-0.0882 0.06403,-0.0882 0.06403,-0.25612 0,-0.16795 -0.06403,-0.25612 -0.06298,-0.0882 -0.183694,-0.0882 z"
         style="font-style:normal;font-variant:normal;font-weight:bold;font-stretch:normal;font-family:'DejaVu Sans';-inkscape-font-specification:'DejaVu Sans Bold'"
         id="path4186"
         inkscape:connector-curvature="0" />
    </g>
    <g
       style="font-style:normal;font-variant:normal;font-weight:bold;font-stretch:normal;font-size:2.14973974px;line-height:125%;font-family:'DejaVu Sans';-inkscape-font-specification:'DejaVu Sans, Bold';text-align:start;letter-spacing:0px;word-spacing:0px;writing-mode:lr-tb;text-anchor:start;fill:#fafafa;fill-opacity:1;stroke:none;stroke-width:1px;stroke-linecap:butt;stroke-linejoin:miter;stroke-opacity:1"
       id="text4188"
       transform="translate(-0.09079733,0.20835235)">
      <path
         d="m 10.406293,256.8594 0,0.61721 -0.375784,0 0,-1.6228 0.375784,0 0,0.17215 q 0.07768,-0.10287 0.172147,-0.15116 0.09447,-0.0493 0.217284,-0.0493 0.217283,0 0.35689,0.1732 0.139607,0.17214 0.139607,0.44401 0,0.27187 -0.139607,0.44506 -0.139607,0.17215 -0.35689,0.17215 -0.122813,0 -0.217284,-0.0483 -0.09447,-0.0493 -0.172147,-0.1522 z m 0.249824,-0.76101 q -0.120713,0 -0.185793,0.0892 -0.06403,0.0882 -0.06403,0.25507 0,0.1669 0.06403,0.25612 0.06508,0.0882 0.185793,0.0882 0.120712,0 0.183693,-0.0882 0.06403,-0.0882 0.06403,-0.25612 0,-0.16795 -0.06403,-0.25612 -0.06298,-0.0882 -0.183693,-0.0882 z"
         style="font-style:normal;font-variant:normal;font-weight:bold;font-stretch:normal;font-family:'DejaVu Sans';-inkscape-font-specification:'DejaVu Sans Bold'"
         id="path4193"
         inkscape:connector-curvature="0" />
      <path
         d="m 12.130914,256.09419 q -0.124912,0 -0.191042,0.0903 -0.06508,0.0892 -0.06508,0.25822 0,0.169 0.06508,0.25927 0.06613,0.0892 0.191042,0.0892 0.122812,0 0.187892,-0.0892 0.06508,-0.0903 0.06508,-0.25927 0,-0.169 -0.06508,-0.25822 -0.06508,-0.0903 -0.187892,-0.0903 z m 0,-0.26872 q 0.303356,0 0.473404,0.16375 0.171098,0.16375 0.171098,0.45346 0,0.28971 -0.171098,0.45346 -0.170048,0.16375 -0.473404,0.16375 -0.304407,0 -0.476554,-0.16375 -0.171098,-0.16375 -0.171098,-0.45346 0,-0.28971 0.171098,-0.45346 0.172147,-0.16375 0.476554,-0.16375 z"
         style="font-style:normal;font-variant:normal;font-weight:bold;font-stretch:normal;font-family:'DejaVu Sans';-inkscape-font-specification:'DejaVu Sans Bold'"
         id="path4195"
         inkscape:connector-curvature="0" />
      <path
         d="m 13.967849,255.89055 0,0.28551 q -0.120713,-0.0504 -0.233028,-0.0756 -0.112316,-0.0252 -0.212035,-0.0252 -0.107067,0 -0.159551,0.0273 -0.05143,0.0263 -0.05143,0.0819 0,0.0451 0.03884,0.0693 0.03989,0.0241 0.141706,0.0357 l 0.06613,0.009 q 0.288661,0.0367 0.388381,0.12072 0.09972,0.084 0.09972,0.26347 0,0.18789 -0.138557,0.28236 -0.138558,0.0945 -0.413573,0.0945 -0.116514,0 -0.241426,-0.0189 -0.123862,-0.0179 -0.255072,-0.0546 l 0,-0.28551 q 0.112316,0.0546 0.22988,0.0819 0.118613,0.0273 0.240376,0.0273 0.110216,0 0.165849,-0.0304 0.05563,-0.0304 0.05563,-0.0903 0,-0.0504 -0.03884,-0.0745 -0.03779,-0.0252 -0.152204,-0.0388 l -0.06613,-0.008 q -0.250873,-0.0315 -0.351642,-0.11651 -0.100769,-0.085 -0.100769,-0.25822 0,-0.18685 0.12806,-0.27712 0.128061,-0.0903 0.39258,-0.0903 0.103918,0 0.218333,0.0157 0.114415,0.0157 0.248773,0.0493 z"
         style="font-style:normal;font-variant:normal;font-weight:bold;font-stretch:normal;font-family:'DejaVu Sans';-inkscape-font-specification:'DejaVu Sans Bold'"
         id="path4197"
         inkscape:connector-curvature="0" />
    </g>
    <g
       transform="translate(-0.09079733,21.37502)"
       id="g4199"
       style="font-style:normal;font-variant:normal;font-weight:bold;font-stretch:normal;font-size:2.14973974px;line-height:125%;font-family:'DejaVu Sans';-inkscape-font-specification:'DejaVu Sans, Bold';text-align:start;letter-spacing:0px;word-spacing:0px;writing-mode:lr-tb;text-anchor:start;fill:#fafafa;fill-opacity:1;stroke:none;stroke-width:1px;stroke-linecap:butt;stroke-linejoin:miter;stroke-opacity:1">
      <path
         inkscape:connector-curvature="0"
         id="path4201"
         style="font-style:normal;font-variant:normal;font-weight:bold;font-stretch:normal;font-family:'DejaVu Sans';-inkscape-font-specification:'DejaVu Sans Bold'"
         d="m 10.406293,256.8594 0,0.61721 -0.375784,0 0,-1.6228 0.375784,0 0,0.17215 q 0.07768,-0.10287 0.172147,-0.15116 0.09447,-0.0493 0.217284,-0.0493 0.217283,0 0.35689,0.1732 0.139607,0.17214 0.139607,0.44401 0,0.27187 -0.139607,0.44506 -0.139607,0.17215 -0.35689,0.17215 -0.122813,0 -0.217284,-0.0483 -0.09447,-0.0493 -0.172147,-0.1522 z m 0.249824,-0.76101 q -0.120713,0 -0.185793,0.0892 -0.06403,0.0882 -0.06403,0.25507 0,0.1669 0.06403,0.25612 0.06508,0.0882 0.185793,0.0882 0.120712,0 0.183693,-0.0882 0.06403,-0.0882 0.06403,-0.25612 0,-0.16795 -0.06403,-0.25612 -0.06298,-0.0882 -0.183693,-0.0882 z" />
      <path
         inkscape:connector-curvature="0"
         id="path4203"
         style="font-style:normal;font-variant:normal;font-weight:bold;font-stretch:normal;font-family:'DejaVu Sans';-inkscape-font-specification:'DejaVu Sans Bold'"
         d="m 12.130914,256.09419 q -0.124912,0 -0.191042,0.0903 -0.06508,0.0892 -0.06508,0.25822 0,0.169 0.06508,0.25927 0.06613,0.0892 0.191042,0.0892 0.122812,0 0.187892,-0.0892 0.06508,-0.0903 0.06508,-0.25927 0,-0.169 -0.06508,-0.25822 -0.06508,-0.0903 -0.187892,-0.0903 z m 0,-0.26872 q 0.303356,0 0.473404,0.16375 0.171098,0.16375 0.171098,0.45346 0,0.28971 -0.171098,0.45346 -0.170048,0.16375 -0.473404,0.16375 -0.304407,0 -0.476554,-0.16375 -0.171098,-0.16375 -0.171098,-0.45346 0,-0.28971 0.171098,-0.45346 0.172147,-0.16375 0.476554,-0.16375 z" />
      <path
         inkscape:connector-curvature="0"
         id="path4205"
         style="font-style:normal;font-variant:normal;font-weight:bold;font-stretch:normal;font-family:'DejaVu Sans';-inkscape-font-specification:'DejaVu Sans Bold'"
         d="m 13.967849,255.89055 0,0.28551 q -0.120713,-0.0504 -0.233028,-0.0756 -0.112316,-0.0252 -0.212035,-0.0252 -0.107067,0 -0.159551,0.0273 -0.05143,0.0263 -0.05143,0.0819 0,0.0451 0.03884,0.0693 0.03989,0.0241 0.141706,0.0357 l 0.06613,0.009 q 0.288661,0.0367 0.388381,0.12072 0.09972,0.084 0.09972,0.26347 0,0.18789 -0.138557,0.28236 -0.138558,0.0945 -0.413573,0.0945 -0.116514,0 -0.241426,-0.0189 -0.123862,-0.0179 -0.255072,-0.0546 l 0,-0.28551 q 0.112316,0.0546 0.22988,0.0819 0.118613,0.0273 0.240376,0.0273 0.110216,0 0.165849,-0.0304 0.05563,-0.0304 0.05563,-0.0903 0,-0.0504 -0.03884,-0.0745 -0.03779,-0.0252 -0.152204,-0.0388 l -0.06613,-0.008 q -0.250873,-0.0315 -0.351642,-0.11651 -0.100769,-0.085 -0.100769,-0.25822 0,-0.18685 0.12806,-0.27712 0.128061,-0.0903 0.39258,-0.0903 0.103918,0 0.218333,0.0157 0.114415,0.0157 0.248773,0.0493 z" />
    </g>
    <g
       style="font-style:normal;font-variant:normal;font-weight:normal;font-stretch:normal;font-size:2.9765625px;line-height:125%;font-family:'DejaVu Sans';-inkscape-font-specification:'DejaVu Sans';text-align:start;letter-spacing:0px;word-spacing:0px;writing-mode:lr-tb;text-anchor:start;fill:#fafafa;fill-opacity:1;stroke:none;stroke-width:1px;stroke-linecap:butt;stroke-linejoin:miter;stroke-opacity:1"
       id="text4230"
       transform="translate(-4.2007547e-7,-0.66145294)">
      <path
         d="m 7.0414796,201.89129 0,0.30957 q -0.1482468,-0.13807 -0.3168411,-0.20638 -0.167141,-0.0683 -0.356083,-0.0683 -0.3720703,0 -0.5697326,0.22818 -0.1976624,0.22673 -0.1976624,0.65694 0,0.42875 0.1976624,0.65694 0.1976623,0.22673 0.5697326,0.22673 0.188942,0 0.356083,-0.0683 0.1685943,-0.0683 0.3168411,-0.20638 l 0,0.30666 q -0.1540604,0.10465 -0.3270149,0.15697 -0.1715012,0.0523 -0.36335,0.0523 -0.4927024,0 -0.7761154,-0.30085 -0.2834129,-0.30231 -0.2834129,-0.82408 0,-0.52322 0.2834129,-0.82408 0.283413,-0.3023 0.7761154,-0.3023 0.1947556,0 0.3662568,0.0523 0.1729545,0.0509 0.3241081,0.15406 z"
         id="path4235"
         inkscape:connector-curvature="0" />
      <path
         d="m 7.4862199,201.63258 0.2674255,0 0,2.26149 -0.2674255,0 0,-2.26149 z"
         id="path4237"
         inkscape:connector-curvature="0" />
      <path
         d="m 8.3117509,202.26627 0.2674255,0 0,1.6278 -0.2674255,0 0,-1.6278 z m 0,-0.63369 0.2674255,0 0,0.33865 -0.2674255,0 0,-0.33865 z"
         id="path4239"
         inkscape:connector-curvature="0" />
      <path
         d="m 9.395987,203.6499 0,0.86332 -0.2688789,0 0,-2.24695 0.2688789,0 0,0.24707 q 0.084297,-0.14534 0.2121964,-0.2151 0.1293526,-0.0712 0.3081207,-0.0712 0.2964939,0 0.4810749,0.23545 0.186036,0.23546 0.186036,0.61915 0,0.3837 -0.186036,0.61915 -0.184581,0.23545 -0.4810749,0.23545 -0.1787681,0 -0.3081207,-0.0698 -0.1278992,-0.0712 -0.2121964,-0.21656 z m 0.909828,-0.56828 q 0,-0.29504 -0.122085,-0.46218 -0.120633,-0.16859 -0.3328289,-0.16859 -0.2121963,0 -0.3342819,0.16859 -0.1206322,0.16714 -0.1206322,0.46218 0,0.29504 0.1206322,0.46364 0.1220856,0.16714 0.3342819,0.16714 0.2121959,0 0.3328289,-0.16714 0.122085,-0.1686 0.122085,-0.46364 z"
         id="path4241"
         inkscape:connector-curvature="0" />
    </g>
    <g
       aria-label="limit"
       style="font-style:normal;font-weight:normal;font-size:10.58333302px;line-height:1.25;font-family:sans-serif;letter-spacing:0px;word-spacing:0px;fill:#000000;fill-opacity:1;stroke:none;stroke-width:0.26458332"
       id="text1634">
      <path
         d="M 1.3807944,276.87083 H 1.7507976 V 278.479 H 1.3807944 Z"
         style="font-style:normal;font-variant:normal;font-weight:bold;font-stretch:normal;font-size:2.11666656px;font-family:'DejaVu Sans';-inkscape-font-specification:'DejaVu Sans, Bold';font-variant-ligatures:normal;font-variant-caps:normal;font-variant-numeric:normal;font-feature-settings:normal;text-align:start;writing-mode:lr-tb;text-anchor:start;fill:#fafafa;fill-opacity:1;stroke-width:0.26458332"
         id="path1636" />
      <path
         d="M 2.1083986,277.32145 H 2.4784018 V 278.479 H 2.1083986 Z m 0,-0.45062 h 0.3700032 v 0.30179 H 2.1083986 Z"
         style="font-style:normal;font-variant:normal;font-weight:bold;font-stretch:normal;font-size:2.11666656px;font-family:'DejaVu Sans';-inkscape-font-specification:'DejaVu Sans, Bold';font-variant-ligatures:normal;font-variant-caps:normal;font-variant-numeric:normal;font-feature-settings:normal;text-align:start;writing-mode:lr-tb;text-anchor:start;fill:#fafafa;fill-opacity:1;stroke-width:0.26458332"
         id="path1638" />
      <path
         d="m 3.9088054,277.51369 q 0.07028,-0.10749 0.1663981,-0.1633 0.097152,-0.0568 0.2129069,-0.0568 0.199471,0 0.3038574,0.12299 0.1043864,0.12299 0.1043864,0.3576 V 278.479 H 4.3242839 v -0.60358 q 0.00103,-0.0134 0.00103,-0.0279 0.00103,-0.0145 0.00103,-0.0413 0,-0.12299 -0.036174,-0.17777 -0.036174,-0.0558 -0.1167887,-0.0558 -0.1054199,0 -0.1632975,0.0868 -0.056844,0.0868 -0.058911,0.25114 V 278.479 H 3.5791098 v -0.60358 q 0,-0.19223 -0.033073,-0.24701 -0.033073,-0.0558 -0.1178222,-0.0558 -0.1064535,0 -0.1643311,0.0879 -0.057878,0.0868 -0.057878,0.24908 V 278.479 H 2.8339356 v -1.15755 h 0.3720703 v 0.1695 q 0.068213,-0.0982 0.1560629,-0.14779 0.088883,-0.0496 0.1953369,-0.0496 0.1198893,0 0.2118733,0.0579 0.091984,0.0579 0.1395264,0.16227 z"
         style="font-style:normal;font-variant:normal;font-weight:bold;font-stretch:normal;font-size:2.11666656px;font-family:'DejaVu Sans';-inkscape-font-specification:'DejaVu Sans, Bold';font-variant-ligatures:normal;font-variant-caps:normal;font-variant-numeric:normal;font-feature-settings:normal;text-align:start;writing-mode:lr-tb;text-anchor:start;fill:#fafafa;fill-opacity:1;stroke-width:0.26458332"
         id="path1640" />
      <path
         d="M 5.0436198,277.32145 H 5.413623 V 278.479 H 5.0436198 Z m 0,-0.45062 H 5.413623 v 0.30179 H 5.0436198 Z"
         style="font-style:normal;font-variant:normal;font-weight:bold;font-stretch:normal;font-size:2.11666656px;font-family:'DejaVu Sans';-inkscape-font-specification:'DejaVu Sans, Bold';font-variant-ligatures:normal;font-variant-caps:normal;font-variant-numeric:normal;font-feature-settings:normal;text-align:start;writing-mode:lr-tb;text-anchor:start;fill:#fafafa;fill-opacity:1;stroke-width:0.26458332"
         id="path1642" />
      <path
         d="m 6.1753336,276.99279 v 0.32866 h 0.381372 v 0.26459 h -0.381372 v 0.49092 q 0,0.0806 0.032039,0.10956 0.032039,0.0279 0.127124,0.0279 H 6.5246662 V 278.479 H 6.207373 q -0.2191081,0 -0.3110921,-0.0909 -0.090951,-0.092 -0.090951,-0.31109 v -0.49092 h -0.183968 v -0.26459 h 0.183968 v -0.32866 z"
         style="font-style:normal;font-variant:normal;font-weight:bold;font-stretch:normal;font-size:2.11666656px;font-family:'DejaVu Sans';-inkscape-font-specification:'DejaVu Sans, Bold';font-variant-ligatures:normal;font-variant-caps:normal;font-variant-numeric:normal;font-feature-settings:normal;text-align:start;writing-mode:lr-tb;text-anchor:start;fill:#fafafa;fill-opacity:1;stroke-width:0.26458332"
         id="path1644" />
    </g>
  </g>
</svg>
