<?xml version="1.0" encoding="UTF-8" standalone="no"?>
<!-- Created with Inkscape (http://www.inkscape.org/) -->

<svg
   xmlns:dc="http://purl.org/dc/elements/1.1/"
   xmlns:cc="http://creativecommons.org/ns#"
   xmlns:rdf="http://www.w3.org/1999/02/22-rdf-syntax-ns#"
   xmlns:svg="http://www.w3.org/2000/svg"
   xmlns="http://www.w3.org/2000/svg"
   xmlns:xlink="http://www.w3.org/1999/xlink"
   xmlns:sodipodi="http://sodipodi.sourceforge.net/DTD/sodipodi-0.dtd"
   xmlns:inkscape="http://www.inkscape.org/namespaces/inkscape"
   width="45"
   height="380"
   viewBox="0 0 11.906251 100.54167"
   version="1.1"
   id="svg8"
   inkscape:version="0.92.3 (2405546, 2018-03-11)"
   sodipodi:docname="ClockDiv.svg">
  <defs
     id="defs2">
    <linearGradient
       inkscape:collect="always"
       id="linearGradient4161">
      <stop
         style="stop-color:#ffffff;stop-opacity:1;"
         offset="0"
         id="stop4163" />
      <stop
         style="stop-color:#ffffff;stop-opacity:0;"
         offset="1"
         id="stop4165" />
    </linearGradient>
    <linearGradient
       inkscape:collect="always"
       xlink:href="#linearGradient4161"
       id="linearGradient4167"
       x1="3.5572765"
       y1="200.51193"
       x2="20.255226"
       y2="200.51193"
       gradientUnits="userSpaceOnUse" />
  </defs>
  <sodipodi:namedview
     id="base"
     pagecolor="#000000"
     bordercolor="#666666"
     borderopacity="1.0"
     inkscape:pageopacity="0"
     inkscape:pageshadow="2"
     inkscape:zoom="2"
     inkscape:cx="-4.1751757"
     inkscape:cy="190.38372"
     inkscape:document-units="mm"
     inkscape:current-layer="layer1"
     showgrid="true"
     units="px"
     inkscape:snap-bbox="true"
     inkscape:snap-page="true"
     inkscape:bbox-nodes="false"
     inkscape:snap-bbox-edge-midpoints="true"
     inkscape:window-width="1920"
     inkscape:window-height="1078"
     inkscape:window-x="0"
     inkscape:window-y="0"
     inkscape:window-maximized="0"
     showguides="false"
     inkscape:snap-global="true"
     inkscape:snap-bbox-midpoints="true"
     inkscape:snap-center="true"
     inkscape:snap-object-midpoints="true"
     inkscape:snap-nodes="false"
     inkscape:snap-text-baseline="false"
     inkscape:snap-others="false">
    <inkscape:grid
       type="xygrid"
       id="grid6568"
       spacingx="2.9765628"
       spacingy="0.66145836"
       dotted="false"
       visible="true"
       enabled="true"
       snapvisiblegridlinesonly="true" />
  </sodipodi:namedview>
  <metadata
     id="metadata5">
    <rdf:RDF>
      <cc:Work
         rdf:about="">
        <dc:format>image/svg+xml</dc:format>
        <dc:type
           rdf:resource="http://purl.org/dc/dcmitype/StillImage" />
        <dc:title />
      </cc:Work>
    </rdf:RDF>
  </metadata>
  <g
     inkscape:label="Layer 1"
     inkscape:groupmode="layer"
     id="layer1"
     transform="translate(0,-196.45832)"
     style="display:inline">
    <path
       style="opacity:1;fill:#121411;fill-opacity:1;fill-rule:evenodd;stroke:none;stroke-width:0.48607069;stroke-linecap:butt;stroke-linejoin:round;stroke-miterlimit:4;stroke-dasharray:none;stroke-dashoffset:0;stroke-opacity:1;paint-order:normal"
       d="m 3.397736e-7,196.45832 11.9062506602264,0 0,100.54168 L 3.397736e-7,297 Z"
       id="rect817"
       inkscape:connector-curvature="0" />
    <g
       style="font-style:normal;font-variant:normal;font-weight:normal;font-stretch:normal;font-size:2.97656298px;line-height:125%;font-family:'Arial Black';-inkscape-font-specification:'Arial Black, Normal';text-align:start;letter-spacing:0px;word-spacing:0px;writing-mode:lr-tb;text-anchor:start;fill:#fafafa;fill-opacity:1;stroke:none;stroke-width:1px;stroke-linecap:butt;stroke-linejoin:miter;stroke-opacity:1"
       id="text4214"
       transform="translate(4.2737997e-8,-1.9843834)">
      <path
         d="m 2.4333546,237.43378 0.3568904,0 0,-1.01294 -0.3663375,0.0756 0,-0.27501 0.3642382,-0.0756 0.384182,0 0,1.28795 0.3568904,0 0,0.27922 -1.0958635,0 0,-0.27922 z"
         style="font-style:normal;font-variant:normal;font-weight:bold;font-stretch:normal;font-size:2.14973974px;line-height:125%;font-family:'DejaVu Sans';-inkscape-font-specification:'DejaVu Sans, Bold';text-align:start;writing-mode:lr-tb;text-anchor:start"
         id="path4223"
         inkscape:connector-curvature="0" />
    </g>
    <g
       style="font-style:normal;font-variant:normal;font-weight:normal;font-stretch:normal;font-size:2.97656298px;line-height:125%;font-family:'Arial Black';-inkscape-font-specification:'Arial Black, Normal';text-align:start;letter-spacing:0px;word-spacing:0px;writing-mode:lr-tb;text-anchor:start;fill:#fafafa;fill-opacity:1;stroke:none;stroke-width:1px;stroke-linecap:butt;stroke-linejoin:miter;stroke-opacity:1"
       id="text4218"
       transform="translate(3.2821399e-7,-1.3400834e-5)">
      <path
         d="m 8.8095001,235.4599 0.6896382,0 0,0.29706 -1.1389002,0 0,-0.29706 0.5720743,-0.5049 q 0.076626,-0.0693 0.1133652,-0.1354 0.036739,-0.0661 0.036739,-0.13751 0,-0.11022 -0.074527,-0.1774 -0.073477,-0.0672 -0.1962897,-0.0672 -0.094471,0 -0.2067865,0.0409 -0.1123155,0.0399 -0.2403762,0.11966 l 0,-0.34429 q 0.1364581,-0.0451 0.2697671,-0.0682 0.1333091,-0.0241 0.2613698,-0.0241 0.2813136,0 0.4366659,0.12386 0.1564019,0.12386 0.1564019,0.34534 0,0.12806 -0.06613,0.23933 -0.06613,0.11022 -0.2781645,0.29601 l -0.3348472,0.29391 z"
         style="font-style:normal;font-variant:normal;font-weight:bold;font-stretch:normal;font-size:2.14973974px;line-height:125%;font-family:'DejaVu Sans';-inkscape-font-specification:'DejaVu Sans, Bold';text-align:start;writing-mode:lr-tb;text-anchor:start"
         id="path4171"
         inkscape:connector-curvature="0" />
    </g>
    <g
       style="font-style:normal;font-variant:normal;font-weight:normal;font-stretch:normal;font-size:2.97656298px;line-height:125%;font-family:'Arial Black';-inkscape-font-specification:'Arial Black, Normal';text-align:start;letter-spacing:0px;word-spacing:0px;writing-mode:lr-tb;text-anchor:start;fill:#fafafa;fill-opacity:1;stroke:none;stroke-width:1px;stroke-linecap:butt;stroke-linejoin:miter;stroke-opacity:1"
       id="text4166">
      <path
         d="m 8.9743001,242.4317 -0.4429639,0.65605 0.4429639,0 0,-0.65605 z m -0.067179,-0.33275 0.449262,0 0,0.9888 0.2235813,0 0,0.29286 -0.2235813,0 0,0.28551 -0.3820827,0 0,-0.28551 -0.6948866,0 0,-0.34639 0.6277073,-0.93527 z"
         style="font-style:normal;font-variant:normal;font-weight:bold;font-stretch:normal;font-size:2.14973974px;line-height:125%;font-family:'DejaVu Sans';-inkscape-font-specification:'DejaVu Sans, Bold';text-align:start;writing-mode:lr-tb;text-anchor:start"
         id="path4185" />
    </g>
    <g
       style="font-style:normal;font-variant:normal;font-weight:normal;font-stretch:normal;font-size:2.97656298px;line-height:125%;font-family:'Arial Black';-inkscape-font-specification:'Arial Black, Normal';text-align:start;letter-spacing:0px;word-spacing:0px;writing-mode:lr-tb;text-anchor:start;fill:#fafafa;fill-opacity:1;stroke:none;stroke-width:1px;stroke-linecap:butt;stroke-linejoin:miter;stroke-opacity:1"
       id="text4173"
       transform="translate(0.00524879,1.3228479)">
      <path
         d="m 3.2384575,241.52655 q 0.1585013,0.0409 0.2403762,0.14275 0.082924,0.10077 0.082924,0.25717 0,0.23303 -0.1784452,0.35479 -0.1784452,0.12072 -0.5206401,0.12072 -0.1207129,0 -0.2424755,-0.02 -0.1207129,-0.0189 -0.2393265,-0.0577 l 0,-0.31175 q 0.1133652,0.0567 0.224631,0.0861 0.1123155,0.0283 0.2204323,0.0283 0.1606007,0 0.2456246,-0.0556 0.086073,-0.0556 0.086073,-0.15955 0,-0.10707 -0.088173,-0.16165 -0.087123,-0.0556 -0.2582207,-0.0556 l -0.1616503,0 0,-0.26032 0.1700477,0 q 0.1522033,0 0.2267304,-0.0472 0.074527,-0.0483 0.074527,-0.14591 0,-0.0903 -0.072428,-0.1396 -0.072428,-0.0493 -0.2046872,-0.0493 -0.09762,0 -0.1973394,0.022 -0.099719,0.0221 -0.198389,0.0651 l 0,-0.296 q 0.1196632,-0.0336 0.2372271,-0.0504 0.1175639,-0.0168 0.2309291,-0.0168 0.3054562,0 0.4566097,0.10077 0.1522033,0.0997 0.1522033,0.30125 0,0.13751 -0.072428,0.22568 -0.072428,0.0871 -0.2141342,0.12282 z"
         style="font-style:normal;font-variant:normal;font-weight:bold;font-stretch:normal;font-size:2.14973974px;line-height:125%;font-family:'DejaVu Sans';-inkscape-font-specification:'DejaVu Sans, Bold';text-align:start;writing-mode:lr-tb;text-anchor:start"
         id="path4178"
         inkscape:connector-curvature="0" />
    </g>
    <g
       style="font-style:normal;font-variant:normal;font-weight:normal;font-stretch:normal;font-size:2.97656298px;line-height:125%;font-family:'Arial Black';-inkscape-font-specification:'Arial Black, Normal';text-align:start;letter-spacing:0px;word-spacing:0px;writing-mode:lr-tb;text-anchor:start;fill:#fafafa;fill-opacity:1;stroke:none;stroke-width:1px;stroke-linecap:butt;stroke-linejoin:miter;stroke-opacity:1"
       id="text4180"
       transform="translate(-0.00892256,1.3229193)">
      <path
         d="m 2.4574973,248.71353 1.0045415,0 0,0.29706 -0.6822905,0 0,0.24248 q 0.046186,-0.0126 0.092372,-0.0189 0.047235,-0.007 0.09762,-0.007 0.286562,0 0.446113,0.14381 0.1595509,0.14276 0.1595509,0.39888 0,0.25402 -0.1742464,0.39783 -0.1731968,0.1438 -0.4818021,0.1438 -0.133309,0 -0.2645187,-0.0262 -0.13016,-0.0252 -0.2592704,-0.0777 l 0,-0.31805 q 0.1280607,0.0735 0.2424755,0.11022 0.1154646,0.0367 0.2172833,0.0367 0.1469549,0 0.2309291,-0.0714 0.085024,-0.0724 0.085024,-0.19524 0,-0.12386 -0.085024,-0.19524 -0.083974,-0.0714 -0.2309291,-0.0714 -0.087123,0 -0.1857929,0.0231 -0.09867,0.0221 -0.2120349,0.0693 l 0,-0.88173 z"
         style="font-style:normal;font-variant:normal;font-weight:bold;font-stretch:normal;font-size:2.14973974px;line-height:125%;font-family:'DejaVu Sans';-inkscape-font-specification:'DejaVu Sans, Bold';text-align:start;writing-mode:lr-tb;text-anchor:start"
         id="path4193"
         inkscape:connector-curvature="0" />
    </g>
    <g
       style="font-style:normal;font-variant:normal;font-weight:normal;font-stretch:normal;font-size:2.97656298px;line-height:125%;font-family:'Arial Black';-inkscape-font-specification:'Arial Black, Normal';text-align:start;letter-spacing:0px;word-spacing:0px;writing-mode:lr-tb;text-anchor:start;fill:#fafafa;fill-opacity:1;stroke:none;stroke-width:1px;stroke-linecap:butt;stroke-linejoin:miter;stroke-opacity:1"
       id="text4187"
       transform="translate(3.2821399e-7,-3.072446e-5)">
      <path
         d="m 8.9506817,250.85624 q -0.1060174,0 -0.159551,0.0693 -0.052484,0.0682 -0.052484,0.20574 0,0.1375 0.052484,0.20678 0.053534,0.0682 0.159551,0.0682 0.1070672,0 0.159551,-0.0682 0.053534,-0.0693 0.053534,-0.20678 0,-0.13751 -0.053534,-0.20574 -0.052484,-0.0693 -0.159551,-0.0693 z m 0.4996466,-0.75262 0,0.28971 q -0.099719,-0.0472 -0.1878923,-0.0693 -0.088173,-0.0231 -0.1721471,-0.0231 -0.1805446,0 -0.2813136,0.10077 -0.1007691,0.0997 -0.1175639,0.29706 0.069279,-0.0514 0.1501039,-0.0766 0.080825,-0.0262 0.1763458,-0.0262 0.2403762,0 0.387331,0.14066 0.1480046,0.14065 0.1480046,0.36843 0,0.25193 -0.1647994,0.40413 -0.1647994,0.15115 -0.4419143,0.15115 -0.3054562,0 -0.4734046,-0.20573 -0.1668987,-0.20679 -0.1668987,-0.58572 0,-0.38838 0.19524,-0.60987 0.1962897,-0.22253 0.537435,-0.22253 0.1081168,0 0.2099355,0.0168 0.1018187,0.0168 0.2015381,0.0504 z"
         style="font-style:normal;font-variant:normal;font-weight:bold;font-stretch:normal;font-size:2.14973974px;line-height:125%;font-family:'DejaVu Sans';-inkscape-font-specification:'DejaVu Sans, Bold';text-align:start;writing-mode:lr-tb;text-anchor:start"
         id="path4201"
         inkscape:connector-curvature="0" />
    </g>
    <g
       style="font-style:normal;font-variant:normal;font-weight:normal;font-stretch:normal;font-size:2.97656298px;line-height:125%;font-family:'Arial Black';-inkscape-font-specification:'Arial Black, Normal';text-align:start;letter-spacing:0px;word-spacing:0px;writing-mode:lr-tb;text-anchor:start;fill:#fafafa;fill-opacity:1;stroke:none;stroke-width:1px;stroke-linecap:butt;stroke-linejoin:miter;stroke-opacity:1"
       id="text4195"
       transform="translate(0.02256799,-0.02622939)">
      <path
         d="m 2.3635512,258.00018 1.1808873,0 0,0.22778 -0.6109123,1.33939 -0.3936291,0 0.5783723,-1.27011 -0.7547182,0 0,-0.29706 z"
         style="font-style:normal;font-variant:normal;font-weight:bold;font-stretch:normal;font-size:2.14973974px;line-height:125%;font-family:'DejaVu Sans';-inkscape-font-specification:'DejaVu Sans, Bold';text-align:start;writing-mode:lr-tb;text-anchor:start"
         id="path4208"
         inkscape:connector-curvature="0" />
    </g>
    <g
       style="font-style:normal;font-variant:normal;font-weight:normal;font-stretch:normal;font-size:2.97656298px;line-height:125%;font-family:'Arial Black';-inkscape-font-specification:'Arial Black, Normal';text-align:start;letter-spacing:0px;word-spacing:0px;writing-mode:lr-tb;text-anchor:start;fill:#fafafa;fill-opacity:1;stroke:none;stroke-width:1px;stroke-linecap:butt;stroke-linejoin:miter;stroke-opacity:1"
       id="text4203"
       transform="translate(-0.01259672,0.02835061)">
      <path
         d="m 8.9438595,258.83992 q -0.1133652,0 -0.1742465,0.0619 -0.060881,0.0619 -0.060881,0.1774 0,0.11546 0.060881,0.17739 0.060881,0.0609 0.1742465,0.0609 0.1123155,0 0.1721471,-0.0609 0.059832,-0.0619 0.059832,-0.17739 0,-0.11652 -0.059832,-0.1774 -0.059832,-0.0619 -0.1721471,-0.0619 z m -0.2949594,-0.13331 q -0.1427562,-0.043 -0.2151839,-0.13226 -0.072428,-0.0892 -0.072428,-0.22253 0,-0.19839 0.1480045,-0.3023 0.1480046,-0.10392 0.4345666,-0.10392 0.2844626,0 0.4324671,0.10392 0.1480046,0.10286 0.1480046,0.3023 0,0.13331 -0.073477,0.22253 -0.072428,0.0892 -0.215184,0.13226 0.159551,0.0441 0.2403762,0.14381 0.081875,0.0987 0.081875,0.24982 0,0.23303 -0.1553523,0.35269 -0.1543026,0.11862 -0.4587091,0.11862 -0.3054562,0 -0.4618582,-0.11862 -0.1553523,-0.11966 -0.1553523,-0.35269 0,-0.15115 0.080825,-0.24982 0.081875,-0.0997 0.2414259,-0.14381 z m 0.094471,-0.31385 q 0,0.0934 0.051434,0.14381 0.052484,0.0504 0.1490542,0.0504 0.094471,0 0.1459052,-0.0504 0.051434,-0.0504 0.051434,-0.14381 0,-0.0934 -0.051434,-0.14276 -0.051434,-0.0504 -0.1459052,-0.0504 -0.09657,0 -0.1490542,0.0504 -0.051434,0.0504 -0.051434,0.14276 z"
         style="font-style:normal;font-variant:normal;font-weight:bold;font-stretch:normal;font-size:2.14973974px;line-height:125%;font-family:'DejaVu Sans';-inkscape-font-specification:'DejaVu Sans, Bold';text-align:start;writing-mode:lr-tb;text-anchor:start"
         id="path4225"
         inkscape:connector-curvature="0" />
    </g>
    <g
       style="font-style:normal;font-variant:normal;font-weight:normal;font-stretch:normal;font-size:2.97656298px;line-height:125%;font-family:'Arial Black';-inkscape-font-specification:'Arial Black, Normal';text-align:start;letter-spacing:0px;word-spacing:0px;writing-mode:lr-tb;text-anchor:start;fill:#fafafa;fill-opacity:1;stroke:none;stroke-width:1px;stroke-linecap:butt;stroke-linejoin:miter;stroke-opacity:1"
       id="text4220"
       transform="translate(-1.57262e-7,0.66148195)">
      <path
         d="m 2.4569725,266.80877 0,-0.28971 q 0.09657,0.0451 0.1847433,0.0682 0.088173,0.022 0.1742465,0.022 0.1805445,0 0.2813136,-0.0997 0.100769,-0.10077 0.1186135,-0.29811 -0.071378,0.0525 -0.1522032,0.0787 -0.080825,0.0263 -0.1752962,0.0263 -0.2403761,0 -0.3883807,-0.13961 -0.1469548,-0.14066 -0.1469548,-0.36949 0,-0.25297 0.1637497,-0.40517 0.1647993,-0.15221 0.4408646,-0.15221 0.3065058,0 0.4744542,0.20679 0.1679485,0.20679 0.1679485,0.58467 0,0.38838 -0.1962898,0.61091 -0.1962897,0.22148 -0.5384846,0.22148 -0.1102161,0 -0.2109852,-0.0168 -0.100769,-0.0157 -0.1973394,-0.0483 z m 0.4985969,-0.75471 q 0.1060174,0 0.159551,-0.0682 0.053534,-0.0693 0.053534,-0.20679 0,-0.13646 -0.053534,-0.20574 -0.053534,-0.0693 -0.159551,-0.0693 -0.1060174,0 -0.159551,0.0693 -0.053534,0.0693 -0.053534,0.20574 0,0.13751 0.053534,0.20679 0.053534,0.0682 0.159551,0.0682 z"
         style="font-style:normal;font-variant:normal;font-weight:bold;font-stretch:normal;font-size:2.14973974px;line-height:125%;font-family:'DejaVu Sans';-inkscape-font-specification:'DejaVu Sans, Bold';text-align:start;writing-mode:lr-tb;text-anchor:start"
         id="path4232"
         inkscape:connector-curvature="0" />
    </g>
    <g
       style="font-style:normal;font-variant:normal;font-weight:normal;font-stretch:normal;font-size:2.97656298px;line-height:125%;font-family:'Arial Black';-inkscape-font-specification:'Arial Black, Normal';text-align:start;letter-spacing:0px;word-spacing:0px;writing-mode:lr-tb;text-anchor:start;fill:#fafafa;fill-opacity:1;stroke:none;stroke-width:1px;stroke-linecap:butt;stroke-linejoin:miter;stroke-opacity:1"
       id="text4227"
       transform="translate(1.2821399e-7,0.66162195)">
      <path
         d="m 7.6165419,266.56628 0.3568904,0 0,-1.01294 -0.3663375,0.0756 0,-0.27501 0.3642381,-0.0756 0.384182,0 0,1.28796 0.3568904,0 0,0.27921 -1.0958634,0 0,-0.27921 z"
         style="font-style:normal;font-variant:normal;font-weight:bold;font-stretch:normal;font-size:2.14973974px;line-height:125%;font-family:'DejaVu Sans';-inkscape-font-specification:'DejaVu Sans, Bold';text-align:start;writing-mode:lr-tb;text-anchor:start"
         id="path4239"
         inkscape:connector-curvature="0" />
      <path
         d="m 9.8481565,266.06033 q 0,-0.29391 -0.055633,-0.41357 -0.054583,-0.12072 -0.1847432,-0.12072 -0.1301601,0 -0.185793,0.12072 -0.055633,0.11966 -0.055633,0.41357 0,0.29706 0.055633,0.41882 0.055633,0.12176 0.185793,0.12176 0.1291103,0 0.1847432,-0.12176 0.055633,-0.12176 0.055633,-0.41882 z m 0.4041255,0.003 q 0,0.38943 -0.167948,0.60146 -0.1679484,0.21099 -0.4765536,0.21099 -0.3096549,0 -0.4776034,-0.21099 -0.1679484,-0.21203 -0.1679484,-0.60146 0,-0.39048 0.1679484,-0.60147 0.1679485,-0.21203 0.4776034,-0.21203 0.3086052,0 0.4765536,0.21203 0.167948,0.21099 0.167948,0.60147 z"
         style="font-style:normal;font-variant:normal;font-weight:bold;font-stretch:normal;font-size:2.14973974px;line-height:125%;font-family:'DejaVu Sans';-inkscape-font-specification:'DejaVu Sans, Bold';text-align:start;writing-mode:lr-tb;text-anchor:start"
         id="path4241"
         inkscape:connector-curvature="0" />
    </g>
    <g
       style="font-style:normal;font-variant:normal;font-weight:normal;font-stretch:normal;font-size:2.97656298px;line-height:125%;font-family:'Arial Black';-inkscape-font-specification:'Arial Black, Normal';text-align:start;letter-spacing:0px;word-spacing:0px;writing-mode:lr-tb;text-anchor:start;fill:#fafafa;fill-opacity:1;stroke:none;stroke-width:1px;stroke-linecap:butt;stroke-linejoin:miter;stroke-opacity:1"
       id="text4234"
       transform="translate(4.2737998e-8,1.3229133)">
      <path
         d="m 1.6859842,273.81399 0.3568903,0 0,-1.01294 -0.3663374,0.0756 0,-0.27501 0.3642381,-0.0756 0.384182,0 0,1.28796 0.3568904,0 0,0.27921 -1.0958634,0 0,-0.27921 z"
         style="font-style:normal;font-variant:normal;font-weight:bold;font-stretch:normal;font-size:2.14973974px;line-height:125%;font-family:'DejaVu Sans';-inkscape-font-specification:'DejaVu Sans, Bold';text-align:start;writing-mode:lr-tb;text-anchor:start"
         id="path4249"
         inkscape:connector-curvature="0" />
      <path
         d="m 3.1807251,273.81399 0.3568904,0 0,-1.01294 -0.3663375,0.0756 0,-0.27501 0.3642381,-0.0756 0.3841821,0 0,1.28796 0.3568903,0 0,0.27921 -1.0958634,0 0,-0.27921 z"
         style="font-style:normal;font-variant:normal;font-weight:bold;font-stretch:normal;font-size:2.14973974px;line-height:125%;font-family:'DejaVu Sans';-inkscape-font-specification:'DejaVu Sans, Bold';text-align:start;writing-mode:lr-tb;text-anchor:start"
         id="path4251"
         inkscape:connector-curvature="0" />
    </g>
    <g
       style="font-style:normal;font-variant:normal;font-weight:normal;font-stretch:normal;font-size:2.97656298px;line-height:125%;font-family:'Arial Black';-inkscape-font-specification:'Arial Black, Normal';text-align:start;letter-spacing:0px;word-spacing:0px;writing-mode:lr-tb;text-anchor:start;fill:#fafafa;fill-opacity:1;stroke:none;stroke-width:1px;stroke-linecap:butt;stroke-linejoin:miter;stroke-opacity:1"
       id="text4243"
       transform="translate(1.7821399e-7,-6.7098992e-6)">
      <path
         d="m 7.6585288,275.16524 0.3568904,0 0,-1.01294 -0.3663375,0.0756 0,-0.27501 0.3642382,-0.0756 0.384182,0 0,1.28795 0.3568903,0 0,0.27922 -1.0958634,0 0,-0.27922 z"
         style="font-style:normal;font-variant:normal;font-weight:bold;font-stretch:normal;font-size:2.14973974px;line-height:125%;font-family:'DejaVu Sans';-inkscape-font-specification:'DejaVu Sans, Bold';text-align:start;writing-mode:lr-tb;text-anchor:start"
         id="path4258"
         inkscape:connector-curvature="0" />
      <path
         d="m 9.5206569,275.1474 0.6896381,0 0,0.29706 -1.1389001,0 0,-0.29706 0.5720743,-0.5049 q 0.076626,-0.0693 0.1133652,-0.1354 0.036739,-0.0661 0.036739,-0.13751 0,-0.11022 -0.074527,-0.1774 -0.073477,-0.0672 -0.1962897,-0.0672 -0.094471,0 -0.2067865,0.0409 -0.1123155,0.0399 -0.2403762,0.11966 l 0,-0.34429 q 0.1364581,-0.0451 0.2697672,-0.0682 0.133309,-0.0241 0.2613697,-0.0241 0.2813136,0 0.4366651,0.12386 0.156402,0.12386 0.156402,0.34534 0,0.12806 -0.06613,0.23933 -0.06613,0.11022 -0.2781645,0.29601 l -0.3348472,0.29391 z"
         style="font-style:normal;font-variant:normal;font-weight:bold;font-stretch:normal;font-size:2.14973974px;line-height:125%;font-family:'DejaVu Sans';-inkscape-font-specification:'DejaVu Sans, Bold';text-align:start;writing-mode:lr-tb;text-anchor:start"
         id="path4260"
         inkscape:connector-curvature="0" />
    </g>
    <g
       style="font-style:normal;font-variant:normal;font-weight:normal;font-stretch:normal;font-size:2.97656298px;line-height:125%;font-family:'Arial Black';-inkscape-font-specification:'Arial Black, Normal';text-align:start;letter-spacing:0px;word-spacing:0px;writing-mode:lr-tb;text-anchor:start;fill:#fafafa;fill-opacity:1;stroke:none;stroke-width:1px;stroke-linecap:butt;stroke-linejoin:miter;stroke-opacity:1"
       id="text4253"
       transform="translate(2.92738e-7,-0.66162537)">
      <path
         d="m 1.6975306,283.76421 0.3568904,0 0,-1.01294 -0.3663375,0.0756 0,-0.27502 0.3642382,-0.0756 0.384182,0 0,1.28795 0.3568904,0 0,0.27922 -1.0958635,0 0,-0.27922 z"
         style="font-style:normal;font-variant:normal;font-weight:bold;font-stretch:normal;font-size:2.14973974px;line-height:125%;font-family:'DejaVu Sans';-inkscape-font-specification:'DejaVu Sans, Bold';text-align:start;writing-mode:lr-tb;text-anchor:start"
         id="path4267"
         inkscape:connector-curvature="0" />
      <path
         d="m 3.9417414,283.19844 q 0.1585013,0.0409 0.2403762,0.14275 0.082924,0.10077 0.082924,0.25717 0,0.23303 -0.1784452,0.35479 -0.1784452,0.12072 -0.5206401,0.12072 -0.1207129,0 -0.2424755,-0.0199 -0.1207129,-0.0189 -0.2393265,-0.0577 l 0,-0.31175 q 0.1133652,0.0567 0.224631,0.0861 0.1123155,0.0283 0.2204323,0.0283 0.1606007,0 0.2456246,-0.0556 0.086073,-0.0556 0.086073,-0.15955 0,-0.10707 -0.088173,-0.16165 -0.087123,-0.0556 -0.2582207,-0.0556 l -0.1616503,0 0,-0.26032 0.1700478,0 q 0.1522032,0 0.2267303,-0.0472 0.074527,-0.0483 0.074527,-0.14591 0,-0.0903 -0.072428,-0.1396 -0.072428,-0.0493 -0.2046872,-0.0493 -0.09762,0 -0.1973393,0.022 -0.099719,0.0221 -0.1983891,0.0651 l 0,-0.29601 q 0.1196632,-0.0336 0.2372271,-0.0504 0.1175639,-0.0168 0.2309291,-0.0168 0.3054562,0 0.4566098,0.10077 0.1522032,0.0997 0.1522032,0.30125 0,0.13751 -0.072428,0.22568 -0.072428,0.0871 -0.2141343,0.12282 z"
         style="font-style:normal;font-variant:normal;font-weight:bold;font-stretch:normal;font-size:2.14973974px;line-height:125%;font-family:'DejaVu Sans';-inkscape-font-specification:'DejaVu Sans, Bold';text-align:start;writing-mode:lr-tb;text-anchor:start"
         id="path4269"
         inkscape:connector-curvature="0" />
    </g>
    <g
       style="font-style:normal;font-variant:normal;font-weight:normal;font-stretch:normal;font-size:2.97656298px;line-height:125%;font-family:'Arial Black';-inkscape-font-specification:'Arial Black, Normal';text-align:start;letter-spacing:0px;word-spacing:0px;writing-mode:lr-tb;text-anchor:start;fill:#fafafa;fill-opacity:1;stroke:none;stroke-width:1px;stroke-linecap:butt;stroke-linejoin:miter;stroke-opacity:1"
       id="text4262"
       transform="translate(-1.2178601e-7,-1.3229154)">
      <path
         d="m 7.6144424,284.39733 0.3568904,0 0,-1.01294 -0.3663375,0.0756 0,-0.27502 0.3642381,-0.0756 0.384182,0 0,1.28795 0.3568904,0 0,0.27921 -1.0958634,0 0,-0.27921 z"
         style="font-style:normal;font-variant:normal;font-weight:bold;font-stretch:normal;font-size:2.14973974px;line-height:125%;font-family:'DejaVu Sans';-inkscape-font-specification:'DejaVu Sans, Bold';text-align:start;writing-mode:lr-tb;text-anchor:start"
         id="path4280"
         inkscape:connector-curvature="0" />
      <path
         d="m 9.6487176,283.44212 -0.4429639,0.65605 0.4429639,0 0,-0.65605 z m -0.067179,-0.33274 0.4492614,0 0,0.98879 0.223582,0 0,0.29286 -0.223582,0 0,0.28551 -0.3820821,0 0,-0.28551 -0.6948866,0 0,-0.34639 0.6277073,-0.93526 z"
         style="font-style:normal;font-variant:normal;font-weight:bold;font-stretch:normal;font-size:2.14973974px;line-height:125%;font-family:'DejaVu Sans';-inkscape-font-specification:'DejaVu Sans, Bold';text-align:start;writing-mode:lr-tb;text-anchor:start"
         id="path4282"
         inkscape:connector-curvature="0" />
    </g>
    <g
       style="font-style:normal;font-variant:normal;font-weight:normal;font-stretch:normal;font-size:2.97656298px;line-height:125%;font-family:'Arial Black';-inkscape-font-specification:'Arial Black, Normal';text-align:start;letter-spacing:0px;word-spacing:0px;writing-mode:lr-tb;text-anchor:start;fill:#fafafa;fill-opacity:1;stroke:none;stroke-width:1px;stroke-linecap:butt;stroke-linejoin:miter;stroke-opacity:1"
       id="text4271"
       transform="translate(0.02571689,-0.66144403)">
      <path
         d="m 1.6613168,291.67336 0.3568904,0 0,-1.01294 -0.3663375,0.0756 0,-0.27502 0.3642381,-0.0756 0.384182,0 0,1.28795 0.3568904,0 0,0.27922 -1.0958634,0 0,-0.27922 z"
         style="font-style:normal;font-variant:normal;font-weight:bold;font-stretch:normal;font-size:2.14973974px;line-height:125%;font-family:'DejaVu Sans';-inkscape-font-specification:'DejaVu Sans, Bold';text-align:start;writing-mode:lr-tb;text-anchor:start"
         id="path4285"
         inkscape:connector-curvature="0" />
      <path
         d="m 3.1319151,290.38541 1.0045415,0 0,0.29706 -0.6822904,0 0,0.24247 q 0.046186,-0.0126 0.092372,-0.0189 0.047236,-0.007 0.09762,-0.007 0.286562,0 0.446113,0.14381 0.159551,0.14275 0.159551,0.39887 0,0.25402 -0.1742465,0.39783 -0.1731968,0.14381 -0.481802,0.14381 -0.1333091,0 -0.2645188,-0.0263 -0.13016,-0.0252 -0.2592703,-0.0777 l 0,-0.31805 q 0.1280606,0.0735 0.2424755,0.11021 0.1154645,0.0367 0.2172833,0.0367 0.1469548,0 0.230929,-0.0714 0.085024,-0.0724 0.085024,-0.19524 0,-0.12386 -0.085024,-0.19524 -0.083974,-0.0714 -0.230929,-0.0714 -0.087123,0 -0.185793,0.0231 -0.09867,0.022 -0.2120349,0.0693 l 0,-0.88173 z"
         style="font-style:normal;font-variant:normal;font-weight:bold;font-stretch:normal;font-size:2.14973974px;line-height:125%;font-family:'DejaVu Sans';-inkscape-font-specification:'DejaVu Sans, Bold';text-align:start;writing-mode:lr-tb;text-anchor:start"
         id="path4287"
         inkscape:connector-curvature="0" />
    </g>
    <g
       style="font-style:normal;font-variant:normal;font-weight:normal;font-stretch:normal;font-size:2.97656298px;line-height:125%;font-family:'Arial Black';-inkscape-font-specification:'Arial Black, Normal';text-align:start;letter-spacing:0px;word-spacing:0px;writing-mode:lr-tb;text-anchor:start;fill:#fafafa;fill-opacity:1;stroke:none;stroke-width:1px;stroke-linecap:butt;stroke-linejoin:miter;stroke-opacity:1"
       id="text4275"
       transform="translate(1.2821399e-7,-2.4033525e-5)">
      <path
         d="m 7.6228399,291.03814 0.3568904,0 0,-1.01294 -0.3663375,0.0756 0,-0.27502 0.3642382,-0.0756 0.384182,0 0,1.28796 0.3568904,0 0,0.27921 -1.0958635,0 0,-0.27921 z"
         style="font-style:normal;font-variant:normal;font-weight:bold;font-stretch:normal;font-size:2.14973974px;line-height:125%;font-family:'DejaVu Sans';-inkscape-font-specification:'DejaVu Sans, Bold';text-align:start;writing-mode:lr-tb;text-anchor:start"
         id="path4290"
         inkscape:connector-curvature="0" />
      <path
         d="m 9.6434694,290.54374 q -0.1060174,0 -0.159551,0.0693 -0.052484,0.0682 -0.052484,0.20574 0,0.1375 0.052484,0.20678 0.053534,0.0682 0.159551,0.0682 0.1070671,0 0.159551,-0.0682 0.053534,-0.0693 0.053534,-0.20678 0,-0.13751 -0.053534,-0.20574 -0.052484,-0.0693 -0.159551,-0.0693 z m 0.4996466,-0.75262 0,0.28971 q -0.09972,-0.0472 -0.1878924,-0.0693 -0.088173,-0.0231 -0.1721471,-0.0231 -0.1805445,0 -0.2813136,0.10077 -0.100769,0.0997 -0.1175639,0.29706 0.069279,-0.0514 0.1501039,-0.0766 0.080825,-0.0262 0.1763459,-0.0262 0.2403761,0 0.3873312,0.14066 0.148004,0.14065 0.148004,0.36843 0,0.25193 -0.164799,0.40413 -0.1647994,0.15115 -0.4419143,0.15115 -0.3054562,0 -0.4734046,-0.20573 -0.1668988,-0.20679 -0.1668988,-0.58572 0,-0.38838 0.1952401,-0.60987 0.1962897,-0.22253 0.5374349,-0.22253 0.1081168,0 0.2099355,0.0168 0.1018192,0.0168 0.2015382,0.0504 z"
         style="font-style:normal;font-variant:normal;font-weight:bold;font-stretch:normal;font-size:2.14973974px;line-height:125%;font-family:'DejaVu Sans';-inkscape-font-specification:'DejaVu Sans, Bold';text-align:start;writing-mode:lr-tb;text-anchor:start"
         id="path4292"
         inkscape:connector-curvature="0" />
    </g>
    <g
       style="font-style:normal;font-variant:normal;font-weight:normal;font-stretch:normal;font-size:2.97656298px;line-height:125%;font-family:'DejaVu Sans';-inkscape-font-specification:'DejaVu Sans';text-align:start;letter-spacing:0px;word-spacing:0px;writing-mode:lr-tb;text-anchor:start;fill:#fafafa;fill-opacity:1;stroke:none;stroke-width:1px;stroke-linecap:butt;stroke-linejoin:miter;stroke-opacity:1"
       id="text4267"
       transform="translate(-3.14524e-7,-2.8753582e-5)">
      <path
         d="m 2.8326763,201.95581 0,0.24998 q -0.1133652,-0.0625 -0.2281838,-0.093 -0.1133652,-0.032 -0.2296372,-0.032 -0.2601586,0 -0.4040451,0.16569 -0.1438866,0.16423 -0.1438866,0.46218 0,0.29794 0.1438866,0.46363 0.1438865,0.16424 0.4040451,0.16424 0.116272,0 0.2296372,-0.0305 0.1148186,-0.032 0.2281838,-0.0945 l 0,0.24708 q -0.1119118,0.0523 -0.232544,0.0785 -0.1191788,0.0262 -0.254345,0.0262 -0.3677102,0 -0.5842667,-0.23109 -0.2165566,-0.23109 -0.2165566,-0.62351 0,-0.39823 0.21801,-0.62642 0.2194633,-0.22818 0.6002541,-0.22818 0.123539,0 0.2412644,0.0262 0.1177254,0.0247 0.2281838,0.0756 z"
         id="path4272"
         inkscape:connector-curvature="0" />
      <path
         d="m 3.300671,201.25963 0.2674256,0 0,2.26149 -0.2674256,0 0,-2.26149 z"
         id="path4274"
         inkscape:connector-curvature="0" />
      <path
         d="m 4.1160285,201.25963 0.268879,0 0,1.33567 0.7979165,-0.70199 0.341549,0 -0.8633196,0.76158 0.8996546,0.86623 -0.348816,0 -0.8269845,-0.79501 0,0.79501 -0.268879,0 0,-2.26149 z"
         id="path4276"
         inkscape:connector-curvature="0" />
      <path
         d="m 6.158055,201.59246 0,1.68739 0.3546296,0 q 0.4491006,0 0.6569368,-0.20347 0.2092896,-0.20348 0.2092896,-0.6424 0,-0.43602 -0.2092896,-0.63805 -0.2078362,-0.20347 -0.6569368,-0.20347 l -0.3546296,0 z m -0.2935867,-0.24127 0.6031609,0 q 0.6307756,0 0.9258157,0.26307 0.2950402,0.26161 0.2950402,0.81972 0,0.56101 -0.2964936,0.82407 -0.2964935,0.26307 -0.9243623,0.26307 l -0.6031609,0 0,-2.16993 z"
         id="path4278"
         inkscape:connector-curvature="0" />
      <path
         d="m 8.1433994,201.89331 0.2674256,0 0,1.62781 -0.2674256,0 0,-1.62781 z m 0,-0.63368 0.2674256,0 0,0.33864 -0.2674256,0 0,-0.33864 z"
         id="path4281"
         inkscape:connector-curvature="0" />
      <path
         d="m 8.7770816,201.89331 0.283413,0 0.50869,1.3662 0.5086904,-1.3662 0.283413,0 -0.6104285,1.62781 -0.3633499,0 -0.610428,-1.62781 z"
         id="path4283"
         inkscape:connector-curvature="0" />
    </g>
    <g
       aria-label="clk"
       style="font-style:normal;font-variant:normal;font-weight:bold;font-stretch:normal;font-size:2.11666656px;line-height:1.25;font-family:'DejaVu Sans';-inkscape-font-specification:'DejaVu Sans, Bold';font-variant-ligatures:normal;font-variant-caps:normal;font-variant-numeric:normal;font-feature-settings:normal;text-align:start;letter-spacing:0px;word-spacing:0px;writing-mode:lr-tb;text-anchor:start;fill:#fafafa;fill-opacity:1;stroke:none;stroke-width:0.26458332"
       id="text5512">
      <path
         d="m 2.3281598,213.78026 v 0.30179 q -0.075448,-0.0517 -0.1519287,-0.0765 -0.075448,-0.0248 -0.1570964,-0.0248 -0.1550292,0 -0.2418456,0.0909 -0.085783,0.0899 -0.085783,0.25218 0,0.16226 0.085783,0.25321 0.086816,0.0899 0.2418456,0.0899 0.086816,0 0.1643311,-0.0258 0.078548,-0.0258 0.144694,-0.0765 v 0.30283 q -0.086816,0.032 -0.1767334,0.0475 -0.088883,0.0165 -0.1788004,0.0165 -0.3131592,0 -0.4898926,-0.16019 Q 1.306,214.61019 1.306,214.3239 q 0,-0.28629 0.1767334,-0.44648 0.1767334,-0.16124 0.4898926,-0.16124 0.09095,0 0.1788004,0.0165 0.088884,0.0155 0.1767334,0.0475 z"
         style="fill:#fafafa;fill-opacity:1;stroke-width:0.26458332"
         id="path5553" />
      <path
         d="m 2.6495872,213.29347 h 0.3700032 v 1.60817 H 2.6495872 Z"
         style="fill:#fafafa;fill-opacity:1;stroke-width:0.26458332"
         id="path5555" />
      <path
         d="m 3.3771913,213.29347 h 0.3700032 v 0.8754 l 0.4258138,-0.42478 h 0.4299479 l -0.5653401,0.53123 0.6097818,0.62632 H 4.1988465 l -0.451652,-0.48266 v 0.48266 H 3.3771913 Z"
         style="fill:#fafafa;fill-opacity:1;stroke-width:0.26458332"
         id="path5557" />
    </g>
    <g
       aria-label="rst"
       style="font-style:normal;font-variant:normal;font-weight:bold;font-stretch:normal;font-size:2.11666656px;line-height:1.25;font-family:'DejaVu Sans';-inkscape-font-specification:'DejaVu Sans, Bold';font-variant-ligatures:normal;font-variant-caps:normal;font-variant-numeric:normal;font-feature-settings:normal;text-align:start;letter-spacing:0px;word-spacing:0px;writing-mode:lr-tb;text-anchor:start;fill:#fafafa;fill-opacity:1;stroke:none;stroke-width:0.26458332"
       id="text5516">
      <path
         d="m 8.2438957,214.05932 q -0.048576,-0.0227 -0.097152,-0.0331 -0.047542,-0.0114 -0.096118,-0.0114 -0.142627,0 -0.2201416,0.092 -0.076481,0.0909 -0.076481,0.26148 v 0.5333 H 7.3839999 v -1.15755 h 0.3700033 v 0.19017 q 0.071314,-0.11369 0.1632975,-0.16537 0.093018,-0.0527 0.2222086,-0.0527 0.018604,0 0.040308,0.002 0.021704,0.001 0.063045,0.006 z"
         style="fill:#fafafa;fill-opacity:1;stroke-width:0.26458332"
         id="path5546" />
      <path
         d="m 9.3342684,213.78026 v 0.28112 q -0.1188557,-0.0496 -0.2294433,-0.0744 -0.1105876,-0.0248 -0.2087728,-0.0248 -0.1054199,0 -0.1570963,0.0269 -0.050643,0.0258 -0.050643,0.0806 0,0.0444 0.038241,0.0682 0.039274,0.0238 0.1395264,0.0351 l 0.065112,0.009 q 0.2842204,0.0362 0.3824056,0.11885 0.098185,0.0827 0.098185,0.25942 0,0.185 -0.1364258,0.27802 -0.1364258,0.093 -0.4072103,0.093 -0.1147216,0 -0.2377115,-0.0186 -0.1219564,-0.0176 -0.2511475,-0.0537 v -0.28112 q 0.1105876,0.0537 0.2263428,0.0806 0.1167887,0.0269 0.236678,0.0269 0.1085205,0 0.1632975,-0.03 0.054777,-0.03 0.054777,-0.0889 0,-0.0496 -0.038241,-0.0734 -0.037207,-0.0248 -0.1498616,-0.0382 l -0.065112,-0.008 q -0.2470134,-0.031 -0.3462321,-0.11472 -0.099219,-0.0837 -0.099219,-0.25425 0,-0.18397 0.1260905,-0.27285 0.1260905,-0.0889 0.3865397,-0.0889 0.1023193,0 0.214974,0.0155 0.1126546,0.0155 0.2449462,0.0486 z"
         style="fill:#fafafa;fill-opacity:1;stroke-width:0.26458332"
         id="path5548" />
      <path
         d="m 10.094946,213.41543 v 0.32866 h 0.381372 v 0.26458 h -0.381372 v 0.49093 q 0,0.0806 0.03204,0.10955 0.03204,0.0279 0.127124,0.0279 h 0.190169 v 0.26458 h -0.317293 q -0.2191082,0 -0.3110922,-0.0909 -0.09095,-0.092 -0.09095,-0.31109 v -0.49093 H 9.5409742 v -0.26458 h 0.1839681 v -0.32866 z"
         style="fill:#fafafa;fill-opacity:1;stroke-width:0.26458332"
         id="path5550" />
    </g>
    <g
       aria-label="seq"
       style="font-style:normal;font-variant:normal;font-weight:bold;font-stretch:normal;font-size:2.11666656px;line-height:1.25;font-family:'DejaVu Sans';-inkscape-font-specification:'DejaVu Sans, Bold';font-variant-ligatures:normal;font-variant-caps:normal;font-variant-numeric:normal;font-feature-settings:normal;text-align:start;letter-spacing:0px;word-spacing:0px;writing-mode:lr-tb;text-anchor:start;fill:#fafafa;fill-opacity:1;stroke:none;stroke-width:0.26458332"
       id="text5524">
      <path
         d="m 1.9875504,224.36359 v 0.28112 q -0.1188558,-0.0496 -0.2294433,-0.0744 -0.1105876,-0.0248 -0.2087728,-0.0248 -0.1054199,0 -0.1570963,0.0269 -0.050643,0.0258 -0.050643,0.0806 0,0.0444 0.038241,0.0682 0.039274,0.0238 0.1395264,0.0351 l 0.065112,0.009 q 0.2842203,0.0362 0.3824056,0.11886 0.098185,0.0827 0.098185,0.25942 0,0.185 -0.1364258,0.27801 -0.1364258,0.093 -0.4072103,0.093 -0.1147216,0 -0.2377115,-0.0186 -0.1219564,-0.0176 -0.2511475,-0.0537 v -0.28112 q 0.1105876,0.0537 0.2263428,0.0806 0.1167887,0.0269 0.236678,0.0269 0.1085205,0 0.1632975,-0.03 0.054777,-0.03 0.054777,-0.0889 0,-0.0496 -0.038241,-0.0734 -0.037207,-0.0248 -0.1498617,-0.0382 l -0.065112,-0.008 Q 1.2134375,224.99921 1.1142188,224.9155 1.015,224.83178 1.015,224.66125 q 0,-0.18397 0.1260905,-0.27285 0.1260905,-0.0889 0.3865397,-0.0889 0.1023193,0 0.214974,0.0155 0.1126546,0.0155 0.2449462,0.0486 z"
         style="fill:#fafafa;fill-opacity:1;stroke-width:0.26458332"
         id="path5539" />
      <path
         d="m 3.4996028,224.90309 v 0.10542 H 2.6345394 q 0.013436,0.13023 0.094051,0.19534 0.080615,0.0651 0.2253092,0.0651 0.1167887,0 0.2387451,-0.0341 0.1229899,-0.0351 0.252181,-0.10542 v 0.28525 q -0.1312582,0.0496 -0.2625163,0.0744 -0.1312581,0.0258 -0.2625163,0.0258 -0.3141926,0 -0.488859,-0.15916 -0.1736328,-0.1602 -0.1736328,-0.44855 0,-0.28319 0.1705322,-0.44545 0.1715658,-0.16227 0.4712891,-0.16227 0.2728515,0 0.436149,0.16433 0.1643311,0.16433 0.1643311,0.43925 z M 3.1192643,224.7801 q 0,-0.10542 -0.062012,-0.1695 -0.060978,-0.0651 -0.1601969,-0.0651 -0.107487,0 -0.1746663,0.061 -0.067179,0.0599 -0.083716,0.17363 z"
         style="fill:#fafafa;fill-opacity:1;stroke-width:0.26458332"
         id="path5541" />
      <path
         d="m 4.3222916,224.56823 q -0.1178222,0 -0.1808675,0.0868 -0.062012,0.0868 -0.062012,0.25218 0,0.16536 0.062012,0.25218 0.063045,0.0868 0.1808675,0.0868 0.1188558,0 0.1808675,-0.0868 0.063045,-0.0868 0.063045,-0.25218 0,-0.16537 -0.063045,-0.25218 -0.062012,-0.0868 -0.1808675,-0.0868 z m 0.2439128,0.74931 q -0.076481,0.10232 -0.1684652,0.14986 -0.091984,0.0475 -0.2129069,0.0475 -0.2139404,0 -0.3513997,-0.1695 -0.1374593,-0.17053 -0.1374593,-0.43821 0,-0.26769 0.1374593,-0.43615 0.1374593,-0.1695 0.3513997,-0.1695 0.1209229,0 0.2129069,0.0475 0.091984,0.0475 0.1684652,0.14986 v -0.17156 h 0.3720703 v 1.59783 H 4.5662044 Z"
         style="fill:#fafafa;fill-opacity:1;stroke-width:0.26458332"
         id="path5543" />
    </g>
    <g
       aria-label="in"
       style="font-style:normal;font-variant:normal;font-weight:bold;font-stretch:normal;font-size:2.11666656px;line-height:1.25;font-family:'DejaVu Sans';-inkscape-font-specification:'DejaVu Sans, Bold';font-variant-ligatures:normal;font-variant-caps:normal;font-variant-numeric:normal;font-feature-settings:normal;text-align:start;letter-spacing:0px;word-spacing:0px;writing-mode:lr-tb;text-anchor:start;fill:#fafafa;fill-opacity:1;stroke:none;stroke-width:0.26458332"
       id="text5532">
      <path
         d="m 7.9839998,224.32742 h 0.3700033 v 1.15755 H 7.9839998 Z m 0,-0.45062 h 0.3700033 v 0.30179 H 7.9839998 Z"
         style="fill:#fafafa;fill-opacity:1;stroke-width:0.26458332"
         id="path5534" />
      <path
         d="m 9.8753572,224.7801 v 0.70487 H 9.5032869 v -0.11472 -0.42478 q 0,-0.14986 -0.00723,-0.20671 -0.0062,-0.0568 -0.022738,-0.0837 -0.021704,-0.0362 -0.058911,-0.0558 -0.037207,-0.0207 -0.084749,-0.0207 -0.1157552,0 -0.181901,0.0899 -0.066146,0.0889 -0.066146,0.24702 v 0.56947 H 8.711604 v -1.15755 h 0.3700032 v 0.1695 q 0.083716,-0.10129 0.177767,-0.14883 0.094051,-0.0486 0.2077392,-0.0486 0.2005045,0 0.3038574,0.12299 0.1043864,0.12299 0.1043864,0.3576 z"
         style="fill:#fafafa;fill-opacity:1;stroke-width:0.26458332"
         id="path5536" />
    </g>
  </g>
</svg>
