<?xml version="1.0" encoding="UTF-8" standalone="no"?>
<!-- Created with Inkscape (http://www.inkscape.org/) -->

<svg
   width="120"
   height="380"
   viewBox="0 0 31.750002 100.54166"
   version="1.1"
   id="svg8"
   inkscape:version="1.2.2 (b0a8486541, 2022-12-01)"
   sodipodi:docname="Remainder.svg"
   xml:space="preserve"
   xmlns:inkscape="http://www.inkscape.org/namespaces/inkscape"
   xmlns:sodipodi="http://sodipodi.sourceforge.net/DTD/sodipodi-0.dtd"
   xmlns="http://www.w3.org/2000/svg"
   xmlns:svg="http://www.w3.org/2000/svg"
   xmlns:rdf="http://www.w3.org/1999/02/22-rdf-syntax-ns#"
   xmlns:cc="http://creativecommons.org/ns#"
   xmlns:dc="http://purl.org/dc/elements/1.1/"><defs
     id="defs2" /><sodipodi:namedview
     id="base"
     pagecolor="#000000"
     bordercolor="#8d8d8d"
     borderopacity="1"
     inkscape:pageopacity="0"
     inkscape:pageshadow="2"
     inkscape:zoom="1"
     inkscape:cx="96.5"
     inkscape:cy="243.5"
     inkscape:document-units="px"
     inkscape:current-layer="layer1"
     showgrid="true"
     units="px"
     inkscape:snap-bbox="true"
     inkscape:snap-page="true"
     inkscape:bbox-nodes="false"
     inkscape:snap-bbox-edge-midpoints="true"
     inkscape:window-width="1920"
     inkscape:window-height="1058"
     inkscape:window-x="0"
     inkscape:window-y="22"
     inkscape:window-maximized="1"
     height="128.5mm"
     inkscape:snap-object-midpoints="false"
     inkscape:snap-center="true"
     inkscape:bbox-paths="false"
     inkscape:snap-grids="true"
     inkscape:snap-others="false"
     inkscape:snap-bbox-midpoints="true"
     inkscape:snap-nodes="true"
     showguides="false"
     inkscape:pagecheckerboard="false"
     inkscape:showpageshadow="0"
     inkscape:deskcolor="#000000"><inkscape:grid
       type="xygrid"
       id="grid4151"
       units="px"
       spacingx="3.96875"
       spacingy="0.26458333"
       originx="0"
       originy="0" /></sodipodi:namedview><metadata
     id="metadata5"><rdf:RDF><cc:Work
         rdf:about=""><dc:format>image/svg+xml</dc:format><dc:type
           rdf:resource="http://purl.org/dc/dcmitype/StillImage" /></cc:Work></rdf:RDF></metadata><g
     inkscape:label="Layer 1"
     inkscape:groupmode="layer"
     id="layer1"
     transform="translate(0,-196.45833)"
     style="display:inline"><path
       style="opacity:1;fill:#121311;fill-opacity:1;fill-rule:evenodd;stroke:none;stroke-width:0.486071;stroke-linecap:butt;stroke-linejoin:round;stroke-miterlimit:4;stroke-dasharray:none;stroke-dashoffset:0;stroke-opacity:1;paint-order:normal"
       d="M 0,196.45832 H 31.75 V 296.99999 H 0 Z"
       id="rect817"
       inkscape:connector-curvature="0" /><g
       style="font-style:normal;font-variant:normal;font-weight:bold;font-stretch:normal;font-size:2.64583px;line-height:125%;font-family:'DejaVu Sans';-inkscape-font-specification:'DejaVu Sans, Bold';text-align:start;letter-spacing:0px;word-spacing:0px;writing-mode:lr-tb;text-anchor:start;fill:#fafafa;fill-opacity:1;stroke:none;stroke-width:1px;stroke-linecap:butt;stroke-linejoin:miter;stroke-opacity:1"
       id="text4189"
       transform="translate(-4.1010692,-24.156448)"><path
         d="m 10.423088,245.51718 q -0.07768,0.10286 -0.171098,0.15115 -0.09342,0.0483 -0.216233,0.0483 -0.2151841,0 -0.3558409,-0.16899 -0.1406568,-0.17005 -0.1406568,-0.43247 0,-0.26347 0.1406568,-0.43142 0.1406568,-0.169 0.3558409,-0.169 0.122812,0 0.216233,0.0483 0.09342,0.0483 0.171098,0.1522 V 244.541 h 0.377884 v 1.05703 q 0,0.28341 -0.179495,0.43247 -0.178445,0.1501 -0.518541,0.1501 -0.110216,0 -0.2130844,-0.0168 -0.1028684,-0.0168 -0.2067865,-0.0514 v -0.29286 q 0.09867,0.0567 0.1931407,0.084 0.094471,0.0283 0.1899912,0.0283 0.184744,0 0.270817,-0.0808 0.08607,-0.0808 0.08607,-0.25297 v -0.0808 z m -0.247724,-0.73163 q -0.116514,0 -0.1815943,0.0861 -0.06508,0.0861 -0.06508,0.24353 0,0.16165 0.062981,0.24562 0.062981,0.0829 0.1836933,0.0829 0.117564,0 0.182644,-0.0861 0.06508,-0.0861 0.06508,-0.24247 0,-0.15745 -0.06508,-0.24353 -0.06508,-0.0861 -0.182644,-0.0861 z"
         style="font-style:normal;font-variant:normal;font-weight:bold;font-stretch:normal;font-size:2.14974px;line-height:125%;font-family:'DejaVu Sans';-inkscape-font-specification:'DejaVu Sans, Bold';text-align:start;writing-mode:lr-tb;text-anchor:start"
         id="path4164"
         inkscape:connector-curvature="0" /><path
         d="m 11.691098,245.18758 q -0.117564,0 -0.177395,0.0399 -0.05878,0.0399 -0.05878,0.11757 0,0.0714 0.04723,0.11231 0.04829,0.0399 0.133309,0.0399 0.106018,0 0.178446,-0.0756 0.07243,-0.0766 0.07243,-0.19104 v -0.043 h -0.19524 z m 0.574174,-0.14171 v 0.67074 h -0.378934 v -0.17424 q -0.07558,0.10706 -0.170047,0.1564 -0.09447,0.0483 -0.22988,0.0483 -0.182644,0 -0.297059,-0.10601 -0.113365,-0.10707 -0.113365,-0.27712 0,-0.20678 0.141707,-0.30335 0.142756,-0.0966 0.447162,-0.0966 h 0.221482 v -0.0294 q 0,-0.0892 -0.07033,-0.13016 -0.07033,-0.042 -0.219383,-0.042 -0.120713,0 -0.224631,0.0241 -0.103918,0.0241 -0.19314,0.0724 v -0.28656 q 0.120713,-0.0294 0.242475,-0.0441 0.121763,-0.0157 0.243525,-0.0157 0.318053,0 0.45871,0.12596 0.141706,0.12492 0.141706,0.40728 z"
         style="font-style:normal;font-variant:normal;font-weight:bold;font-stretch:normal;font-size:2.14974px;line-height:125%;font-family:'DejaVu Sans';-inkscape-font-specification:'DejaVu Sans, Bold';text-align:start;writing-mode:lr-tb;text-anchor:start"
         id="path4166"
         inkscape:connector-curvature="0" /><path
         d="m 12.616914,244.54097 h 0.375785 v 1.17564 h -0.375785 z m 0,-0.45765 h 0.375785 v 0.3065 h -0.375785 z"
         style="font-style:normal;font-variant:normal;font-weight:bold;font-stretch:normal;font-size:2.14974px;line-height:125%;font-family:'DejaVu Sans';-inkscape-font-specification:'DejaVu Sans, Bold';text-align:start;writing-mode:lr-tb;text-anchor:start"
         id="path4169"
         inkscape:connector-curvature="0" /><path
         d="m 14.537824,245.00073 v 0.71588 H 14.15994 v -0.11651 -0.43142 q 0,-0.1522 -0.0073,-0.20993 -0.0063,-0.0577 -0.02309,-0.085 -0.02204,-0.0367 -0.05983,-0.0567 -0.03779,-0.021 -0.08607,-0.021 -0.117564,0 -0.184743,0.0913 -0.06718,0.0903 -0.06718,0.25087 v 0.57837 h -0.375785 v -1.17564 h 0.375785 v 0.17215 q 0.08502,-0.10287 0.180544,-0.15115 0.09552,-0.0493 0.210985,-0.0493 0.203638,0 0.308606,0.12492 0.106017,0.12491 0.106017,0.36318 z"
         style="font-style:normal;font-variant:normal;font-weight:bold;font-stretch:normal;font-size:2.14974px;line-height:125%;font-family:'DejaVu Sans';-inkscape-font-specification:'DejaVu Sans, Bold';text-align:start;writing-mode:lr-tb;text-anchor:start"
         id="path4171"
         inkscape:connector-curvature="0" /></g><g
       style="font-style:normal;font-variant:normal;font-weight:bold;font-stretch:normal;font-size:2.64583px;line-height:125%;font-family:'DejaVu Sans';-inkscape-font-specification:'DejaVu Sans, Bold';text-align:start;letter-spacing:0px;word-spacing:0px;writing-mode:lr-tb;text-anchor:start;display:inline;fill:#fafafa;fill-opacity:1;stroke:none;stroke-width:1px;stroke-linecap:butt;stroke-linejoin:miter;stroke-opacity:1"
       id="text4182"
       transform="translate(11.512642,2.6545495)"><path
         d="m 10.977318,288.08808 q -0.124912,0 -0.191041,0.0903 -0.06508,0.0892 -0.06508,0.25822 0,0.16899 0.06508,0.25927 0.06613,0.0892 0.191041,0.0892 0.122812,0 0.187892,-0.0892 0.06508,-0.0903 0.06508,-0.25927 0,-0.169 -0.06508,-0.25822 -0.06508,-0.0903 -0.187892,-0.0903 z m 0,-0.26871 q 0.303357,0 0.473404,0.16375 0.171098,0.16375 0.171098,0.45346 0,0.28971 -0.171098,0.45346 -0.170047,0.16375 -0.473404,0.16375 -0.304407,0 -0.476554,-0.16375 -0.171097,-0.16375 -0.171097,-0.45346 0,-0.28971 0.171097,-0.45346 0.172147,-0.16375 0.476554,-0.16375 z"
         style="font-style:normal;font-variant:normal;font-weight:bold;font-stretch:normal;font-size:2.14974px;line-height:125%;font-family:'DejaVu Sans';-inkscape-font-specification:'DejaVu Sans, Bold';text-align:start;writing-mode:lr-tb;text-anchor:start"
         id="path4188"
         inkscape:connector-curvature="0" /><path
         d="m 11.88319,288.56569 v -0.71798 h 0.377884 v 0.11756 q 0,0.0955 -0.0011,0.24038 -10e-4,0.1438 -10e-4,0.19209 0,0.1417 0.0073,0.20469 0.0073,0.0619 0.02519,0.0903 0.02309,0.0367 0.05983,0.0567 0.03779,0.0199 0.08607,0.0199 0.117564,0 0.184744,-0.0903 0.06718,-0.0903 0.06718,-0.25087 v -0.58047 h 0.375785 v 1.17564 h -0.375785 v -0.17005 q -0.08502,0.10287 -0.180545,0.1522 -0.09447,0.0483 -0.208885,0.0483 -0.203638,0 -0.310705,-0.12492 -0.106017,-0.12491 -0.106017,-0.36318 z"
         style="font-style:normal;font-variant:normal;font-weight:bold;font-stretch:normal;font-size:2.14974px;line-height:125%;font-family:'DejaVu Sans';-inkscape-font-specification:'DejaVu Sans, Bold';text-align:start;writing-mode:lr-tb;text-anchor:start"
         id="path4190"
         inkscape:connector-curvature="0" /><path
         d="m 13.838739,287.51391 v 0.3338 h 0.387331 v 0.26871 h -0.387331 v 0.4986 q 0,0.0819 0.03254,0.11127 0.03254,0.0283 0.12911,0.0283 h 0.193141 v 0.26872 h -0.322251 q -0.222532,0 -0.315953,-0.0924 -0.09237,-0.0934 -0.09237,-0.31595 v -0.4986 h -0.186842 v -0.26871 h 0.186842 v -0.3338 h 0.375785 z"
         style="font-style:normal;font-variant:normal;font-weight:bold;font-stretch:normal;font-size:2.14974px;line-height:125%;font-family:'DejaVu Sans';-inkscape-font-specification:'DejaVu Sans, Bold';text-align:start;writing-mode:lr-tb;text-anchor:start;display:inline"
         id="path4192"
         inkscape:connector-curvature="0" /></g><g
       style="font-style:normal;font-variant:normal;font-weight:bold;font-stretch:normal;font-size:2.64583px;line-height:125%;font-family:'DejaVu Sans';-inkscape-font-specification:'DejaVu Sans, Bold';text-align:start;letter-spacing:0px;word-spacing:0px;writing-mode:lr-tb;text-anchor:start;fill:#fafafa;fill-opacity:1;stroke:none;stroke-width:1px;stroke-linecap:butt;stroke-linejoin:miter;stroke-opacity:1"
       id="text4170"
       transform="translate(3.9467418,-0.15518048)"><path
         d="M 2.8760034,290.68789 H 3.251788 v 1.17564 H 2.8760034 Z m 0,-0.45766 H 3.251788 v 0.3065 H 2.8760034 Z"
         style="font-style:normal;font-variant:normal;font-weight:bold;font-stretch:normal;font-size:2.14974px;line-height:125%;font-family:'DejaVu Sans';-inkscape-font-specification:'DejaVu Sans, Bold';text-align:start;writing-mode:lr-tb;text-anchor:start"
         id="path4175" /><path
         d="m 4.7969134,291.14765 v 0.71588 H 4.4190295 v -0.11652 -0.43142 q 0,-0.1522 -0.00735,-0.20993 -0.0063,-0.0577 -0.023093,-0.085 -0.022043,-0.0367 -0.059832,-0.0567 -0.037788,-0.021 -0.086074,-0.021 -0.1175639,0 -0.1847433,0.0913 -0.067179,0.0903 -0.067179,0.25087 v 0.57838 H 3.6149737 v -1.17564 h 0.3757845 v 0.17214 q 0.085024,-0.10286 0.1805446,-0.15115 0.095521,-0.0493 0.2109852,-0.0493 0.2036374,0 0.3086052,0.12491 0.1060174,0.12491 0.1060174,0.36319 z"
         style="font-style:normal;font-variant:normal;font-weight:bold;font-stretch:normal;font-size:2.14974px;line-height:125%;font-family:'DejaVu Sans';-inkscape-font-specification:'DejaVu Sans, Bold';text-align:start;writing-mode:lr-tb;text-anchor:start"
         id="path4177" /></g><g
       aria-label="mix"
       id="text2987"
       style="font-weight:bold;font-size:2.11667px;font-family:'DejaVu Sans';-inkscape-font-specification:'DejaVu Sans, Bold';letter-spacing:0px;word-spacing:0px;fill:#fafafa;stroke-width:0.264583"
       transform="translate(2.9499999e-5,-2.1271419)"><path
         d="m 22.843049,254.50543 q 0.07028,-0.10749 0.166399,-0.1633 0.09715,-0.0568 0.212907,-0.0568 0.199471,0 0.303858,0.12299 0.104386,0.12299 0.104386,0.3576 v 0.70487 h -0.37207 v -0.60358 q 0.001,-0.0134 0.001,-0.0279 10e-4,-0.0145 10e-4,-0.0413 0,-0.12299 -0.03617,-0.17777 -0.03617,-0.0558 -0.116789,-0.0558 -0.10542,0 -0.163298,0.0868 -0.05684,0.0868 -0.05891,0.25115 v 0.56844 h -0.372071 v -0.60358 q 0,-0.19224 -0.03307,-0.24702 -0.03307,-0.0558 -0.117822,-0.0558 -0.106454,0 -0.164331,0.0879 -0.05788,0.0868 -0.05788,0.24908 v 0.56948 h -0.372071 v -1.15755 h 0.372071 v 0.16949 q 0.06821,-0.0982 0.156063,-0.14779 0.08888,-0.0496 0.195337,-0.0496 0.11989,0 0.211874,0.0579 0.09198,0.0579 0.139526,0.16226 z"
         id="path24430" /><path
         d="m 23.975799,254.3132 h 0.370003 v 1.15755 h -0.370003 z m 0,-0.45062 h 0.370003 v 0.30179 h -0.370003 z"
         id="path24432" /><path
         d="M 24.993826,254.87854 24.57628,254.3132 h 0.391708 l 0.236678,0.34313 0.239779,-0.34313 h 0.391708 l -0.417546,0.56327 0.438217,0.59428 h -0.391708 l -0.26045,-0.36587 -0.257349,0.36587 h -0.391708 z"
         id="path24434" /></g><path
       style="fill:none;stroke:#f9f9f9;stroke-width:0.265;stroke-linecap:butt;stroke-linejoin:miter;stroke-dasharray:none;stroke-opacity:1"
       d="m 3.96875,269.88022 v -3.96875"
       id="path493"
       sodipodi:nodetypes="cc" /><path
       style="fill:none;stroke:#f9f9f9;stroke-width:0.265;stroke-linecap:butt;stroke-linejoin:miter;stroke-dasharray:none;stroke-opacity:1"
       d="m 11.90625,269.8802 v -3.96875"
       id="use1780"
       sodipodi:nodetypes="cc" /><path
       style="fill:none;stroke:#f9f9f9;stroke-width:0.265;stroke-linecap:butt;stroke-linejoin:miter;stroke-dasharray:none;stroke-opacity:1"
       d="m 19.84375,269.8802 v -3.96875"
       id="use1782"
       sodipodi:nodetypes="cc" /><path
       style="fill:none;stroke:#f9f9f9;stroke-width:0.265;stroke-linecap:butt;stroke-linejoin:miter;stroke-dasharray:none;stroke-opacity:1"
       d="m 27.78125,269.8802 v -3.96875"
       id="use1784"
       sodipodi:nodetypes="cc" /><g
       aria-label="feedback"
       id="text1842"
       style="font-weight:bold;font-size:2.11667px;font-family:'DejaVu Sans';-inkscape-font-specification:'DejaVu Sans, Bold';letter-spacing:0px;word-spacing:0px;fill:#f9f9f9;stroke-width:0.265"
       transform="translate(9.9999985e-7,0.66140635)"><path
         d="m 19.255149,219.29414 v 0.24288 H 19.05051 q -0.07855,0 -0.109554,0.0289 -0.03101,0.0279 -0.03101,0.0982 v 0.0806 h 0.31626 v 0.26458 h -0.31626 v 0.89297 h -0.370004 v -0.89297 h -0.183968 v -0.26458 h 0.183968 v -0.0806 q 0,-0.18913 0.10542,-0.27905 0.10542,-0.0909 0.326596,-0.0909 z"
         id="path1894" /><path
         d="m 20.569799,220.32044 v 0.10542 h -0.865064 q 0.01344,0.13022 0.09405,0.19533 0.08062,0.0651 0.225309,0.0651 0.116789,0 0.238746,-0.0341 0.12299,-0.0351 0.252181,-0.10542 v 0.28525 q -0.131258,0.0496 -0.262516,0.0744 -0.131259,0.0258 -0.262517,0.0258 -0.314193,0 -0.48886,-0.15917 -0.173633,-0.1602 -0.173633,-0.44855 0,-0.28319 0.170533,-0.44545 0.171566,-0.16227 0.471289,-0.16227 0.272852,0 0.43615,0.16434 0.164331,0.16433 0.164331,0.43925 z m -0.380339,-0.12299 q 0,-0.10542 -0.06201,-0.1695 -0.06098,-0.0651 -0.160197,-0.0651 -0.107487,0 -0.174666,0.061 -0.06718,0.06 -0.08372,0.17364 z"
         id="path1896" /><path
         d="m 22.005373,220.32044 v 0.10542 h -0.865065 q 0.01344,0.13022 0.09405,0.19533 0.08062,0.0651 0.22531,0.0651 0.116789,0 0.238745,-0.0341 0.122991,-0.0351 0.252182,-0.10542 v 0.28525 q -0.131259,0.0496 -0.262517,0.0744 -0.131258,0.0258 -0.262517,0.0258 -0.314193,0 -0.488859,-0.15917 -0.173633,-0.1602 -0.173633,-0.44855 0,-0.28319 0.170532,-0.44545 0.171566,-0.16227 0.47129,-0.16227 0.272852,0 0.43615,0.16434 0.164331,0.16433 0.164331,0.43925 z m -0.380339,-0.12299 q 0,-0.10542 -0.06201,-0.1695 -0.06098,-0.0651 -0.160197,-0.0651 -0.107487,0 -0.174667,0.061 -0.06718,0.06 -0.08372,0.17364 z"
         id="path1898" /><path
         d="m 23.073009,219.91426 v -0.62012 h 0.372071 v 1.60817 h -0.372071 v -0.16743 q -0.07648,0.10232 -0.168465,0.14986 -0.09198,0.0476 -0.212907,0.0476 -0.213941,0 -0.3514,-0.1695 -0.13746,-0.17054 -0.13746,-0.43822 0,-0.26768 0.13746,-0.43718 0.137459,-0.17054 0.3514,-0.17054 0.119889,0 0.211874,0.0486 0.09302,0.0475 0.169498,0.14883 z m -0.243913,0.74931 q 0.118856,0 0.180868,-0.0868 0.06304,-0.0868 0.06304,-0.25218 0,-0.16536 -0.06304,-0.25218 -0.06201,-0.0868 -0.180868,-0.0868 -0.117822,0 -0.180867,0.0868 -0.06201,0.0868 -0.06201,0.25218 0,0.16536 0.06201,0.25218 0.06304,0.0868 0.180867,0.0868 z"
         id="path1900" /><path
         d="m 24.416599,220.66357 q 0.118856,0 0.180868,-0.0868 0.06304,-0.0868 0.06304,-0.25218 0,-0.16536 -0.06304,-0.25218 -0.06201,-0.0868 -0.180868,-0.0868 -0.118856,0 -0.182935,0.0879 -0.06305,0.0868 -0.06305,0.25115 0,0.16433 0.06305,0.25218 0.06408,0.0868 0.182935,0.0868 z m -0.24598,-0.74931 q 0.07648,-0.10129 0.169499,-0.14883 0.09302,-0.0486 0.21394,-0.0486 0.213941,0 0.351401,0.17054 0.137459,0.1695 0.137459,0.43718 0,0.26768 -0.137459,0.43822 -0.13746,0.1695 -0.351401,0.1695 -0.120923,0 -0.21394,-0.0476 -0.09302,-0.0486 -0.169499,-0.14986 v 0.16743 h -0.370004 v -1.60817 h 0.370004 z"
         id="path1902" /><path
         d="m 25.834602,220.38141 q -0.115755,0 -0.174666,0.0393 -0.05788,0.0393 -0.05788,0.11575 0,0.0703 0.04651,0.11059 0.04754,0.0393 0.131258,0.0393 0.104387,0 0.1757,-0.0744 0.07131,-0.0754 0.07131,-0.1881 v -0.0424 z m 0.565341,-0.13952 v 0.66042 h -0.373104 v -0.17156 q -0.07441,0.10542 -0.167432,0.15399 -0.09302,0.0476 -0.226343,0.0476 -0.179834,0 -0.292489,-0.10439 -0.111621,-0.10542 -0.111621,-0.27285 0,-0.20361 0.139526,-0.29869 0.14056,-0.0951 0.440284,-0.0951 h 0.218075 v -0.0289 q 0,-0.0879 -0.06925,-0.12815 -0.06925,-0.0413 -0.216007,-0.0413 -0.118856,0 -0.221176,0.0238 -0.102319,0.0238 -0.19017,0.0713 v -0.28215 q 0.118856,-0.0289 0.238746,-0.0434 0.119889,-0.0155 0.239779,-0.0155 0.31316,0 0.451653,0.12403 0.139526,0.12299 0.139526,0.40101 z"
         id="path1904" /><path
         d="m 27.679453,219.78093 v 0.30179 q -0.07545,-0.0517 -0.151928,-0.0765 -0.07545,-0.0248 -0.157097,-0.0248 -0.15503,0 -0.241846,0.091 -0.08578,0.0899 -0.08578,0.25218 0,0.16226 0.08578,0.25321 0.08682,0.0899 0.241846,0.0899 0.08682,0 0.164331,-0.0258 0.07855,-0.0258 0.144694,-0.0765 v 0.30283 q -0.08682,0.032 -0.176733,0.0475 -0.08888,0.0165 -0.178801,0.0165 -0.31316,0 -0.489893,-0.1602 -0.176734,-0.16123 -0.176734,-0.44752 0,-0.28629 0.176734,-0.44649 0.176733,-0.16123 0.489893,-0.16123 0.09095,0 0.178801,0.0165 0.08888,0.0155 0.176733,0.0475 z"
         id="path1906" /><path
         d="m 27.998815,219.29414 h 0.370004 v 0.8754 l 0.425814,-0.42478 h 0.429949 l -0.565341,0.53123 0.609783,0.62632 h -0.448552 l -0.451653,-0.48266 v 0.48266 h -0.370004 z"
         id="path1908" /></g><g
       aria-label="Remainder Fold"
       id="text468"
       style="font-weight:bold;font-size:2.11667px;font-family:'DejaVu Sans';-inkscape-font-specification:'DejaVu Sans, Bold';letter-spacing:0px;word-spacing:0px;fill:#fafafa;stroke-width:0.332656"
       transform="matrix(0.79536548,0,0,0.79536548,3.248573,42.084874)"><path
         d="m 3.6578217,201.81718 q 0.1119657,0.0379 0.2170412,0.16192 0.106798,0.12402 0.213596,0.34106 l 0.3531225,0.7028 H 4.0677883 l -0.3290068,-0.65973 q -0.1274686,-0.25838 -0.248047,-0.34279 -0.1188559,-0.0844 -0.3255618,-0.0844 H 2.786212 v 1.08692 H 2.4382571 v -2.57176 h 0.7854823 q 0.4409725,0 0.6580137,0.18431 0.2170411,0.18431 0.2170411,0.55639 0,0.24287 -0.1136882,0.40307 -0.1119657,0.1602 -0.3272843,0.22221 z M 2.786212,200.73714 v 0.91295 h 0.4375274 q 0.2514921,0 0.3789607,-0.11541 0.1291912,-0.11713 0.1291912,-0.34278 0,-0.22566 -0.1291912,-0.33935 -0.1274686,-0.11541 -0.3789607,-0.11541 z"
         style="-inkscape-font-specification:'DejaVu Sans, Normal';stroke-width:0.332656"
         id="path1474" /><path
         d="m 6.367391,201.9791 v 0.15503 H 4.9101147 q 0.02067,0.32728 0.1963705,0.49954 0.1774226,0.17053 0.492649,0.17053 0.1825902,0 0.3531225,-0.0448 0.1722549,-0.0448 0.3410647,-0.13435 v 0.29972 q -0.1705324,0.0724 -0.3496774,0.11024 -0.1791451,0.0379 -0.3634578,0.0379 -0.4616431,0 -0.7320833,-0.26872 -0.2687176,-0.26872 -0.2687176,-0.72691 0,-0.47371 0.2549372,-0.75104 0.2566598,-0.27905 0.6907421,-0.27905 0.389296,0 0.6149499,0.25149 0.2273765,0.24977 0.2273765,0.68041 z m -0.316949,-0.093 q -0.00345,-0.2601 -0.1464167,-0.41513 -0.141249,-0.15503 -0.3755156,-0.15503 -0.2652725,0 -0.4254696,0.14986 -0.1584745,0.14986 -0.1825902,0.42202 z"
         style="-inkscape-font-specification:'DejaVu Sans, Normal';stroke-width:0.332656"
         id="path1476" /><path
         d="m 8.3896636,201.46406 q 0.1188559,-0.2136 0.2842206,-0.31523 0.1653647,-0.10163 0.389296,-0.10163 0.3014461,0 0.4650882,0.21187 0.1636421,0.21016 0.1636421,0.59945 v 1.16444 H 9.373239 v -1.1541 q 0,-0.27733 -0.098185,-0.41169 -0.098185,-0.13436 -0.2997235,-0.13436 -0.2463245,0 -0.389296,0.16364 -0.1429716,0.16364 -0.1429716,0.44614 v 1.09037 H 8.1243911 v -1.1541 q 0,-0.27906 -0.098185,-0.41169 -0.098185,-0.13436 -0.3031686,-0.13436 -0.2428794,0 -0.3858509,0.16536 -0.1429716,0.16365 -0.1429716,0.44442 v 1.09037 H 6.8755432 v -1.92925 h 0.3186715 v 0.29972 q 0.1085206,-0.17742 0.2601049,-0.26182 0.1515843,-0.0844 0.3600127,-0.0844 0.210151,0 0.3565676,0.1068 0.1481392,0.1068 0.2187637,0.31006 z"
         style="-inkscape-font-specification:'DejaVu Sans, Normal';stroke-width:0.332656"
         id="path1478" /><path
         d="m 11.200863,202.05317 q -0.384128,0 -0.532267,0.0879 -0.14814,0.0879 -0.14814,0.29972 0,0.16881 0.110244,0.26872 0.111965,0.0982 0.303168,0.0982 0.26355,0 0.422025,-0.18604 0.160197,-0.18776 0.160197,-0.49782 v -0.0706 z m 0.632176,-0.13091 v 1.1007 H 11.51609 v -0.29283 q -0.108521,0.1757 -0.270441,0.26011 -0.161919,0.0827 -0.396186,0.0827 -0.296278,0 -0.471978,-0.16537 -0.173978,-0.16708 -0.173978,-0.44614 0,-0.32556 0.217042,-0.49092 0.218763,-0.16537 0.651123,-0.16537 h 0.444418 v -0.031 q 0,-0.21877 -0.144694,-0.33762 -0.142972,-0.12058 -0.403077,-0.12058 -0.165365,0 -0.322117,0.0396 -0.156751,0.0396 -0.301446,0.11885 v -0.29283 q 0.173978,-0.0672 0.33762,-0.0999 0.163642,-0.0344 0.318672,-0.0344 0.418579,0 0.625285,0.21704 0.206706,0.21704 0.206706,0.65802 z"
         style="-inkscape-font-specification:'DejaVu Sans, Normal';stroke-width:0.332656"
         id="path1480" /><path
         d="m 12.485885,201.09371 h 0.316949 v 1.92925 h -0.316949 z m 0,-0.75103 h 0.316949 v 0.40135 h -0.316949 z"
         style="-inkscape-font-specification:'DejaVu Sans, Normal';stroke-width:0.332656"
         id="path1482" /><path
         d="m 15.069708,201.85852 v 1.16444 h -0.316949 v -1.1541 q 0,-0.27389 -0.106798,-0.40997 -0.106798,-0.13608 -0.320394,-0.13608 -0.25666,0 -0.404799,0.16364 -0.148139,0.16364 -0.148139,0.44614 v 1.09037 h -0.318672 v -1.92925 h 0.318672 v 0.29972 q 0.113688,-0.17397 0.266995,-0.2601 0.155029,-0.0861 0.356567,-0.0861 0.332452,0 0.502985,0.20671 0.170532,0.20498 0.170532,0.60461 z"
         style="-inkscape-font-specification:'DejaVu Sans, Normal';stroke-width:0.332656"
         id="path1484" /><path
         d="m 16.971402,201.38654 v -1.04386 h 0.316949 v 2.68028 h -0.316949 v -0.28938 q -0.09991,0.17225 -0.253215,0.25666 -0.151584,0.0827 -0.36518,0.0827 -0.349678,0 -0.570164,-0.27905 -0.218763,-0.27906 -0.218763,-0.73381 0,-0.45475 0.218763,-0.73381 0.220486,-0.27905 0.570164,-0.27905 0.213596,0 0.36518,0.0844 0.153307,0.0827 0.253215,0.25493 z m -1.080038,0.67352 q 0,0.34968 0.142971,0.54949 0.144694,0.1981 0.396187,0.1981 0.251492,0 0.396186,-0.1981 0.144694,-0.19981 0.144694,-0.54949 0,-0.34968 -0.144694,-0.54777 -0.144694,-0.19982 -0.396186,-0.19982 -0.251493,0 -0.396187,0.19982 -0.142971,0.19809 -0.142971,0.54777 z"
         style="-inkscape-font-specification:'DejaVu Sans, Normal';stroke-width:0.332656"
         id="path1486" /><path
         d="m 19.591398,201.9791 v 0.15503 h -1.457276 q 0.02067,0.32728 0.196371,0.49954 0.177422,0.17053 0.492649,0.17053 0.18259,0 0.353122,-0.0448 0.172255,-0.0448 0.341065,-0.13435 v 0.29972 q -0.170533,0.0724 -0.349678,0.11024 -0.179145,0.0379 -0.363457,0.0379 -0.461644,0 -0.732084,-0.26872 -0.268717,-0.26872 -0.268717,-0.72691 0,-0.47371 0.254937,-0.75104 0.25666,-0.27905 0.690742,-0.27905 0.389296,0 0.61495,0.25149 0.227376,0.24977 0.227376,0.68041 z m -0.316949,-0.093 q -0.0034,-0.2601 -0.146416,-0.41513 -0.141249,-0.15503 -0.375516,-0.15503 -0.265272,0 -0.42547,0.14986 -0.158474,0.14986 -0.18259,0.42202 z"
         style="-inkscape-font-specification:'DejaVu Sans, Normal';stroke-width:0.332656"
         id="path1488" /><path
         d="m 21.229543,201.38999 q -0.0534,-0.031 -0.117134,-0.0448 -0.06201,-0.0155 -0.137803,-0.0155 -0.268718,0 -0.413412,0.1757 -0.142972,0.17398 -0.142972,0.50126 v 1.0163 h -0.318671 v -1.92925 h 0.318671 v 0.29972 q 0.09991,-0.1757 0.260105,-0.2601 0.160197,-0.0861 0.389296,-0.0861 0.03273,0 0.07235,0.005 0.03962,0.003 0.08785,0.0121 z"
         style="-inkscape-font-specification:'DejaVu Sans, Normal';stroke-width:0.332656"
         id="path1490" /><path
         d="m 22.697155,200.4512 h 1.477947 v 0.29283 H 23.04511 v 0.75792 h 1.019749 v 0.29284 H 23.04511 v 1.22817 h -0.347955 z"
         style="-inkscape-font-specification:'DejaVu Sans, Normal';stroke-width:0.332656"
         id="path1492" /><path
         d="m 25.334376,201.31592 q -0.254937,0 -0.403076,0.19981 -0.148139,0.1981 -0.148139,0.54433 0,0.34623 0.146416,0.54605 0.14814,0.19809 0.404799,0.19809 0.253215,0 0.401354,-0.19981 0.148139,-0.19982 0.148139,-0.54433 0,-0.34279 -0.148139,-0.5426 -0.148139,-0.20154 -0.401354,-0.20154 z m 0,-0.26872 q 0.413412,0 0.649401,0.26872 0.23599,0.26872 0.23599,0.74414 0,0.4737 -0.23599,0.74414 -0.235989,0.26872 -0.649401,0.26872 -0.415134,0 -0.651123,-0.26872 -0.234267,-0.27044 -0.234267,-0.74414 0,-0.47542 0.234267,-0.74414 0.235989,-0.26872 0.651123,-0.26872 z"
         style="-inkscape-font-specification:'DejaVu Sans, Normal';stroke-width:0.332656"
         id="path1494" /><path
         d="m 26.745144,200.34268 h 0.316949 v 2.68028 h -0.316949 z"
         style="-inkscape-font-specification:'DejaVu Sans, Normal';stroke-width:0.332656"
         id="path1496" /><path
         d="m 28.994794,201.38654 v -1.04386 h 0.316949 v 2.68028 h -0.316949 v -0.28938 q -0.09991,0.17225 -0.253215,0.25666 -0.151584,0.0827 -0.36518,0.0827 -0.349678,0 -0.570164,-0.27905 -0.218764,-0.27906 -0.218764,-0.73381 0,-0.45475 0.218764,-0.73381 0.220486,-0.27905 0.570164,-0.27905 0.213596,0 0.36518,0.0844 0.153307,0.0827 0.253215,0.25493 z m -1.080038,0.67352 q 0,0.34968 0.142971,0.54949 0.144694,0.1981 0.396186,0.1981 0.251492,0 0.396187,-0.1981 0.144694,-0.19981 0.144694,-0.54949 0,-0.34968 -0.144694,-0.54777 -0.144695,-0.19982 -0.396187,-0.19982 -0.251492,0 -0.396186,0.19982 -0.142971,0.19809 -0.142971,0.54777 z"
         style="-inkscape-font-specification:'DejaVu Sans, Normal';stroke-width:0.332656"
         id="path1498" /></g><g
       aria-label="shape"
       id="text4213"
       style="font-weight:bold;font-size:2.11667px;font-family:'DejaVu Sans';-inkscape-font-specification:'DejaVu Sans, Bold';letter-spacing:0px;word-spacing:0px;stroke-width:0.264583;fill:#fafafa;fill-opacity:1"><path
         d="m 5.4430747,252.2224 v 0.28112 q -0.1188559,-0.0496 -0.2294437,-0.0744 -0.1105877,-0.0248 -0.2087731,-0.0248 -0.1054201,0 -0.1570966,0.0269 -0.050643,0.0258 -0.050643,0.0806 0,0.0444 0.038241,0.0682 0.039274,0.0238 0.1395265,0.0351 l 0.065112,0.009 q 0.2842209,0.0362 0.3824062,0.11886 0.098185,0.0827 0.098185,0.25942 0,0.185 -0.136426,0.27802 -0.136426,0.093 -0.4072109,0.093 -0.1147219,0 -0.2377119,-0.0186 -0.1219566,-0.0176 -0.2511479,-0.0537 v -0.28112 q 0.1105877,0.0537 0.2263431,0.0806 0.1167889,0.0269 0.2366784,0.0269 0.1085207,0 0.1632978,-0.03 0.054777,-0.03 0.054777,-0.0889 0,-0.0496 -0.038241,-0.0734 -0.037207,-0.0248 -0.1498619,-0.0382 l -0.065112,-0.008 q -0.2470137,-0.031 -0.3462326,-0.11472 -0.099219,-0.0837 -0.099219,-0.25425 0,-0.18397 0.1260907,-0.27286 0.1260907,-0.0889 0.3865403,-0.0889 0.1023195,0 0.2149743,0.0155 0.1126548,0.0155 0.2449466,0.0486 z"
         style="fill:#fafafa;fill-opacity:1"
         id="path4426" /><path
         d="m 6.9623642,252.63891 v 0.70487 H 6.5902933 v -0.11472 -0.42272 q 0,-0.15192 -0.00723,-0.20877 -0.0062,-0.0568 -0.022738,-0.0837 -0.021704,-0.0362 -0.058911,-0.0558 -0.037207,-0.0207 -0.084749,-0.0207 -0.1157554,0 -0.1819014,0.0899 -0.066146,0.0889 -0.066146,0.24702 v 0.56947 H 5.7986092 v -1.60817 H 6.168613 v 0.62012 q 0.083716,-0.10129 0.1777672,-0.14883 0.094051,-0.0486 0.2077396,-0.0486 0.2005048,0 0.3038579,0.12299 0.1043865,0.12299 0.1043865,0.3576 z"
         style="fill:#fafafa;fill-opacity:1"
         id="path4428" /><path
         d="m 7.8243283,252.82288 q -0.1157554,0 -0.1746666,0.0393 -0.057878,0.0393 -0.057878,0.11575 0,0.0703 0.046509,0.11059 0.047542,0.0393 0.1312583,0.0393 0.1043866,0 0.1757001,-0.0744 0.071314,-0.0754 0.071314,-0.1881 v -0.0424 z m 0.565341,-0.13953 v 0.66043 H 8.0165649 v -0.17157 q -0.074414,0.10542 -0.1674319,0.154 -0.093018,0.0475 -0.2263431,0.0475 -0.1798342,0 -0.292489,-0.10438 -0.1116213,-0.10542 -0.1116213,-0.27286 0,-0.2036 0.1395266,-0.29869 0.1405601,-0.0951 0.4402839,-0.0951 h 0.2180748 v -0.0289 q 0,-0.0879 -0.069247,-0.12816 -0.069247,-0.0413 -0.2160078,-0.0413 -0.118856,0 -0.2211755,0.0238 -0.1023195,0.0238 -0.1901695,0.0713 v -0.28216 q 0.1188559,-0.0289 0.2387454,-0.0434 0.1198895,-0.0155 0.2397791,-0.0155 0.3131596,0 0.4516527,0.12402 0.1395265,0.123 0.1395265,0.40101 z"
         style="fill:#fafafa;fill-opacity:1"
         id="path4430" /><path
         d="m 9.103839,253.17635 v 0.60771 H 8.7338351 v -1.59783 H 9.103839 v 0.1695 q 0.076481,-0.10129 0.1694989,-0.14883 0.093018,-0.0486 0.2139408,-0.0486 0.2139407,0 0.3514002,0.17053 0.1374596,0.1695 0.1374596,0.43719 0,0.26768 -0.1374596,0.43821 -0.1374595,0.1695 -0.3514002,0.1695 -0.1209231,0 -0.2139408,-0.0475 -0.093018,-0.0486 -0.1694989,-0.14986 z m 0.2459802,-0.74931 q -0.118856,0 -0.1829349,0.0879 -0.063045,0.0868 -0.063045,0.25115 0,0.16433 0.063045,0.25218 0.064079,0.0868 0.1829349,0.0868 0.1188559,0 0.1808677,-0.0868 0.063045,-0.0868 0.063045,-0.25218 0,-0.16537 -0.063045,-0.25218 -0.062012,-0.0868 -0.1808677,-0.0868 z"
         style="fill:#fafafa;fill-opacity:1"
         id="path4432" /><path
         d="m 11.404477,252.7619 v 0.10542 h -0.865065 q 0.01344,0.13023 0.09405,0.19534 0.08061,0.0651 0.225309,0.0651 0.116789,0 0.238746,-0.0341 0.12299,-0.0351 0.252181,-0.10542 v 0.28525 q -0.131258,0.0496 -0.262517,0.0744 -0.131258,0.0258 -0.262516,0.0258 -0.314193,0 -0.48886,-0.15916 -0.173633,-0.1602 -0.173633,-0.44855 0,-0.28319 0.170532,-0.44545 0.171566,-0.16227 0.47129,-0.16227 0.272852,0 0.43615,0.16433 0.164331,0.16433 0.164331,0.43925 z m -0.380339,-0.12299 q 0,-0.10542 -0.06201,-0.1695 -0.06098,-0.0651 -0.160197,-0.0651 -0.107487,0 -0.174666,0.061 -0.06718,0.0599 -0.08372,0.17363 z"
         style="fill:#fafafa;fill-opacity:1"
         id="path4434" /></g><g
       aria-label="shape"
       id="text4296"
       style="font-weight:bold;font-size:2.11667px;font-family:'DejaVu Sans';-inkscape-font-specification:'DejaVu Sans, Bold';letter-spacing:0px;word-spacing:0px;stroke-width:0.264583"><path
         d="m 17.349324,277.35781 v 0.28112 q -0.118856,-0.0496 -0.229444,-0.0744 -0.110588,-0.0248 -0.208773,-0.0248 -0.10542,0 -0.157097,0.0269 -0.05064,0.0258 -0.05064,0.0806 0,0.0444 0.03824,0.0682 0.03927,0.0238 0.139527,0.0351 l 0.06511,0.009 q 0.284221,0.0362 0.382406,0.11886 0.09819,0.0827 0.09819,0.25941 0,0.185 -0.136426,0.27802 -0.136426,0.093 -0.407211,0.093 -0.114722,0 -0.237712,-0.0186 -0.121957,-0.0176 -0.251148,-0.0538 v -0.28112 q 0.110588,0.0537 0.226343,0.0806 0.116789,0.0269 0.236678,0.0269 0.108521,0 0.163298,-0.03 0.05478,-0.03 0.05478,-0.0889 0,-0.0496 -0.03824,-0.0734 -0.03721,-0.0248 -0.149862,-0.0382 l -0.06511,-0.008 q -0.247013,-0.031 -0.346232,-0.11472 -0.09922,-0.0837 -0.09922,-0.25425 0,-0.18396 0.126091,-0.27285 0.12609,-0.0889 0.38654,-0.0889 0.102319,0 0.214974,0.0155 0.112655,0.0155 0.244947,0.0486 z"
         style="fill:#fbfbfb"
         id="path4447" /><path
         d="m 18.868613,277.77432 v 0.70487 h -0.372071 v -0.11472 -0.42272 q 0,-0.15193 -0.0072,-0.20877 -0.0062,-0.0568 -0.02274,-0.0837 -0.0217,-0.0362 -0.05891,-0.0558 -0.03721,-0.0207 -0.08475,-0.0207 -0.115755,0 -0.181901,0.0899 -0.06615,0.0889 -0.06615,0.24701 v 0.56948 h -0.370004 v -1.60818 h 0.370004 v 0.62012 q 0.08372,-0.10128 0.177767,-0.14883 0.09405,-0.0486 0.20774,-0.0486 0.200505,0 0.303858,0.12299 0.104386,0.12299 0.104386,0.3576 z"
         style="fill:#fbfbfb"
         id="path4449" /><path
         d="m 19.730577,277.95829 q -0.115755,0 -0.174666,0.0393 -0.05788,0.0393 -0.05788,0.11576 0,0.0703 0.04651,0.11059 0.04754,0.0393 0.131258,0.0393 0.104387,0 0.1757,-0.0744 0.07131,-0.0754 0.07131,-0.18811 v -0.0424 z m 0.565341,-0.13953 v 0.66043 h -0.373104 v -0.17157 q -0.07441,0.10542 -0.167432,0.154 -0.09302,0.0475 -0.226343,0.0475 -0.179834,0 -0.292489,-0.10439 -0.111621,-0.10542 -0.111621,-0.27285 0,-0.2036 0.139526,-0.29869 0.14056,-0.0951 0.440284,-0.0951 h 0.218075 v -0.0289 q 0,-0.0879 -0.06925,-0.12816 -0.06925,-0.0413 -0.216007,-0.0413 -0.118856,0 -0.221176,0.0238 -0.102319,0.0238 -0.190169,0.0713 v -0.28215 q 0.118856,-0.0289 0.238745,-0.0434 0.11989,-0.0155 0.239779,-0.0155 0.31316,0 0.451653,0.12402 0.139526,0.12299 0.139526,0.40101 z"
         style="fill:#fbfbfb"
         id="path4451" /><path
         d="m 21.010088,278.31176 v 0.60771 h -0.370004 v -1.59784 h 0.370004 v 0.1695 q 0.07648,-0.10128 0.169499,-0.14883 0.09302,-0.0486 0.213941,-0.0486 0.21394,0 0.3514,0.17053 0.13746,0.1695 0.13746,0.43718 0,0.26769 -0.13746,0.43822 -0.13746,0.1695 -0.3514,0.1695 -0.120923,0 -0.213941,-0.0475 -0.09302,-0.0486 -0.169499,-0.14986 z m 0.24598,-0.74931 q -0.118856,0 -0.182935,0.0879 -0.06304,0.0868 -0.06304,0.25114 0,0.16433 0.06304,0.25218 0.06408,0.0868 0.182935,0.0868 0.118856,0 0.180868,-0.0868 0.06304,-0.0868 0.06304,-0.25218 0,-0.16536 -0.06304,-0.25218 -0.06201,-0.0868 -0.180868,-0.0868 z"
         style="fill:#fbfbfb"
         id="path4453" /><path
         d="m 23.310726,277.89731 v 0.10542 h -0.865065 q 0.01344,0.13022 0.09405,0.19534 0.08062,0.0651 0.225309,0.0651 0.116789,0 0.238746,-0.0341 0.12299,-0.0351 0.252181,-0.10542 v 0.28526 q -0.131258,0.0496 -0.262516,0.0744 -0.131259,0.0258 -0.262517,0.0258 -0.314193,0 -0.48886,-0.15916 -0.173633,-0.1602 -0.173633,-0.44856 0,-0.28318 0.170532,-0.44545 0.171566,-0.16226 0.47129,-0.16226 0.272852,0 0.43615,0.16433 0.164331,0.16433 0.164331,0.43925 z m -0.380339,-0.12299 q 0,-0.10542 -0.06201,-0.1695 -0.06098,-0.0651 -0.160197,-0.0651 -0.107487,0 -0.174666,0.061 -0.06718,0.0599 -0.08372,0.17363 z"
         style="fill:#fbfbfb"
         id="path4455" /></g><g
       aria-label="feed"
       id="text4300"
       style="font-weight:bold;font-size:2.11667px;font-family:'DejaVu Sans';-inkscape-font-specification:'DejaVu Sans, Bold';letter-spacing:0px;word-spacing:0px;fill:#f9f9f9;stroke-width:0.264583"><path
         d="m 10.26087,276.84102 v 0.24287 h -0.204639 q -0.078548,0 -0.1095541,0.0289 -0.031006,0.0279 -0.031006,0.0982 v 0.0806 h 0.31626 v 0.26459 h -0.31626 v 0.89297 H 9.5456672 v -0.89297 H 9.3616988 v -0.26459 h 0.1839684 v -0.0806 q 0,-0.18914 0.10542,-0.27905 0.1054201,-0.0909 0.3265956,-0.0909 z"
         id="path4341" /><path
         d="m 11.575521,277.86731 v 0.10542 h -0.865065 q 0.01344,0.13023 0.09405,0.19534 0.08062,0.0651 0.22531,0.0651 0.116788,0 0.238745,-0.0341 0.12299,-0.0351 0.252181,-0.10542 v 0.28526 q -0.131258,0.0496 -0.262516,0.0744 -0.131259,0.0258 -0.262517,0.0258 -0.314193,0 -0.48886,-0.15916 -0.173633,-0.1602 -0.173633,-0.44856 0,-0.28318 0.170533,-0.44545 0.171566,-0.16226 0.471289,-0.16226 0.272852,0 0.43615,0.16433 0.164332,0.16433 0.164332,0.43925 z m -0.38034,-0.12299 q 0,-0.10542 -0.06201,-0.1695 -0.06098,-0.0651 -0.160198,-0.0651 -0.107487,0 -0.174666,0.061 -0.06718,0.0599 -0.08372,0.17363 z"
         id="path4343" /><path
         d="m 13.011094,277.86731 v 0.10542 h -0.865065 q 0.01344,0.13023 0.09405,0.19534 0.08062,0.0651 0.22531,0.0651 0.116789,0 0.238746,-0.0341 0.12299,-0.0351 0.252181,-0.10542 v 0.28526 q -0.131258,0.0496 -0.262517,0.0744 -0.131258,0.0258 -0.262516,0.0258 -0.314194,0 -0.48886,-0.15916 -0.173633,-0.1602 -0.173633,-0.44856 0,-0.28318 0.170532,-0.44545 0.171566,-0.16226 0.47129,-0.16226 0.272852,0 0.43615,0.16433 0.164331,0.16433 0.164331,0.43925 z m -0.380339,-0.12299 q 0,-0.10542 -0.06201,-0.1695 -0.06098,-0.0651 -0.160197,-0.0651 -0.107487,0 -0.174667,0.061 -0.06718,0.0599 -0.08372,0.17363 z"
         id="path4345" /><path
         d="m 14.078731,277.46113 v -0.62011 h 0.37207 v 1.60817 h -0.37207 v -0.16743 q -0.07648,0.10232 -0.168466,0.14986 -0.09198,0.0475 -0.212907,0.0475 -0.213941,0 -0.3514,-0.1695 -0.13746,-0.17053 -0.13746,-0.43822 0,-0.26768 0.13746,-0.43718 0.137459,-0.17053 0.3514,-0.17053 0.119889,0 0.211874,0.0486 0.09302,0.0476 0.169499,0.14883 z m -0.243914,0.74931 q 0.118856,0 0.180868,-0.0868 0.06305,-0.0868 0.06305,-0.25219 0,-0.16536 -0.06305,-0.25218 -0.06201,-0.0868 -0.180868,-0.0868 -0.117822,0 -0.180867,0.0868 -0.06201,0.0868 -0.06201,0.25218 0,0.16537 0.06201,0.25219 0.06305,0.0868 0.180867,0.0868 z"
         id="path4347" /></g><g
       aria-label="gain"
       id="text4314"
       style="font-weight:bold;font-size:2.11667px;font-family:'DejaVu Sans';-inkscape-font-specification:'DejaVu Sans, Bold';letter-spacing:0px;word-spacing:0px;fill:#fbfbfb;stroke-width:0.264583"><path
         d="m 2.3812475,278.28282 q -0.076481,0.10128 -0.1684654,0.14882 -0.091984,0.0476 -0.2129073,0.0476 -0.2118736,0 -0.3503667,-0.1664 -0.138493,-0.16743 -0.138493,-0.42582 0,-0.25941 0.138493,-0.42478 0.1384931,-0.1664 0.3503667,-0.1664 0.1209231,0 0.2129073,0.0476 0.091984,0.0475 0.1684654,0.14986 v -0.17157 h 0.3720709 v 1.04077 q 0,0.27905 -0.1767337,0.42581 -0.1757001,0.1478 -0.5105639,0.1478 -0.1085207,0 -0.2098067,-0.0165 -0.1012859,-0.0165 -0.2036054,-0.0506 v -0.28836 q 0.097152,0.0558 0.1901696,0.0827 0.093018,0.0279 0.1870689,0.0279 0.1819013,0 0.2666508,-0.0796 0.08475,-0.0796 0.08475,-0.24908 z m -0.2439131,-0.72037 q -0.1147219,0 -0.1788008,0.0847 -0.064079,0.0847 -0.064079,0.23977 0,0.15917 0.062012,0.24185 0.062012,0.0816 0.1808678,0.0816 0.1157554,0 0.1798342,-0.0847 0.064079,-0.0847 0.064079,-0.23875 0,-0.15503 -0.064079,-0.23977 -0.064079,-0.0847 -0.1798342,-0.0847 z"
         id="path4324" /><path
         d="m 3.627685,277.95829 q -0.1157554,0 -0.1746667,0.0393 -0.057878,0.0393 -0.057878,0.11576 0,0.0703 0.046509,0.11059 0.047542,0.0393 0.1312584,0.0393 0.1043865,0 0.1757001,-0.0744 0.071314,-0.0754 0.071314,-0.18811 v -0.0424 z m 0.565341,-0.13953 v 0.66043 H 3.8199216 v -0.17157 q -0.074414,0.10542 -0.1674319,0.154 -0.093018,0.0475 -0.2263431,0.0475 -0.1798343,0 -0.2924891,-0.10439 -0.1116213,-0.10542 -0.1116213,-0.27285 0,-0.2036 0.1395266,-0.29869 0.1405601,-0.0951 0.4402839,-0.0951 h 0.2180749 v -0.0289 q 0,-0.0879 -0.069246,-0.12816 -0.069247,-0.0413 -0.2160079,-0.0413 -0.1188559,0 -0.2211754,0.0238 -0.1023195,0.0238 -0.1901696,0.0713 v -0.28215 q 0.118856,-0.0289 0.2387455,-0.0434 0.1198895,-0.0155 0.239779,-0.0155 0.3131597,0 0.4516527,0.12402 0.1395266,0.12299 0.1395266,0.40101 z"
         id="path4326" /><path
         d="m 4.5371916,277.32163 h 0.3700038 v 1.15756 H 4.5371916 Z m 0,-0.45062 h 0.3700038 v 0.30179 H 4.5371916 Z"
         id="path4328" /><path
         d="m 6.4264848,277.77432 v 0.70487 H 6.054414 v -0.11472 -0.42479 q 0,-0.14986 -0.00723,-0.2067 -0.0062,-0.0568 -0.022738,-0.0837 -0.021704,-0.0362 -0.058911,-0.0558 -0.037207,-0.0207 -0.084749,-0.0207 -0.1157554,0 -0.1819013,0.0899 -0.066146,0.0889 -0.066146,0.24701 v 0.56948 H 5.2627298 v -1.15756 h 0.3700038 v 0.1695 q 0.083716,-0.10128 0.1777672,-0.14883 0.094051,-0.0486 0.2077396,-0.0486 0.2005049,0 0.3038579,0.12299 0.1043865,0.12299 0.1043865,0.3576 z"
         id="path4330" /></g><g
       aria-label="mix"
       id="g4322"
       style="font-weight:bold;font-size:2.11667px;font-family:'DejaVu Sans';-inkscape-font-specification:'DejaVu Sans, Bold';letter-spacing:0px;word-spacing:0px;fill:#fafafa;stroke-width:0.264583"
       transform="translate(3.9687795,23.008272)"><path
         d="m 22.843049,254.50543 q 0.07028,-0.10749 0.166399,-0.1633 0.09715,-0.0568 0.212907,-0.0568 0.199471,0 0.303858,0.12299 0.104386,0.12299 0.104386,0.3576 v 0.70487 h -0.37207 v -0.60358 q 0.001,-0.0134 0.001,-0.0279 10e-4,-0.0145 10e-4,-0.0413 0,-0.12299 -0.03617,-0.17777 -0.03617,-0.0558 -0.116789,-0.0558 -0.10542,0 -0.163298,0.0868 -0.05684,0.0868 -0.05891,0.25115 v 0.56844 h -0.372071 v -0.60358 q 0,-0.19224 -0.03307,-0.24702 -0.03307,-0.0558 -0.117822,-0.0558 -0.106454,0 -0.164331,0.0879 -0.05788,0.0868 -0.05788,0.24908 v 0.56948 h -0.372071 v -1.15755 h 0.372071 v 0.16949 q 0.06821,-0.0982 0.156063,-0.14779 0.08888,-0.0496 0.195337,-0.0496 0.11989,0 0.211874,0.0579 0.09198,0.0579 0.139526,0.16226 z"
         id="path4316" /><path
         d="m 23.975799,254.3132 h 0.370003 v 1.15755 h -0.370003 z m 0,-0.45062 h 0.370003 v 0.30179 h -0.370003 z"
         id="path4318" /><path
         d="M 24.993826,254.87854 24.57628,254.3132 h 0.391708 l 0.236678,0.34313 0.239779,-0.34313 h 0.391708 l -0.417546,0.56327 0.438217,0.59428 h -0.391708 l -0.26045,-0.36587 -0.257349,0.36587 h -0.391708 z"
         id="path4320" /></g><g
       aria-label="fold"
       id="text4470"
       style="font-weight:bold;font-size:2.11667px;font-family:'DejaVu Sans';-inkscape-font-specification:'DejaVu Sans, Bold';letter-spacing:0px;word-spacing:0px;fill:#fafafa;stroke-width:0.264583"
       transform="translate(-2.1520335,5.1654261)"><path
         d="m 16.727369,230.66517 v 0.24288 H 16.52273 q -0.07855,0 -0.109554,0.0289 -0.03101,0.0279 -0.03101,0.0982 v 0.0806 h 0.316261 v 0.26459 H 16.38217 v 0.89297 h -0.370004 v -0.89297 h -0.183968 v -0.26459 h 0.183968 v -0.0806 q 0,-0.18914 0.105421,-0.27906 0.10542,-0.091 0.326595,-0.091 z"
         id="path4476" /><path
         d="m 17.437405,231.35247 q -0.12299,0 -0.188103,0.0889 -0.06408,0.0879 -0.06408,0.25425 0,0.1664 0.06408,0.25528 0.06511,0.0878 0.188103,0.0878 0.120923,0 0.185002,-0.0878 0.06408,-0.0889 0.06408,-0.25528 0,-0.1664 -0.06408,-0.25425 -0.06408,-0.0889 -0.185002,-0.0889 z m 0,-0.26458 q 0.29869,0 0.466122,0.16123 0.168465,0.16123 0.168465,0.44648 0,0.28526 -0.168465,0.44649 -0.167432,0.16123 -0.466122,0.16123 -0.299724,0 -0.469223,-0.16123 -0.168465,-0.16123 -0.168465,-0.44649 0,-0.28525 0.168465,-0.44648 0.169499,-0.16123 0.469223,-0.16123 z"
         id="path4478" /><path
         d="m 18.34071,230.66517 h 0.370004 v 1.60818 H 18.34071 Z"
         id="path4480" /><path
         d="m 19.853798,231.28529 v -0.62012 h 0.372071 v 1.60818 h -0.372071 v -0.16744 q -0.07648,0.10232 -0.168465,0.14987 -0.09198,0.0475 -0.212907,0.0475 -0.213941,0 -0.351401,-0.1695 -0.137459,-0.17053 -0.137459,-0.43822 0,-0.26768 0.137459,-0.43718 0.13746,-0.17053 0.351401,-0.17053 0.119889,0 0.211873,0.0486 0.09302,0.0476 0.169499,0.14883 z m -0.243913,0.74931 q 0.118856,0 0.180868,-0.0868 0.06305,-0.0868 0.06305,-0.25218 0,-0.16536 -0.06305,-0.25218 -0.06201,-0.0868 -0.180868,-0.0868 -0.117822,0 -0.180868,0.0868 -0.06201,0.0868 -0.06201,0.25218 0,0.16537 0.06201,0.25218 0.06305,0.0868 0.180868,0.0868 z"
         id="path4482" /></g><g
       aria-label="fold"
       id="g4582"
       style="font-weight:bold;font-size:2.11667px;font-family:'DejaVu Sans';-inkscape-font-specification:'DejaVu Sans, Bold';letter-spacing:0px;word-spacing:0px;fill:#fafafa;stroke-width:0.264583"
       transform="translate(-2.1520335,59.405009)"><path
         d="m 16.727369,230.66517 v 0.24288 H 16.52273 q -0.07855,0 -0.109554,0.0289 -0.03101,0.0279 -0.03101,0.0982 v 0.0806 h 0.316261 v 0.26459 H 16.38217 v 0.89297 h -0.370004 v -0.89297 h -0.183968 v -0.26459 h 0.183968 v -0.0806 q 0,-0.18914 0.105421,-0.27906 0.10542,-0.091 0.326595,-0.091 z"
         id="path4574" /><path
         d="m 17.437405,231.35247 q -0.12299,0 -0.188103,0.0889 -0.06408,0.0879 -0.06408,0.25425 0,0.1664 0.06408,0.25528 0.06511,0.0878 0.188103,0.0878 0.120923,0 0.185002,-0.0878 0.06408,-0.0889 0.06408,-0.25528 0,-0.1664 -0.06408,-0.25425 -0.06408,-0.0889 -0.185002,-0.0889 z m 0,-0.26458 q 0.29869,0 0.466122,0.16123 0.168465,0.16123 0.168465,0.44648 0,0.28526 -0.168465,0.44649 -0.167432,0.16123 -0.466122,0.16123 -0.299724,0 -0.469223,-0.16123 -0.168465,-0.16123 -0.168465,-0.44649 0,-0.28525 0.168465,-0.44648 0.169499,-0.16123 0.469223,-0.16123 z"
         id="path4576" /><path
         d="m 18.34071,230.66517 h 0.370004 v 1.60818 H 18.34071 Z"
         id="path4578" /><path
         d="m 19.853798,231.28529 v -0.62012 h 0.372071 v 1.60818 h -0.372071 v -0.16744 q -0.07648,0.10232 -0.168465,0.14987 -0.09198,0.0475 -0.212907,0.0475 -0.213941,0 -0.351401,-0.1695 -0.137459,-0.17053 -0.137459,-0.43822 0,-0.26768 0.137459,-0.43718 0.13746,-0.17053 0.351401,-0.17053 0.119889,0 0.211873,0.0486 0.09302,0.0476 0.169499,0.14883 z m -0.243913,0.74931 q 0.118856,0 0.180868,-0.0868 0.06305,-0.0868 0.06305,-0.25218 0,-0.16536 -0.06305,-0.25218 -0.06201,-0.0868 -0.180868,-0.0868 -0.117822,0 -0.180868,0.0868 -0.06201,0.0868 -0.06201,0.25218 0,0.16537 0.06201,0.25218 0.06305,0.0868 0.180868,0.0868 z"
         id="path4580" /></g></g></svg>
